<?xml version="1.0" encoding="UTF-8"?><svg id="Layer_1" xmlns="http://www.w3.org/2000/svg" viewBox="0 0 159.53 191.87"><path d="M0,179.02c4.96-4.67,14.96-4.19,21.27-4.98,3.39-15.2,6.78-30.27,9.01-45.7.47-3.23,1.24-6.63.41-9.87-.86-3.34-3.45-5.92-5.06-8.91-3.03-5.63-4.52-11.9-4.91-18.25-.92-15.13,2.11-30.75,4.54-45.62,1.25-7.64,2.56-15.26,3.86-22.89,1.03-6.09.73-16.66,6.62-20.12,6.05-3.56,14.76-2.99,21.35-1.57,6.24,1.34,16.14,4.33,18.77,10.89,4.39-5.3,10.57-8.29,17.13-9.95,6.42-1.63,16.03-3.15,22.09.42,2.83,1.66,3.73,4.41,4.61,7.39,1.27,4.29,2.45,8.6,3.62,12.91,2.19,8.1,4.44,16.18,6.59,24.29,4.37,16.52,8.87,34.08,5.8,51.27-.7,3.94-2,7.62-4.05,11.06-.85,1.42-2.27,2.86-2.76,4.45-.6,1.96-.05,4.08.19,6.12.98,8.37,2.15,16.72,4.05,24.93.91,3.95,2.03,7.83,3.26,11.69.94,2.92,1.84,9.49,3.98,11.63,3.98,3.98,17.02-.87,19.04,6.11.69,2.38-1.37,5.88-2.93,7.56-2.56,2.76-6.88,3.4-10.37,4.29-8.31,2.11-17.57,3.46-26.15,3.57-2.19.03-7.24.08-6.07-3.29.95-2.73,5.89-5.41,8.2-6.83,2.09-1.28,7.73-3.1,8.66-5.43.51-1.26-.78-4.87-1.04-6.19-.5-2.5-1-5-1.49-7.5-1.67-8.34-3.35-16.67-5.11-24.98-1.39-6.59-2.97-14.79-8.83-18.87-6.33-4.4-11.29-8.84-15.18-15.64-4.27-7.44-7.05-15.73-9.47-23.93-2.71-9.17-4.99-18.47-7.24-27.75-1.19-4.88-2.34-9.76-3.5-14.64-.52-2.17-1.03-4.34-1.55-6.51-.4-1.69-.58-4.88-1.84-6.2-2.21,17.38-3.83,34.96-7.74,52.07-3.27,14.34-8.05,32.21-20.71,41.22-1.25.89-3.13,1.51-4.13,2.68-1.15,1.36-1.45,3.99-1.95,5.67-1.28,4.3-2.49,8.62-3.57,12.97-2.02,8.11-3.8,16.4-4.58,24.73-.26,2.73-1.73,9.21-.08,11.51,1.8,2.5,6.83,4.2,9.39,5.95,2.74,1.87,6.76,4.29,4.63,8.06-1.54,2.74-5.26,4.56-8.22,5.08h-3.13c-6.56-1.1-13.04-3.07-19.47-4.76-5.44-1.43-11.74-2.43-15.93-6.52v-1.57ZM39.56,37.52c8.87,1.22,18.11,2.27,25.92,7.05,1.36-5.75,3.16-11.58,3.7-17.48.29-3.25.73-7.94-2.12-10.28-3.4-2.78-9.86-2.95-13.99-3.79-6-1.21-12.02-2.33-18.02-3.53-2.01,9.27-4,18.45-6.02,27.8,2.43-.85,7.58-.66,10.59.27-2.81-.37-9.74.05-10.18,1.02-.62,3.42,12.28,5.64,14.76,6.39,8.22,2.49,17.36,3.43,17.95,3.35,8.29-1.15-3.24-5.47-5.39-6.13-5.7-1.76-11.39-3.33-17.2-4.67ZM94.32,41.7c-3.75,1.48-6.38,2.76-9.4,5.39.82,2.98,12.56.14,14.97-.13,5.56-.62,11.48-.84,16.68-3.1.72-.31,4.65-1.79,4.52-3.18-.25-2.58-5.51-2.04-7-1.92-6.2.5-12.41,1.78-18.56,2.68,8.07-2.47,16.36-4.52,24.88-3.54-1.05-5.57-1.76-11.27-3.51-16.68-1.23-3.79-2.49-8.89-7.1-9.49-4.88-.63-10.73,1.57-15.42,2.66-5.27,1.22-10.52,2.44-15.83,3.47,1.83,9.31,3.62,18.47,5.42,27.63,3.32-2.12,6.73-3.26,10.36-3.8ZM129.05,69.94l.03.04c-.59-4.71-2.41-9.47-3.67-14.04-1.26-4.57-2.47-9.16-3.88-13.69-5.03,3.55-11.01,4.41-16.94,5.35-6.4,1.01-13.14,2.17-19.62,1.43,0,4.78,2.65,10.67,3.88,15.31,1.35,5.09,2.73,10.19,4.29,15.22,2.79,8.98,6.26,18.29,11.76,26,2.48,3.48,6.16,7.51,10.78,7.57,4.55.05,8.54-4,10.98-7.48,2.68-3.82,4.11-8.36,4.6-12.97.21-1.93,1.48-10.83-1.22-11.4,1.87-2.79-.36-8.11-.97-11.32ZM64.97,49.28c-12.32,0-25.72-2.87-36.68-8.76-1.71,12.01-3.84,24.03-4.67,36.14-.65,9.6-1.85,23.21,3.96,31.59,6.08,8.76,18.06,1.55,23.2-4.62,6.07-7.28,8.02-17.12,10.28-26.02-1.25.82-3.48,1.01-2.9-1.09.69-2.51,2.32.15,3.06.83,1.28-9.56,2.52-18.88,3.75-28.07ZM48.51,1.58c-3.5,0-7.03.2-10.06,2.16-3.35,2.16-3.08,3.67.7,4.76,7.55,2.17,15.73,2.97,23.46,4.38,1.86.34,6.89,2.15,8.62.57,2.1-1.91-1.22-4.6-2.72-5.72-5.59-4.17-13.1-6.19-20-6.15ZM80.24,15.49c8.07-1.06,16.15-3.41,24.09-5.27,2-.47,8.04-.82,8.98-3.09,1.18-2.87-3.35-3.89-5.34-4.28-6.87-1.35-14.31-.35-20.67,2.52-2.81,1.27-5.64,2.79-7.53,5.3-1.48,1.98-3.18,4.86.47,4.83ZM132.75,173.49c3.33-2.32,3.32-3.62,2.29-7.43-1.4-5.2-2.94-10.36-4.41-15.53-2.86-10.08-5.1-20.67-8.84-30.46-.16.05-.33.11-.49.16,3.04,17.88,6.83,35.59,11.44,53.26ZM23.57,173.99c1.71-.66,3.31-.89,4.19-2.56.86-1.66.69-4.7.96-6.59.68-4.82,1.4-9.64,2.05-14.46,1.34-9.97,3.37-20.25,3.37-30.31-2.63,7.29-10.93,49.75-10.57,53.93ZM5.12,177.71c2.62,2.7,29.22,8.41,32.07,7.04-2.67-1.79-5.54-3.11-8.42-4.52-2.3-1.12-5.23-3.24-7.73-3.74-4.73-.93-11.18.44-15.92,1.22ZM149.92,177.94c-5.21-.99-12.3-1.74-17.58-.84-4.59.78-11.19,4.22-14.58,7.32,4.46.96,29.79-4.16,32.16-6.48ZM13.8,183.87c-3.71-1.28-7.16-2.46-10.51-3.61,1.31,2.03,7.25,4.23,10.51,3.61ZM117.03,187.23c1.89,1.36,8.48,1.02,10.94-.85-3.85.3-7.45.58-10.94.85Z" style="stroke-width:0px;"/></svg>