<?xml version="1.0" encoding="UTF-8"?><svg id="Layer_1" xmlns="http://www.w3.org/2000/svg" viewBox="0 0 546.42 413.34"><path d="M0,170.61c2.72-3.67.86-14.42.98-18.77.21-7.46.43-14.93.69-22.39.25-7.28.52-14.56.8-21.84.07-1.94-.46-15.23,3.9-9.63,2.38,3.06.7,13.19.77,16.54.16,7.52.33,15.04.54,22.56.19,7.1.41,14.2.63,21.29.12,3.78-1.48,18.71,1.09,21.49,3-.03,2.32-36.98,2.44-41.26.15-5.42-1.78-41.52,3-42.76,2.45-.63,1.83,77.59,4.81,83.66,3.62-.42,2.14-35.71,2.24-39.95.19-7.64.46-15.28.67-22.93.07-2.82-1.12-19.33,1.74-20.45,3.94-1.54,2.75,13.46,2.8,15.18.22,7.58.48,15.15.68,22.73.2,7.67.46,15.34.69,23.01.13,4.26-1.78,20.33,1.77,22.85,2.56-1.34,1.14-15.16,1.23-17.78.26-7.87.36-15.75.55-23.63.12-5.06.03-42.82,3.71-41.87,3.93,1.02,2.48,35.82,2.65,40.89.53,15.78,2.15,31.89,1.52,47.67-.22,5.65-.8,12.07-4.57,16.49-3.84,4.5-7.1,6.62-8.49,12.83-3.3,14.8-1.38,31.78-1.35,46.83.04,15.52-1.35,31.67.43,47.09.91,7.89,3.22,15.3,5.22,22.94.68,2.62,1.81,5.63.95,8.36-.98,3.12-3.59,3.9-3.62,7.1-.03,3.44,3.74,8.95,4.98,12.22,1.6,4.2,2.99,8.26,2.59,12.84-.27,3.13-2.03,5.14-2.67,7.92-.66,2.87.03,4.8.39,7.87.59,4.98-1.41,5.22-2.17,9.09-.42,2.16,1,4.24.75,6.62-.62,5.77-7.07,5.8-10.31,9.91h-3.44c-2.16-2.05-3.54-2.72-5.69-4.11-1.65-1.07-2.87-.58-4.27-2.58-2.1-2.99.19-5-.34-7.64-.25-1.25-1.04-2.67-1.27-3.86-.44-2.26-1.33-2.73-1.25-5.56.07-2.46,1.74-5.12,1.38-7.53-.53-3.46-2.91-6.14-3.27-9.93-.94-9.75,8.99-19.42,7.23-27.95-.3-1.45-3.01-3.49-3.48-5.53-.34-1.48.22-3.09.43-4.54.88-5.99,3.53-11.86,4.86-17.79,2.69-12.04,1.54-24.95,1.55-37.22.01-12.7-.02-25.41-.05-38.11-.02-9.03,1.79-23.2-2.65-31.54-1.73-3.25-5.1-4.89-7.28-7.76-2.98-3.94-2.18-8.55-4.47-12.51v-18.57ZM17.64,303.97c-.16,0-.32,0-.47,0v-17.83c-.85,12.95-.81,25.9-.69,39.03,1.75-.93,1.37-14.47,1.84-17,.5,3.91-.01,8.3,1.49,11.95.29-4.5.85-8.53.41-12.61.8,2.69.57,16.8,2.12,17.85,1.68-5.35.37-12.86.7-18.54.32-5.54.3-11.06.27-16.61-.06-11.32.03-22.64.06-33.97.03-12.24-.68-24.65.62-36.85.46-4.33,1.13-8.77,3.45-12.56,1.88-3.06,6.98-5.27,7.7-8.84-6.81,5.27-10.99,9.47-12.23,18.37-1.28,9.14-.24,18.89-.19,28.09.05,9.99.05,19.98,0,29.98-.04,6.6,2.74,21.39-1.15,26.93-.42-17.7-.23-35.43-.25-53.14-.01-13.88-3.84-34.75,6.53-45.93,5.31-5.73,7.67-7.23,8.51-15.63,1.01-10.07.83-20.43.61-30.53-.38-17.64-1.15-35.28-2.23-52.89-.74,18.18-1.17,36.41-1.49,54.6-.07,3.97,2.05,22.26-2.2,24.16-5.97,2.67-4.22-17.8-4.22-20.23-.91,6.41-.87,12.84-.91,19.65-3.94-9.28-1.08-24.79-1.09-34.77-.02-11.03-.03-22.05-.03-33.08-2.36,5.02-.8,13.67-.91,19.13-.14,7.04-.29,14.09-.45,21.13-.15,6.59-.25,13.19-.6,19.78-.2,3.77-.83,11.85-5.24,6.3-2.55-3.21-1.07-12.5-1.13-16.36-.1-7.02-.29-14.03-.47-21.05-.34-12.84-.91-25.68-.91-38.52-.59,25.4-.12,50.8-1.41,76.18v-23.98c-.25,0-.5,0-.74,0,0,4.71,2.6,21.75-1.76,25.12-5.86,4.53-4.66-16.52-4.75-19.06-.66-19.63-.93-39.25-1.82-58.87-.44,17.53-1.53,35.04-1.91,52.58-.22,9.85-.24,19.75.5,29.58.63,8.43,2.88,10.9,8.6,16.82,10.51,10.88,6.57,34.04,6.68,47.74.15,17.92.17,36-.85,53.89ZM18.4,342.15c-.25,4.46-8.59,42.03,2.67,39.78,5.36-1.07,4.28-17.67,3.89-21.4-.59-5.56-4.37-12.62-2.5-18.05.06,2.47.43,4.24,1.34,5.9.94-.07,1.66-.88,2.67-.75q-.96-3.67,1.56-5.43c-4.54.23-5.25-.27-6.58-4.63.63-.93,2-1.02,2.55-2.03-.93-2-3.17-2.16-4.27-4.15-.65,1.73-3.39,2.27-3.73,3.92-.14.67,2.43,1.84,2.32,2.49-.85,5.11-4.71,2.3-6.41,4.43.44.79,1.82,2.26,2.23,2.9-.18-.28-.11,4.83,2,3.84,1.22-2.08.99-4.46,2.27-6.82ZM16.87,233.7c.07-14.31,1.4-27.23-12.39-35.12,3.55,5.16,8.41,7.47,10.06,13.92,1.76,6.87,1.17,14.22,2.33,21.2ZM19.84,397.44c-.95,1.97-2.97,9.11-1.15,10.8,3.81,3.55,1.93-9.48,1.15-10.8ZM13.6,397.67c-5,4.78.88,10.91.88,3.17-.89-.04-.54,1.01-1.15,1.05-.81-1.33.23-2.61.27-4.22ZM26.47,398.03c-.18.4-.97,6.37-.91,6.45,2.01,2.93,3.38-3.95.91-6.45ZM8.38,373.29c.73,1.91,1.88,2.82,3.38,3.36-.35.74-.13,1,.65.78,3.23-.32-3.78-4.06-4.02-4.14ZM14.46,353.74c-2.72,3.86-2.95,4.75-1.83,7.26.66-2.41,1.55-4.56,1.83-7.26Z" style="stroke-width:0px;"/><path d="M515.23,413.34c-5.78-6.78-13.25-4.69-9.3-16.26-3.93-2.31-3.33-6.54-2.81-10.39.84-6.17-2.18-9.36-2.47-15.38-.27-5.62,2.35-10.96,4.37-16.07.84-2.12,3.34-5.92,3.28-8.11-.09-3.12-1.7-2.75-2.58-5.31-3.35-9.75,4.04-22.81,5.31-32.7,1.52-11.84.49-24.35.49-36.27,0-12.32.24-24.64.25-36.96,0-11.02-1.2-19.92-9.96-27.07-19.83-16.16-18.39-37.84-13.38-61.26,2.94-13.74,13.91-56.25,36.51-40.87,8.57,5.83,12.58,19.21,15.58,28.55,3.78,11.74,5.96,23.98,5.9,36.33-.05,11.02-1.85,21.43-8.4,30.54-6.68,9.29-13.67,12.83-14.83,25.12-2.34,24.8-2.13,51.54-.74,76.39.33,5.96,1.4,11.82,2.85,17.6,1.29,5.16,4.91,12.01,3.82,17.49-1.4,7.06-4.73,5.19-1.7,12.85,2.16,5.46,5.38,11.53,5.8,17.5.4,5.73-3.28,9.62-3.19,14.9.03,1.58.87,3.29.97,4.92.21,3.61-1.46,4.55-1.98,7.32-.64,3.36,1.8,8.3-1.48,11.52-1.17,1.14-2.03.63-3.29,1.46-2.32,1.52-3.35,1.84-5.57,4.15h-3.44ZM510.39,211.83c8.27,2.8,5.37,36.49,5.41,43.16.1,16.24.17,32.74-.82,48.95-1.52-22.41-1-44.85-1.74-67.28,0,14.79,0,29.59,0,44.38,0,7.94-.2,15.92.14,23.86.25,5.79-1.12,14.7,1.07,20.13,1.94-2.06.03-6.12.07-8.56.05-3.09.98-6.12,1.6-9.13-.06,4.07.05,8.1.78,12.78.63-2.91-.1-8.85,1.47-11.31.53,2.74-.59,14.96,1.51,16.24.62-27.4.31-55.17.78-82.77.24-14.04.59-24.68,10.64-34.91,9.01-9.18,12.95-19.52,13.62-32.3.74-14.09-1.96-28.37-6.53-41.67-3.24-9.43-8.2-25.88-19.89-27.78-12.29-2-19.04,11.98-22.48,21.27-2.4,6.47-4.3,13.13-5.79,19.87-.81,3.67-4.49,13.5-2.13,17.01.16-4.55,1.71-9.29,2.76-13.69,1.57,5.05-2.03,14.14-2.33,19.57-.33,5.81-.19,11.76,1.63,17.34,1.86,5.72,5.21,10.19,9.52,14.32,2.54,2.44,10.36,6.66,10.82,10.6-6.12-5.1-13.21-10.03-17.69-16.75-2.04-3.06-3.5-6.44-4.34-10.01-.71-3.03-.1-7.19-1.86-9.87-.26,11.59,3.93,21.79,12.64,29.54,3.67,3.27,7.71,5.39,10.26,9.77,2.96,5.11,3.14,11.31,3.95,17.02,3.46-3.72-1.69-15.77-3.03-19.78ZM508.56,341.63c-.06-1.34,3.23,6.36,2.51,5.72,2.94,2.61,2.8.44,3.98-3.01,1.82,5.97-2.86,14.87-3.05,21.16-.1,3.15.76,17.46,6.12,16.83,4.97-.59,4.19-18.09,4.02-20.43-.36-5.09-5.07-15.04-2.6-19.33.6,2.32.3,4.46,1.82,6.09.41-1.05,4.76-6.48,4.52-7.24-2.07-.64-3.74,1.87-5.92-.62-2.81-3.2.15-2.88,1.2-5.33-.6-2.1-3.25-1.9-3.98-3.87-.22.24-3.66,3.13-3.6,3.74.12,1.16,2.34,1.44,2.24,2.55-1.85,4.43-2.94,4.99-7.27,3.75ZM517.11,397.32c-.75,1.26-3.58,13.49.41,11.82,2.76-1.15.69-9.95-.41-11.82ZM523.84,398.33c-.61,1.27.89,2.43-.03,3.76-.47-.76-.92-1.49-1.82-2.95.44,3.12.74,5.44-.37,7.78,4.32.27,5-6.35,2.21-8.59ZM510.68,401.85c-.85-1.37.19-2.65.05-4.07-4.93,4.94,1.04,10.71,1.04,2.38-.61.94-.84,1.3-1.09,1.68ZM505.85,373.55c.6,1.81,1.66,2.65,3.23,2.88-.45.85-.21,1.17.72.96,1.12-.36-.58-5.01-.36-4.1-1.16.74-2.33.38-3.59.25ZM509.46,361.65c1.23-2.77,1.81-5.22,2.12-7.75-1.61,2.15-3.08,4.35-2.12,7.75Z" style="stroke-width:0px;"/><path d="M241.27.03c10.89-.43,21.25,3.68,32.29,2.86,11.54-.85,22.56-4.97,34.05-1.19,9.02,2.97,16.46,9.26,25.33,12.59,9.92,3.72,21.08,3.44,30.72,7.91,7.38,3.42,12.24,9.48,17.37,15.5,7.08,8.32,14.86,13.72,24.14,19.29,8.1,4.86,14.39,10.26,18.52,18.91,4.3,9.01,6.46,18.41,12.31,26.7,5.58,7.92,13.17,14.36,16.45,23.74,3.46,9.9,1.41,20.2,2.56,30.37,1.17,10.31,6.48,19.45,8.39,29.56,2.17,11.51-2.67,21.13-5.97,31.84-3.02,9.8-2.27,19.29-2.93,29.36-.73,11.25-5.29,19.16-12.25,27.75-6.06,7.48-10.68,14.36-14.18,23.37-3.72,9.58-6.88,18.38-15.2,24.96-7.76,6.14-17.33,9.58-24.58,16.46-7.39,7.01-12.6,16.39-21.54,21.7-8.14,4.84-17.92,5.34-26.96,7.43-10.69,2.48-18.88,9.23-28.81,13.44-10.29,4.37-19.99,2.58-30.62.94-11.46-1.77-21.18-.02-32.51,1.47-21.1,2.78-35.84-13.22-55.8-17.03-9.17-1.75-18.12-3.21-25.56-9.29-8.04-6.57-13.2-15.86-21.49-22.21-7.6-5.83-17.08-9.17-23.9-16.03-7.26-7.29-9.38-17.18-13.32-26.33-3.78-8.78-9.95-15.36-15.65-22.85-7.25-9.51-8.96-18.3-9.29-30.12-.33-11.63-2.17-21.18-5.91-32.19-3.97-11.68-4-20.93.01-32.61,4.37-12.69,5.26-22.94,5.94-36.22.55-10.91,3.69-18.87,10.44-27.41,7.01-8.87,12.5-16.39,16.6-27.05,4.04-10.49,8.06-19.19,17.62-25.65,9.04-6.12,18.35-10.48,25.79-18.75,7.53-8.36,13.46-16.7,24.52-20.59,10.18-3.58,21.02-3.31,30.91-8.08C219.65,7.33,228.62,0,241.27.03ZM76.18,192.74c1.17,12.36,7.41,23.14,8.87,35.39,1.27,10.65-.99,21.74,3.21,31.94,4.27,10.35,13.72,17.53,19.13,27.26,5,9,6.51,19.85,12.83,28.13,6.68,8.74,17.65,12.21,26.14,18.73,8.24,6.33,13.38,15.55,21.35,22.06,8.91,7.28,19.48,7.54,30.18,10.12,10.78,2.6,19.04,9.02,28.98,13.42,11.34,5.01,21.68,1.92,33.33.43,10.85-1.39,20.27,1.26,30.91,2.38,11.42,1.2,19.91-2.92,29.62-8.3,8.87-4.91,16.98-7.57,26.93-9.49,9.31-1.8,17.4-3.86,24.41-10.65,6.2-6,10.83-13.23,17.58-18.75,7.34-6,16.59-9.32,23.62-15.67,7.57-6.84,9.89-16.58,13.66-25.67,4.33-10.42,11.66-17.69,18.13-26.72,5.73-7.99,6.74-16.26,6.85-25.83.14-11.43,1.9-20.57,5.5-31.44,3.4-10.27,5.07-18.44,1.89-29.03-3.29-10.94-7.28-20.63-7.49-32.26-.18-10.13.39-19.36-5.17-28.34-5.46-8.81-13.35-15.52-17.99-24.95-4.3-8.74-5.95-18.85-12.32-26.49-6.55-7.86-16.69-11.33-24.78-17.29-8.07-5.95-13.21-14.57-20.49-21.31-7.58-7.02-16.76-8.29-26.48-10.18-10.21-1.98-18.47-6.04-27.46-11.04-10.23-5.7-18.84-7.22-30.42-5.45-10.66,1.62-19.99,2.56-30.71.81-10.96-1.78-20.38-2.93-30.7,2.01-9.05,4.34-16.95,10.15-26.88,12.49-9.31,2.19-19.09,2.5-27.39,7.77-7.7,4.9-12.35,13.1-18.77,19.38-7.13,6.97-15.91,10.72-23.91,16.42-7.56,5.38-11.27,11.85-14.58,20.37-3.8,9.78-7.55,18.02-14.2,26.22-5.91,7.29-11.95,14.18-13.43,23.76-1.63,10.54.3,21.24-2.47,31.65-2.45,9.25-7.83,18.31-7.5,28.12Z" style="stroke-width:0px;"/><path d="M519.9,224.86c.44,26.3.32,52.59-.01,79.51-1.69-10.47-1.7-71.36.01-79.51Z" style="stroke-width:0px;"/><path d="M523.67,213.03c1.68-4.64,7.33-8.09,10.16-12.07,3.94-5.53,6.29-11.74,7.6-18.37,1.33-6.73,1.42-13.35.66-20.15-.49-4.39-4.61-15.52-3.25-19.49,4.51,12.08,6.04,26.36,3.85,39.08-2.27,13.19-9.48,22.11-19.03,31Z" style="stroke-width:0px;"/><path d="M499.74,192.59c-5.56-8.08-5.43-16.96-4.57-25.94,0,4.4-.22,8.9.48,13.25.47,2.87,5.09,10.69,4.08,12.69Z" style="stroke-width:0px;"/><path d="M520.29,196.9c-8.24,1.93-13.85-.15-17.88-6.66,6.13,5.62,9.58,6.26,17.88,6.66Z" style="stroke-width:0px;"/><path d="M490.92,163.02c-.81,7.96-1.1,15.88.76,23.73-2.88-7.83-2.14-15.79-.76-23.73Z" style="stroke-width:0px;"/><path d="M492.23,167.33c.09,7.04,0,14.04,2.27,20.81-3.5-6.67-2.55-13.8-2.27-20.81Z" style="stroke-width:0px;"/><path d="M521,203.75c-6.4,2.25-12.1.68-17.34-3.19,6.39,1.63,10.37,3.83,17.34,3.19Z" style="stroke-width:0px;"/><path d="M523.01,205.97c-6.25,1.99-12.25,1.49-17.9-2.02,6.23.99,11.3,3.9,17.9,2.02Z" style="stroke-width:0px;"/><path d="M519.42,201.08c-5.9.87-10.97-.53-15.02-4.14,4.71,2.53,9.6,4.34,15.02,4.14Z" style="stroke-width:0px;"/><path d="M453.35,193.31c-.15,101.5-82.65,184.93-185.32,184.93-101.36,0-185.33-81.88-185.28-185.34.05-102.96,83.66-185.76,186.53-185.1,102.73.66,184.19,84.44,184.06,185.52ZM450.73,193.01c.42-99.87-81.23-181.95-181.23-182.69-101-.75-183.96,81.19-184.22,182.18-.26,101.47,82.64,183.07,182.52,183.21,100.6.14,183.36-82.15,182.93-182.7Z" style="stroke-width:0px;"/><path d="M268,47.73c81.17.55,145.36,65.54,145.29,145.39-.07,80.12-64.63,145.25-145.5,145.06-82.18-.2-145.02-67.17-144.96-145.27.06-78.18,63.16-144.57,145.17-145.17ZM399.74,137.54c-1.62-5.32-4.42-10.05-7.06-14.86-.2.1-.4.2-.6.3,2.5,4.9,5,9.8,7.5,14.7.02,6.12,4.9,14.26,6.41,20.4,1.7,6.92,2.93,14.01,3.65,21.1,1.22,12.01,3.1,31-2.49,42.18,1.51-22.04,3.43-42.31-2.34-64.13-2.62-9.9-6.3-19.52-10.99-28.63-2.86-5.54-10.2-22.83-16.73-24.36-.48-1.47-2.08-2.21-2.48-3.73-4-4.99-8.46-9.52-13.48-13.48-1.89-.73-2.98-2.43-4.41-3.71-2.69-2.4-5.32-4.88-8.75-6.24-3.85-2.73-7.85-5.21-11.98-7.49-3.13-2.19-6.35-4.2-10.2-4.89-8.56-4.37-18.5-7.46-27.86-9.32-4.52-.9-8.76-1.4-13.32-1.86-1.54-.15-8.45-.13-9.72-1.15-4.42-2.84-23.42-1.39-27.98,1.39l.11-.07c-26.52,1.38-51.96,16.59-72.14,32.68-1.35-1.57-14.21,11.02-14.49,13.8-13.52,12.19-22.77,32.47-28.14,49.51-5.26,16.71-9.37,36.44-6.98,54.02,3.53,25.95,10.51,50.77,26.56,72.63,19,25.88,45.59,45.38,76.58,54.25,30.97,8.87,64.37,7.17,94.17-5.18,15.03-6.23,29.13-14.93,41.12-25.95,11.38-10.47,18.83-21.53,27.11-34.39.58-.07,1.08-.21,1.4-.79,3.43-6.16,6.82-12.35,8.97-19.11,8.19-15.89,10.43-37.15,10.03-54.77-.39-16.98-2.79-37.83-11.45-52.83ZM373.3,96.27c-1.1-1.86-7.26-7.92-8.67-8.63,2.61,2.6,6.09,6.06,8.67,8.63Z" style="stroke-width:0px;"/><path d="M133.4,290.89c-2.73,2.32-2.77,3.53-.07,6.84-2.81-.22-1.67-2.3-3.07-3.19-1.43-.91-2.85-.55-4.54-1.43-4.08-2.13-2.11-6.38-5.61-7.33,1.32-1.43,3.68-.84,4.69-2.83-2.79.67-5.22,2.45-8.13,2.34.27-1.14-.77-1.73-1.1-2.61,2.15.65,4.29,1.24,6.16-.66.91-.51,1.99-.76,2.62-1.69,2.78-2.24,4.15-5.48,6.57-8.59-2.16.18-11.19-.39-12.15,2.42-.39.1-.78.2-1.17.3-2.08.38-2.9,1.93-3.41,3.73-.18.62.06,1.39-.73,1.75l.06.07c-.65-2.82,1.06-5.43.71-8.22,2.24-.97,4.31-2.37,7.41-2.43-2.22-.92-3.97-.19-5.65-.58.84-1.68,2.96-.82,4.15-2.04-5.03-1.39-6.54-.49-6.57,3.77q-1.88-.4-2.47.95c-2.84-3.26-2.15-4.96.84-9.73-3.4-2.91-2.75-6.8,1.27-9.37,4.3-2.75,5.03.61,9,1.46,1.4-4.28,1.18-11.5-4.66-11.4.39,1.46,5.28,4.54.28,5.7-4.12.96-4.7-4.63-2.03-6.86-3.09,1.2-3.55,2.31-2.72,6.7-1.59-1.78-2.25-6.41-.35-8.26,2.56-2.5,4.38,0,6.94-.32.98.68,1.96,1.35,3.09,2.13q-.45-3.21-2.09-5.69c-.78,1.1.21,2.7-1.05,3.64.77-6.8-4.84-7.95-9.5-3.86.02-3.09,1.92-4.43,4.53-5.1-.22-2.23-3.55-3.04-3.22-5.92.41-3.62,3.2-3.92,6.26-3.31-2.06-4.5-2.79-10.33-5.11-14.47-1.74-.91-2.24.46-4.08-1.42.02.02-.21-3.28-.29-3.49-.43-1.22-1.55-2.45-1.93-3.77-.42-1.44,1.65-2.53,1.7-2.42-.35-.84-3.02-2.56-.08-3.31-2.35-3.49-.55-2.03.83-6.52.78-2.53-1.21-4.82,3.61-4.32,3.07.32,4.08,2.38,3.72,6.93-.18,2.3-1.47,4.24-1.6,6.4-.25,4.07,2.45,5.79.58,10.41,1.38-.02,2.21.59,2.5,1.82-.14.35-2.46-.04-2.39,1,.21,3.15,1.42,5.45,2.76,8.24,2.53,5.28,5.05,8.48.84,13.92.55,1.66,3.83,2.82,4.85,4.24,1.18,1.65,1.73,3.48,2.32,5.41,1.67,5.43-.67,11.27,1.19,16.32,4.87-1.15,6.39,2.4,1.63,4.85,1.2,4.25,5.77,3.99,7.63,6.85,1.6,2.47-1.1,8.01,1.96,10.24,1.75,1.27,2.95-1.44,4.7-.32,3.56,2.27-.4,3.15-.49,5.15,5.02,5.48,13.63,5.71,16.89,13.71.46,1.13.33,4.5,1.03,5.23,1.16,1.2,1.66.05,3.16.9,4.43,2.49,5.59,2.95,8.75,7.69,1.72,2.58,3.07,4.84,5.73,6.56,1.22.78,2.54-2.21,3.12-.13.93,3.3-6.32-.31-6.99-.83-.91-.7-6.43-7.01-6.34-7.35-2.26,8.43-11.46.7-8.11-4.02-1.8-.19-1.31,1.82-2.58,1.89-1.48-1.51,2.31-9.3-3.2-8.78-4.1.39-1.62,9.24-9.42,3.56,1.6-.29,3.09.39,4.57-.56-2.56-.51-7.96-3.36-4-6.22,3.54-2.55,3.29,2.4,4.09,3.62,4.21-4.72-3.23-9.13-7.3-9.75-1.14,3.23,1.7,7.09-3.09,8.73-5.53,1.9-5.73-2.84-5.41-6.28,3.33-1,3.63-.85,4.75,2.78-3.75-4.55-4.78,1.31-1.98,1.58,3.83.36,4.31-7,.14-6.53-1.15-.86-2.3-1.72-3.62-2.71-.88,1.5-1.96,2.73-1.94,4.8,1.19-.84,1.9-2.3,3.41-1.34-.27.45-.55.9-.82,1.35ZM119.73,263.17c-.55-2.37.55-6.38-1.04-8.04-1.96-2.04-4.15-1.57-5.34.53-1.3,2.3,2.37,3.71,2.9,1.6.22-.87-1.2-1.93-.71-2.58,5.01,1.72,1.42,7.11-2.03,7.67,2.23,1.29,4.13.26,6.23.81ZM131.18,266.48c-3.1-1.65-3.57-5.2-5.64-7.53.49,2.3.59,4.73,2.76,6.24-3.46-.81-5.21-3.54-7.05-6.51-1.18,6.43,4.45,8.39,9.93,7.81ZM135.54,274.63c-4.38,4.08-3,9.87,1.91,12.06-1.52-3.19-3.36-6.07-2.35-9.66.77.73-.04,1.93,1.12,2.53,1.12-1.83-.51-3.26-.68-4.92ZM123.04,285.87c2.73,4.16,6.84,2.35,6.58-2.59-1.06.93-1.71,2.36-3.53,2.9.38-1.54,1.95-2.37,1.55-4.25-1.36,1.88-3.2,2.67-4.61,3.94Z" style="stroke-width:0px;"/><path d="M263.38,368.67c-1.58-.84-3.88-3.93-6.07-2.71.08.42.29.76.63,1.01-4.97,1.77-7.27-1.44-9.25-5.17-4.03,1.41-6.58-.7-7.29-5.12-.89-5.57,2.9-4.23,5.46-7.59-1.54-2.2-5.76-5.1-8.64-4.49-.65.14-5.64,3.3-2.83,3.94.17.04,5.58-5.37,4.71,1.29-.61,4.63-6.72,1.24-7.14-2.02-1.45,1.23,1.55,4.21-.82,4.18-5.08-.05.77-7.08.92-7.68-1.17-4.08-5.29-1.62-6.58-.05-.39.48-2.56,5.34-1.43,5.11-2.23.45-2.22-4.01-1.96-4.92.94.27.3,1.27.99,1.76v-3.5c-7.04,2.96-14.12-3.38-5.7-6.32-6.33-.11-11.88.04-16.16-4.22l.06.07q.03-2.84,3.02-2.59c-.45.87-1.51.21-2.07.88,1.08,5.17,10.08,2.84,13.55,3.27,5,.62,6.15,5.36,9.31,6.19,1.1.29,3.78-1.74,5.3-1.92,2.38-.29,5.08.54,7.32,1.2,4.91,1.45,8.25,4.46,12.62,6.77,2.29-3.95,5.11-4.75,5.31,1.01,2.76.59,6.85-2.83,8.48-2.3.21.49.45.96.71,1.42,1.74-4.04,7.94,1.57,11.56.99-.35-4.95,3.53-6.3,5.15-1.15,4.73-2.49,7.99-5.61,13.73-7.03,3.37-.84,5.44-.74,8.8-.33,5.33.66,1.28,2.16,5.01-.12,1.93-1.18,2.49-3.4,5.03-4.4,2.37-.94,5.66.03,8.07-.18.46-.04,6.43-.33,6.88-1.82,1.05-3.43-.59-.38-1.55-2.59,3.2.15,4.47.87,1.81,3.93-2.97,3.43-9.85,2.79-13.84,2.79.15,2.12,3.82,1.84,3.12,5.09-.98,4.58-7.66,2.85-9.93.76,1.32,2.88,2.64,5.68-1.57,8.29,3.03-7.16-2.01-8.82-7.27-6.87.11-.47,5.9,8.67,1.41,8.37-1.37-.09-1-2.74-1-3.4-1.23,2.39-6.03,6.02-7.23,1.46-.87-3.28,4.46-5.38,4.66-.95,1.58-8.07-9.05-2.55-11.76-.44,1.31,3.42,9.26,3.72,5.21,9.55-2.87,4.14-7.81,1.52-6.41-3.13.07-.02,4.64-1.18,3.74.87.8-1.81-6.19,4-1.03,2.75,5.75-1.39-1.39-9.25-3.73-4.68-1.38.85-2.86,1.48-4.52,1.93.99,1.46,1.51,2.87,3.11,3.83-.22-1.93-.24-3.69,1.48-4.77l-.02-.02c-.08,4.11.68,7.28,5.71,6.33-1.79,1.65-2.21,1.67-5.33.34-1.85,5.04-3.87,6.23-9.22,5.41,1.31-.82.31-1.17-.34-1.62,1.75-3.17,6.65-4.05,1.23-8.35-.53,1.74,1.26,3.28.09,4.8-.83-1.61-1.37-3.37-2.75-4.7-1.03,4.01,2.95,10.79-4.52,11.66,4.67-6.13.34-12.67-2.47-18.45-1.34,2.88-2.97,5.34-3.52,8.26.57-.22,1.11-1.57,1.91-1.15-1.25,2.89-1.96,5.82-.78,8.88-1.32.06-.84-1.6-1.88-1.65-.42,1.77,1.38,2.53,1.66,3.96-.38,0-.77.02-1.15.03ZM251.06,360.19c6.42-7.44-6.7-8.72-7.52-4.81-1.06,5,3.17,1.58,3.95,1.95,1.09.51-4.19-3.21-3.12-1.15,2.99-4.48,6.61.64,6.69,4.02ZM283.11,352.27c-6.31-.53-6.63-3.6-11.95-4.86,2.7,5.09,6.75,8.63,11.95,4.86ZM250.92,352.2c5.16,4.19,9.29-.03,11.83-4.84-2.82.8-3.61,1.17-4.22,1.86.54.47,1.13-.67,1.72.04-2.62,2.44-5.89,2.79-9.34,2.94ZM257.77,356.38c-7.97,5.81,3.31,12.02,1.45,2.17-1.57.39-1.09,2.77-2.5,3.11-.51-1.8.76-3.24,1.05-5.29Z" style="stroke-width:0px;"/><path d="M403.59,265.29c.05-1.6,1.6-2.5,1.86-4.17-3.9-2.3-3.61-6.48,1.49-4.79,1.12-2.05-.3-6.81-.17-9.06.15-2.43.84-4.98,1.55-7.29.59-1.91,1.03-3.81,2.24-5.44.57-.77,4.54-2.97,4.72-3.81.33-1.52-1.9-3.28-2.11-4.83-.29-2.12.13-3.76.93-5.71,1.39-3.38,7.36-9.56,4.13-13.41-1.63.47-1.28,1.96-1.67,3.15-1.64-3.66,2.5-6.15,3.83-.71,1.02,4.19-2.64,9.35-4.42,12.84,7.98-4.12,8.63,6.66.69,8.82,2.3.18,9.56,1.08,6.38,5.39-1.42-4.93-10.21-3.69-8.11,2.55,4.65-1.4,8.42.54,7.1,7.96-.64-2.09-.25-4.35-3.06-5.38,1.48,2.49,1.19,9.26-3.36,6.49-3.37-2.06.24-3.85.92-5.59-6.65-1.33-5.19,11.54-4.3,11.5,2.83-.16,10.46-6.56,10.86,1.78.36,7.53-9.37,2.15-5.32-.2,1.11.39-.45,2.49,1.69,2.82,2.65.41,2.07-4.24-1.1-4.38-9.28-.4,4.77,14.48,5.53,1.93,1.59,2.48,1.31,3.35-2.05,6,1.98,1.42,3.28,5.12,2.3,7.37-1.21,2.77-1.56,1.51-3.85,2.5.08-4.02-1.74-7.38-6.35-4.59,1.21.81,3.04.15,3.9,1.72-1.66.53-3.48-.46-5.3.66,2.61.27,5,.58,6.38,2.95,1.51,2.42,3.04,3.63,1.98,6.49-1.5-.26-3.21-4.3-4.74-5.2-3.38-1.98-9-2.19-12.73-1.83,2.11,3.12,3.75,6.29,6.81,9.08-.25-1.61-1.57-2.11-1.62-3.73,2.58,2.25,4.7,4.92,9,4.14-1.88,1.03-3.24.71-4.81.87.74.35,5.16.46,5.29,1.07.52,2.5-3.3,1.64-4.13,2.62-1.3,1.54-.75,3.18-2.06,4.94-2.14,2.88-4.96,1.86-7.93,2.51-.42,1.33-.35,2.96-2.24,3.89.36-1.61,1.1-2.99.44-4.49-2.02.49-1.13,4.43-5.03,4.5-4.73.09-5.95-4.83-4.7-8.64-3.14.05-12.95,5.6-7.72,9.6-.63-8.94,11.99,1.3.22,2.66,2.31.85,4.38.74,6.11-1.2-1.15,2.52-4.93,4.73-7.67,3.29-1.93-1.01-1.85-5.21-3.81-5.08,1.26-1.05,1.76-2.28.94-3.99-1.44,1.33-2.74,2.57-3.5,4.53,1.22-.04,1.81-.83,2.67-.62-2.47,1.96-2.13,8.52-2.63,8.8-1.03.04-.84-1.6-2.16-1.54,0,5.99-7.04,11.64-8.57,3.24-3.15,1.72-3.86,6.59-7.24,8.54-2.95,1.71-8.9,1.21-4.22-2.45.85.99-1.07,1.53.24,2.56,1.63,1.27,4.34-2.93,5.12-3.89,1.8-2.21,2.54-5.2,4.51-7.28,2.32-2.45,5.11-1.53,7.22-2.92,2.92-1.93,2.5-6.8,5.64-10.36,4.05-4.59,10.3-5.45,14.13-9.56.02-1.3-2.11-1.55-1.96-3.32.27-3.31,4.06-1.24,5.44-.41,3.13-5.29-.23-12.84,8.16-13.79-.24.39-.47.77-.81,1.34,4.78,0,11.85-1.55,10.15-7.92-2.33,3.3-4.37,6.91-9.16,6.48ZM396.08,294.54c4.8,3.07,3.85-3.42,2.06-2.83-1.43.47-.59,2.6-1.79,2.53-.61-2.5.72-3.72,3.49-4.37-1.16-.38-1.91-.4-2.31-1.02,2.21.13,4.4.32,5.85,2.38,1.68-2.58-1.32-3.36-1.38-5.91-1.62,1.8-3.05,2.63-4.38,3.6-2.3.32-2.6.58-2.72,2.38-.08,1.24.01,2.45,1.18,3.25ZM398.44,276.32c1.41,4.18-.18,7.13-1.85,10.42,5.49-2.31,5.85-5.79,1.78-12.51-.31,2.57-1.61,4.67-2.66,7.09,2.52-.64,2.56-2.43,2.73-5ZM404.03,282.94c1.09,7.08,3.53,4.62,8,3.18-2.42-.79-4.1-2.38-5.96-4.29.03,1.92,1.46,2.7,1.59,4.14-1.87-.33-2.3-2.16-3.63-3.04ZM413.05,236.07c-1.28,1.73-1.76,3.58-2.12,5.71q3.03-2.15,2.12-5.71Z" style="stroke-width:0px;"/><path d="M384.5,88.08c-3.51,4.64,4.97,11.28,7.53,8.43.99-1.1-.46-4.48,1.01-6.13,1.33-1.48,4.13-1.83,6-1.63,2.05,1.74,3.41,7.83-1.14,6.83-2.36-.52-.83-3.42-2.18-3.9-4.75,4.08,3.98,7.24,6.17,8.78.45-1.63.82-2.97,1.43-5.15-1.85,1.91-3.41,2.09-5.1,1.49,4.66-1.13,5.63-5.15,2.59-8.11,2.79.28,2.63,2.69,3.24,4.56,6.17-2.27,8.17,2.36,7.48,6.77,1.09.88,6.37-.15,5.99,2.4-.32,2.12-6.78-.24-6.9,2.89l.09-.09c-2.86.05-6.36,7.32-7.69,9.26,4.09-.59,7.73.3,11.07-1.63,1.59-.32,2.88-1.08,3.72-2.51,1.96-.48,1.77-2.26,2-4.01.78,1.27.51,2.36.68,3.41.9-.62.06-1.59.85-2.25.86,2.89-.99,4.99-1.98,7.31-2.78,1.31-5.59,2.48-8.74,2.81h7.38c-1.61,1.72-3.87.59-5.37,1.87,4.99,1.68,7.56.91,7.61-4.59,5.78,2.41,3.26,5.72,3.32,10.79.04,3.71,1.68,5.64-2.71,8.34-3.59,2.22-5.33.95-8.62-1.74-1.59,3.27-1.56,13.44,4.7,11.37.39-1.11-4.85-1.43-1.91-4.84,3.79-4.41,5.36,3.24,3.86,6.02q2.29-1.38,3.06-4.65c1.1,5.76-.74,8.08-5.93,7.5.21-.94,1.17-.33,1.61-.79-4-.2-4.01,3.93-1.12,5.74,2.7,1.68,4.84-.42,7.01-1.5-.2,3.48-1.15,4.24-5.42,4.17-.16.93,3.79,3,4.25,4.39,1.34,4.01-2.1,7.39-5.92,4.79-.29,3.49,3.72,6.94,3.88,10.69.17,4.12-4.35,8.38-3.88,1.61.91.91.03,2.19,1.6,2.43,2.07.31.16-5.35-.06-5.96-.97-2.7-3.18-4.84-4.13-7.51-1.03-1.86-1.3-3.81-.81-5.87.65-1.11,1.29-2.22,1.94-3.34-.63-2.79-5.51-6.17-6.83-10.13-1.94-5.84-.9-10.88-.9-16.76-4.32,1.33-7.35-1.97-1.97-4.15.08-2.31-2.14-3.33-2.94-5.14,5.64,1.96,6.4,3.75,10.78,7.26.79-6.22-4.79-8.89-10.71-7.17-1.57-.76-3.89-.61-3.93-3.23-2.05-.02-1.92-8.13-3.41-9.99-3.71,1.6-8.19.13-3.27-3.59-2.43-4.04-10.2-5.59-13.74-9.36-2.76-2.93-3.31-9.01-5.38-10.76-1.02-.86-3.71-.02-5.18-.72-2.13-1.01-3.09-2.8-4.41-4.61-.75-1.03-8.83-13.54-9.04-7.2-2.35-3.87,2.17-3.09,4.47-1.99,3.79,1.8,4.67,6.58,7.64,9.11,1.86-1.04-.41-4.44,3.85-4.5,3.95-.05,4.82,4.38,4.99,7.5,2.85-3.65,3.89-3.95,7.15-2.27-1.46,2.35-4.69.12-5.65,3.93-.75,3,1.81,4.12,3.87,5.56,1.94-4.94,4.62-6.58,9.59-3.29-1.54-.46-3.06-.5-4.57-.12,1.67,1.83,6.87,2.24,3.9,6.01-2.49,3.15-4.73-.34-4.83-2.91,1.04.59,1.49,4.14,3.36,2.21,2.02-2.08-2.01-3.68-3.3-2.12ZM419.39,131.35c-3.96.02-3.32-6.88.16-7.17-1.7-1.25-3.26-1.04-5.08-.94.62,2.52-.87,6.29,1.06,8.11,1.66,1.58,4.45,1.6,5.52-.48,1.71-3.34-6.2-3.63-1.66.48ZM394.63,103.02c-.32,2.28,3.16,7.02,3.98,9.07,2.89-4.16,4.02-10.2-1.75-12.01,1.4,3.09,3.03,6.02,1.62,9.49.45-3.21-2.61-4.29-3.85-6.55ZM405.92,104.75c1.44-1.41,7.1-4.74,3.11-6.49-3.32-1.46-4.95,2.85-5.24,5.48,1.53-1.55,2.44-3.13,4.62-4.01-.91,1.81-2.31,2.8-2.49,5.02ZM377.45,87.78c.45,2.23.82,2.74,3.34,4.65,1.2-3.17-1.45-3.65-3.34-4.65ZM420.11,161.99c-.16-3.2-3.82-1.43-3.68-1.11.3.73,1.94-.78,2.05.29.07.67,1.61,4.59,1.63.82Z" style="stroke-width:0px;"/><path d="M113.59,113.98c-.2-2.02-3.02-5.81.1-6.83,1.63,8.23,11.13,6.32,17.16,7.88-2.15-3.01-3.27-5.95-5.9-7.83-1.07-1.67-2.58-2.75-4.49-3.28-.8-1-3.87-.1-4.16-1.44-.42-1.95,3.51-1.51,4.32-2.4,1.21-1.32.36-3.89,2.47-5.62,1.65-1.35,4.52-1.81,6.53-1.31,3.25-2.25,2.5-7.44,8.96-3.72,4.75,2.73.79,6.01,3.62,8.76,2.25-.98,8.16-3.36,8.18-6.65,0-.49-1.69-5.23-2.44-3.22-.18.47,2.61,5.48-2.5,3.7-5.43-1.9,1.36-6.02,3.95-6.19-1.09-1.19-2.54-1-3.98-1.32.33-1.04,2.35-.16,1.98-1.76,2.92-.48,6.67,2.61,5.39,5.66,4.53-1.98,5.04-2.88,4-6.64.34-.68,1.57-.18,2.07-.11,2.13-1.3-.88-7.03,3.97-7.94,3.67-.69,3.71,2.16,4.75,4.54,3.15-2.58,3.86-7.55,7.98-9.3,2.64-1.12,7.18-1.28,3.81,2.42-.69-.71.89-1.27-.01-2.17-2.61-2.58-8.15,8.5-9.18,9.84-1.12,1.45-2.08,2.97-3.8,3.8-.86.42-5.13.13-5.59.55-1.92,1.77-1.83,7.11-3.86,9.72-3.87,4.99-9.59,7.06-14.85,10.07.07,1.74,3.26,1.65,2.05,4.11-1.52,3.09-3.62.15-5.42.08-3.07,3.3-1.02,12.7-7.44,13.05-4.07-4-11.06,2.46-10.08,6.98,2.49-3.38,4.92-6.51,9.57-6.54-.48,1.66-2.19,2.66-2.34,4.49,4.37,1.94,3.45,6.67-1.69,4.33-.65,5.86.86,10.84-1.06,16.83-.9,2.8-2.11,4.51-3.8,6.77-3.53,4.7-1.64.28-2.12,4.82-.25,2.37,1.14,4.54.22,7.58-.82,2.72-3.09,4.82-4,7.54-1.13,3.35,0,9.24,1.36,3.11.34,4.49-2.65,6.1-3.87.74-.9-3.94,2.34-8.62,4.04-11.9-.36-.86-4.19.63-5.59-.88-3.1-3.34,1.52-7.34,4.2-8.63-2.31-1.83-7.03-.04-5.84-5.52,2.27,2.06,6.9,4.95,8.83.51.65-1.5-1.24-5.75-2.39-3.7.43.08.95-.04,1.16.52-4.71,1.04-6.44-.94-6.27-7.23,1.48.54.58,4.41,3.07,4.53-.93-2.54-1.14-8.89,3.45-6.36,4.31,2.38-1,3.69-1.45,5.01,6.38,2.24,6.59-7.3,4.9-11.12-11.43,8.06-12.89-7.76-4.64-5.06,0,1.1.34,5.09-2.3,3.86,4.58-3.81-4.21-3.67-1.66.29,1.09,1.69,4.09,1.25,5.37.02,1.83-1.77.62-5.85.88-8.21-1.72-.07-3.29-.26-5.01,1.04,1.43.06,4.44,3.69,3.73,3.69-.29-.32-.63-.54-1.04-.67-2.34-4.56-6.99.11-6.93,3.42-1.08-3.34-1-3.57,1.85-5.98-2.28-3.54-4.07-7.2-.06-10.82.4.6.35,1.99,1.71,1.02.47,5.88,3.23,5.91,8.23,4.33-2.08-.37-3.91.11-5.25-1.54,2.08-.33,4.09.18,6.03-.5-3.37-.05-6.17-1.58-8.91-3.26ZM130.36,95.84c.7,1.93,1.36,3.58,1.07,5.77,1.75-1.61,12.13-7.12,6.12-10.17-5.3-2.69-2.78,7.01-.27,1.12,1.42,2.01-1.35,2.71-1.18,4.28-2.01.6-3.89.43-5.73-.99ZM135.04,109.65c-.55-3.66,2.06-6.6,1.63-9.84-4.68,2.29-5.12,5.57-1.09,12.18.18-1.97,1.82-3.55.35-5.61-.66,1.12-.14,2.26-.89,3.27ZM129.94,103.12c-.06-2.66-3.42-7.49-6.06-4.23-1.63,2.01,3.26,4.99,4.73,6.58-.53-2.36-2.02-3.58-2.69-5.42,1.86.51,2.47,2.2,4.01,3.07ZM120.86,150.32c.97-1.74,2.01-3.38,2.03-5.41-3.11.94-2.78,3.13-2.03,5.41ZM163.39,78.16c.2-.34,1.46.07,1.85-.22,1.16-.84-.84-1.69-.85-1.59-.05.5-4.3,3.1.11,3.8-.17-.84-1.18-1.11-1.11-2ZM117.57,160.72c-3.54-2.16-2.34,1.11-3.39,2.07-1.15,1.05,2.36-.29,2.07-.22.09-.02-.88-1.5-.96-1.4.51-.7,1.65.26,2.28-.45Z" style="stroke-width:0px;"/><path d="M297.87,39.24c-2.15,2.46-5.62-1.77-3.37-4.02,2.75-2.77,5.97,1.09,6.6,3.7.32-5.19,3.47-4.03,2.38.44-.49,2.01-2.39,1.59-2.95,3.32-1.18.33-2.29.75-3.19,1.88,2.15.36,4.03,1.3,6.18.65-.5-.46-.92-.84-1.33-1.22,4.95-.23,6.75-.82,6.75-7.24q2.22,1.74,2.14,5.85c2.82.46,6.77-2.14,8.14,2.28.8,2.58-1.09,3.95-2.79,5.37,3.83,0,8.15-.48,11.64,1.46,1.96,1.09,6.28,5.12,1.13,5.2,4.93-4.58-8.91-4.35-10.68-4.52-2.04-.19-4.24,0-6.05-1.19-1.16-.76-2.72-4.63-3.81-4.96-1.63-.49-4,1.61-5.74,1.89-2.63.41-4.96-.26-7.46-.98-4.8-1.38-8.5-5.84-13.12-6.74-1.21,4.62-5.5,4.47-4.81-.85-4.43-1.33-8.32,2.28-11.8,2.87-2.65-2.3-5.6-3.82-9.32-2.97.43,4.87-4.11,6.25-4.73.69-4.83,2.49-8.67,5.9-14.06,7.28-2.12.54-4.42,1.08-6.63.84-1-.11-4.83-2.36-5.73-2.05-1.41.48-1.87,3.33-3.11,4.27-1.74,1.33-3.36,1.64-5.47,1.92-1.64.21-17.15.26-12.12,4.26q-1.86.33-3.04-1.56c.52-.29.68-.78.7-1.33,4.05-3.54,9.01-3.8,13.98-3.52.19-2.71-3.77-2.8-1.26-6.35,2.43-3.44,7.01-1.43,9.43.9-.78-2.84-3.23-7.18,1.24-8.58-.85,2.06-.8,6.62,1.62,7.74,2.42,1.12,3.72-1.22,6-1.3-.3,1.53-2.09,1.48-2.84,2.61,2.24.55,4.22-.37,6.58-.78-1.34-.93-2.44-1.64-3.84-1.75-2.8-4.02-3.95-11.88,4.21-10.08-2.44.46-4.72,1.04-4.86,4.64,1.42-1.77,6.44-5.21,7.39-.81.7,3.23-3.36,4.8-4.4.94-1.95,2.96.57,4.03,3.04,4.38,2.71.38,6.6-2.61,8.44-4.3-2.09-2.53-10.1-5.23-4.7-10.23,4.85-4.49,9.31,6.1,2.18,3.97.04-1.21,2.84.58,2.28-2.09-.6-2.79-5.8-.01-2.58,3.45,4.47,4.8,9.36-9.38-.95-7.39,2.01-1.57,2.05-1.57,5.38-.63.09-.13,8.3-9.47,8.4-5.24l-1.11,1.38c-.21.08-.42.15-.71.25.87.36,1.77.55,2.7.57-2.75-1.53-4.35,6.33-.21,8.24.11-1.82-1.59-3.3-.81-5.32,1.11,1.5,1.48,3.27,3.04,4.74,0-2.51-.5-14.57,5.13-11.7-6.44,5.06-.55,13.19,1.73,18.66,1.61-3.63,3.67-6.47,4.41-10.5-1.26,1.39-1.29,2.9-2.89,4,1.17-3.53,1.54-6.27.94-10.04,2.83.14-.92-1.78,1.31-2.15,1.74.37,2.47,3.32,4.27,3.45,1.4.1,2.15-2.18,3.39-2.04,4.43.52,4.25,3.25,7.02,5.77,1.58-.6,3.16-1.4,5.09.11-2.76-.01-5.08.31-5.49,3.27,3.08-2.28,7.08-2.32,7.91,2.17,1.03,5.62-4.49,3.93-5.12,6.73-.48,2.13,4.26,4.83,6.75,4.88,1.89.03,7.33-3.64,3.83-4.36.07-3.57-6.27,1.46-.3,1.78ZM262.97,39.1c-2.27-3.83-7.51-10.34-12.02-4.78,2.7.24,4.95.23,7.36,1.35,1.77.82,2.69,2.83,4.66,3.43ZM285.04,30.79c-1.97,5.52,7.98,2.12,5.12-2.05-1.72-2.5-5.99.68-1.41,2.66-1.48,1.01-2.57.07-3.7-.61ZM276.08,30.2c8.72-7.86-4.43-9.96-1.37-2.12,1.36-.74,1.35-2.32,2.23-3.43.95,1.94-.58,3.43-.86,5.54ZM271.74,38.3c2.56.62,1.6-1.48,3.33-2.3,2.93-1.38,5.01-1.22,8.17-1.73-4.68-3.91-7.83-1.78-11.5,4.03ZM284.13,31.35c-1.54-1.48-.34-3.66-1.55-5.54-.14.4-2.56,4.17-2.48,4.46.23.76,3.4,1.41,4.02,1.09ZM250.3,26.3c.89,1.94.31,3.55-.63,5.51,1.53-.54,2.52-.89,3.41-1.21.13-1.45-1.56-3.72-2.79-4.3Z" style="stroke-width:0px;"/><path d="M263.38,368.67c.38,0,.77-.02,1.15-.03,1.54,1.78,2.15,1.86,5.13.7,5.11,2.32,13.69.23,18.99-.37,5.62-.63,11.23-1.5,16.76-2.67,11.94-2.52,23.63-6.42,34.79-11.37,21.94-9.74,41.72-24.03,58.08-41.58,15.52-16.65,27.8-36.29,35.96-57.54,9.59-24.98,11.54-50.15,11.54-76.62,1.89,2.68.98,9.76,1.15,12.98.27,5.24.07,10.45-.33,15.68-.79,10.36-2.48,20.65-5.09,30.7-4.89,18.87-12.93,36.96-23.66,53.24-20.23,30.69-50.13,54.95-84.42,68.23-73.11,28.3-158.18,5.03-206.34-56.92-27.01-34.74-42.15-81.6-36.35-125.62,0,17.63.02,34.68,3.73,52.04,3.86,18.06,11.1,33.97,19.07,50.47l-.06-.07c.31,1.21,1.1,2.06,2.1,2.75.33.89,1.37,1.47,1.1,2.61,15.55,24.65,36.34,45.8,61.6,60.51,12.21,7.11,25.28,12.67,38.79,16.78,4.76,1.45,47.01,9.65,46.32,6.09Z" style="stroke-width:0px;"/><path d="M202.21,332.18c1.28,2.8-3.71,4.08-4.85,4.13-.16,0-2.95-.67-3.38-.78-1.69-.44-2.91-.39-4.62-1.12-4.3-1.84-6.03-4.37-8.68-8.03-1.72-2.37-3.06-1-1.42-4.4.99-2.05-.25-1.98,3.47-1.82,4.82.21,5.26,4.28,8.64,6.13,4.17,2.29,7.54,1.6,10.9,5.95l-.06-.07Z" style="stroke-width:0px;"/><path d="M358.35,320.15c-1.42.28-2.18.43-3.16.62,5.93,2.61.36,3.67-.73,5.12-.85,1.12-1.48,4.25-3.04,4.94-2.98,1.31-2.68-1.29-4.37-1-1.05.28.59,3.04-.41,3.84-1.75,1.39-2.79.61-4.8,1.24-3.04.94-5.86,2.34-7.15-1.31-1.95-5.52,4.83-5.49,8.66-7.52,5.58-2.96,7.3-7.8,15-5.92Z" style="stroke-width:0px;"/><path d="M353.83,65.83c1.01.18,1.76.31,2.41.42.63.77-6.36.05-7.08-.28-2.66-1.26-2.76-3.39-4.91-4.87-2.83-1.95-10.42-.99-11.27-6.22-.89-5.5,4.25-4.05,7.13-3.42,1.77.39,3.55.15,5.19.79.03.62.21,1.19.55,1.71.63-.17,1.26-.37,1.87-.6.22.76.46,1.51.73,2.26,3.3.82,2.75.4,5.3,4.45,1.46,2.32,6.03,3.27.07,5.76ZM338.02,54.26c-3.08-6.31-3.57-.14-.56.86,2.93.98,4.39-2.45.56-.86Z" style="stroke-width:0px;"/><path d="M202.24,53.77c-.03.55-.18,1.04-.7,1.33-4,4.78-7.07,3.45-11.5,6.26-5.11,3.24-5.06,6.55-12.39,6.12-.35-.81,1.04-.89,1.44-1.01-1.55-2.73-3.61-5.41,1.73-5.01-1.31-3.66,6.3-8.33,8.43-9.11,1.68-.62,4.07.22,5.66.02.42-.05,2.39-1.67,1.96-1.74,1.44.25,1.99.7,3.08,1.21.23.62.39,1.26.5,1.92.6-.04,1.19-.04,1.79,0ZM182.41,60.17c-1.11.83.53,2-.44,2.85-2.8-.9-2.76,1.34-2.91,1.36,2.54-.34,5.49-1.39,6.81-3.51-1.21-.24-2.37-.48-3.47-.7Z" style="stroke-width:0px;"/><path d="M421.7,205.05c.14.65.28,1.31.41,1.92-5.48-4.71-1.9-9.44-1.83-14.99.03-2.68-1.75-4.58-1.18-7.55.18-.96,1.96-6.5,2.89-3.84,5.25-1.86,2.67,1.4,3.69,3.29.91,1.68,4.29,5.51,2.27,7.29,2.54,2.44-.06,9.62-2.72,10.84-.38.9-1,1.51-2.01,1.6-.91.08-1.49.47-1.53,1.45ZM422.86,184.59c3.02-2.13,1.11-3.74.67-1.89-.25,1.07-.64,4.41-.78,4.99.47-1.87,5.65-.16.11-3.1Z" style="stroke-width:0px;"/><path d="M120.46,103.94c1.91.52,3.42,1.6,4.49,3.28-.09.92,1.06,1.5.62,2.76-2.15-2.78-4.43-5.22-8.5-5.44,1.39-.83,2.41-.5,3.39-.6Z" style="stroke-width:0px;"/><path d="M421.7,205.05c.04-.98.61-1.38,1.53-1.45,1.01-.09,1.63-.7,2.01-1.6,3.53,1.43-.56,4.34-3.54,3.05Z" style="stroke-width:0px;"/><path d="M114.95,106.53c2.22,4.96,6.08,5.54,10.39,5.8-5.83,1.39-9.14-.3-10.39-5.8Z" style="stroke-width:0px;"/><path d="M151.72,78.82c.35-.27,6.97-1.7,6.07,1.11-.43,1.37-5.91-.98-6.07-1.11Z" style="stroke-width:0px;"/><path d="M417.82,110.35c-.84,1.43-2.13,2.19-3.72,2.51-1.64-.06-3.31.25-4.95-.41,3.29-.32,6.43-.95,8.77-3.54.44.68.11,1.05-.1,1.44Z" style="stroke-width:0px;"/><path d="M410.63,105.32c1.9-.28,3.53-2.04,6.5-.8-4.42.29-6.66,2.78-9.13,5.93.3-2.59,2.16-3.54,2.72-5.21l-.09.09Z" style="stroke-width:0px;"/><path d="M377.08,104.24c10.63,15.23,19.97,30.19,25.38,48.15,2.65,8.8,4.3,17.81,5.18,26.96.9,9.42-.21,18.32-.03,27.67-1.17-8.44.33-17.2-.52-25.77-.8-8.11-2.09-16.18-4.17-24.06-4.11-15.62-11.21-30.57-20.48-43.78-9-12.83-20.19-24.2-32.91-33.36-11.1-7.99-28.09-19.59-42.1-20.19l.1.08c-.87-1.05-2.2-1.05-3.35-1.35-8.64-2.29-17.4-3.69-26.34-4.32-30.46-2.13-58.59,4.99-84.39,21.14-19.69,12.33-35.21,28.78-46.83,48.9-.57.98-.94,2.09-1.97,2.99-.35-1.39.54-2.23,1.06-3.15,9.11-16.17,20.97-30,35.57-41.46,15.6-12.24,32.98-20.91,52.23-25.79,4.1-1.04,8.21-2.02,12.41-2.56.47-.06.88-.19,1.11-.66l-.11.07c2.64.26,5.21-.48,7.81-.63,6.71-.38,13.42-1,20.16-.75,1.27,1.02,8.18.99,9.72,1.15,4.56.46,8.8.96,13.32,1.86,9.36,1.86,19.3,4.95,27.86,9.32,3.33,1.77,6.54,3.81,10.2,4.89,4.13,2.28,8.14,4.76,11.98,7.49,2.1,2.48,5.02,3.95,7.48,5.98.29.24.83.18,1.26.27,1.43,1.28,2.52,2.98,4.41,3.71-.05,1.56,11.96,13.65,13.48,13.48.4,1.53,2,2.26,2.48,3.73Z" style="stroke-width:0px;"/><path d="M174.86,86.35c-4.27,4.09-8.6,8.12-12.54,12.54-.54.61-1.1,1.15-1.95,1.26.29-2.78,13.14-15.37,14.49-13.8Z" style="stroke-width:0px;"/><path d="M121.73,282.02c-1.61-.11-3.32.86-5.15-.65,4.39.67,6.65-2.06,9.12-5.22.15,1.99-1.51,2.78-1.35,4.18-.64.93-1.71,1.18-2.62,1.69Z" style="stroke-width:0px;"/><path d="M118.77,274.15c1.72-.55,3.46-.97,5.34-.54-2.88,1.15-6.29,1.06-8.31,4.54-.26-2.2,1.34-2.6,1.8-3.7.39-.1.78-.2,1.17-.3Z" style="stroke-width:0px;"/><path d="M269.13,366.86c1.5-3.03.64-5.96-.15-8.88,2.72,3.6,2.75,5.71.15,8.88Z" style="stroke-width:0px;"/><path d="M395.71,192.89c.39,70.19-57.4,127.71-127.38,127.83-69.68.12-127.79-56.48-128.04-127.25-.25-71.06,57.71-128.01,127.44-128.16,70.57-.16,128.24,57.61,127.97,127.58ZM393.65,193.26c.54-68.69-55.82-125.51-124.9-125.9-68.6-.39-125.79,55.21-126.39,124.51-.61,70.08,56.51,126.45,125.16,126.77,68.86.32,126.33-55.97,126.13-125.38Z" style="stroke-width:0px;"/><path d="M313.65,66.08c2.14,3.53,13.52,6.2,17.07,8.08,3.44,1.82,14.4,6.34,15.72,10.49-43.14-29.87-101.21-33.53-146.71-6.3-45.86,27.45-69.53,79.63-64.75,132.1-1.22-25.55-.1-48.96,10.8-72.65,8.43-18.35,20.49-34.96,36.05-47.91,15.92-13.25,35.51-23.04,55.68-27.81,12.23-2.89,25.16-4.03,37.7-3.33,7.08.39,14.13,1.38,21.06,2.87,4.74,1.02,12.67,5.35,17.47,4.55l-.09-.08Z" style="stroke-width:0px;"/><path d="M313.75,66.16c-.39-1.04-1.46-1.02-2.25-1.28-10.02-3.29-20.26-5.5-30.8-6.46-5.5-.5-10.98-.67-16.48-.52-20.07.54-39.13,5.24-57.07,14.32-3.78,1.91-7.5,3.92-11.1,6.17-.52.32-.99,1.03-1.81.64,7.04-6.38,28.72-16.27,46.73-19.75,30.08-5.82,58.94-2.2,86.6,10.99,18.1,8.62,37.22,24.83,41.44,32.29-.77-.75-1.56-1.47-2.3-2.24-13.99-14.61-30.32-25.75-49.15-33.18-1.25-.49-2.45-1.29-3.92-1.05l.09.08Z" style="stroke-width:0px;"/><path d="M358.16,96.84c-48.76-43.07-120.52-46.4-172.21-6.33,4.29-8.49,18.94-13.77,26.99-17.38,14.33-6.44,28.91-10.75,44.62-12.01,36.83-2.94,74.11,9.84,100.6,35.73Z" style="stroke-width:0px;"/><path d="M196.55,84.44c24-17.16,55.2-23.79,84.29-21.04,13.11,1.24,25.96,4.5,38.06,9.7,10.82,4.65,26.03,11.49,33.48,20.98-.12.13-.24.27-.37.4-23.41-16.75-47.2-28.65-76.51-30.34-28.91-1.67-53.66,7.06-78.57,20.73-.13-.14-.26-.28-.38-.42Z" style="stroke-width:0px;"/><path d="M307.41,59.85c2.23,2.31,7.77,3.01,10.7,4.16,3.85,1.51,7.66,3.15,11.33,5.07-1.6,1.52-26.15-8.98-30.02-9.87-11.55-2.67-23.48-3.74-35.33-3.38-24.33.75-45.78,8.33-67.16,19.41-.13-.14-.26-.28-.39-.43,7.17-4.75,14.9-8.37,22.92-11.36,12.89-4.81,26.19-7.63,39.97-8.55,15.44-1.03,30.5.74,45.37,4.69.89.24,1.76.47,2.69.32l-.1-.08Z" style="stroke-width:0px;"/><path d="M397.08,220.18c3.6-25.12,2.3-49.01-5.5-73.26,9.07,23.85,11.09,48.28,5.5,73.26Z" style="stroke-width:0px;"/><path d="M390.07,149.04c5.76,12.51,9.35,36.21,7.72,51.15.17-17.44-2.08-34.52-7.72-51.15Z" style="stroke-width:0px;"/><path d="M138.71,205.57c-1.02-15.77-.77-31.53,4.18-46.86-3.3,15.86-3.85,30.74-4.18,46.86Z" style="stroke-width:0px;"/><path d="M140.3,160.28c.76,7.39-2.92,16.41-3.35,24.01-.41,7.26-.2,14.55-.2,21.82-2.6-6.19-.77-17.21-.39-23.81.25-4.44.31-19.2,4-21.97l-.06-.05Z" style="stroke-width:0px;"/><path d="M131.25,210.45c-1.86-14.5-1.77-29.02,1.29-43.44-.81,14.58-2.97,28.77-1.29,43.44Z" style="stroke-width:0px;"/><path d="M131.27,162.83c-1.57,14.46-2.56,28.2-2.75,42.78-1.7-7.57-.17-32.17,2.75-42.78Z" style="stroke-width:0px;"/><path d="M395.57,145.83c-1.23-.29-10-19.54-9.42-20.37,2.88,1.18,10.31,17.02,9.36,20.42l.06-.05Z" style="stroke-width:0px;"/><path d="M196.93,75.24c-4.12,2.92-12.12,11.08-17.19,11.93,5.12-4.78,10.66-8.98,16.81-12.35.13.14.25.29.39.43Z" style="stroke-width:0px;"/><path d="M377.09,122.76c4.37,5.63,7.52,11.91,10.05,18.53-3.38-6.16-6.54-12.44-10.05-18.53Z" style="stroke-width:0px;"/><path d="M352.38,94.08c5.42,4.05,9.89,9.06,14.82,14.5-5.16-2.44-10.79-9.71-15.19-14.1.13-.13.25-.26.37-.4Z" style="stroke-width:0px;"/><path d="M181.45,93.88c-4.17,4.24-8.4,8.45-12.95,13.35,1.47-3.42,9.15-11.35,12.95-13.35Z" style="stroke-width:0px;"/><path d="M132.63,181.03v23.9c-.11,0-.22,0-.32,0v-23.91h.32Z" style="stroke-width:0px;"/><path d="M134.32,151.55c1.3-6.03,3.55-11.67,6.46-17.06-1.85,5.81-4.41,11.36-6.46,17.06Z" style="stroke-width:0px;"/><path d="M403.05,177.55c3.19,4.15,1.66,17.95,1.09,23.03-2.17-5.79-1.22-16.85-1.02-23.09l-.07.05Z" style="stroke-width:0px;"/><path d="M359.7,89.44c3.96,3.41,7.61,7.13,10.66,11.47-3.67-3.73-7.39-7.38-11.19-10.98.18-.16.35-.32.53-.49Z" style="stroke-width:0px;"/><path d="M343.58,77.61c-4.24-2.24-8.43-4.61-12.5-7.19,4.59,1.62,8.66,4.19,12.5,7.19Z" style="stroke-width:0px;"/><path d="M171.41,106.27c2.84-3.73,6.18-6.91,9.91-10.27-.82,2.06-6.35,7.83-9.91,10.27Z" style="stroke-width:0px;"/><path d="M358.06,93.77c3.44,2.63,6.52,5.62,9.1,9.11-3.03-3.04-6.06-6.07-9.1-9.11Z" style="stroke-width:0px;"/><path d="M403.12,177.49c-2.28-2.48-2.25-11.83-2.72-15.18,1.58,3.84,2.73,10.75,2.65,15.23l.07-.05Z" style="stroke-width:0px;"/><path d="M147.64,140.12c1.03-4.34,3.08-8.19,5.43-11.9-.16,3.68-3.84,8.71-5.43,11.9Z" style="stroke-width:0px;"/><path d="M196.93,84.86c-3.33,2.49-6.66,4.99-10.47,7.84,1.59-2.63,5.09-5.4,10.09-8.27.12.14.25.28.38.42Z" style="stroke-width:0px;"/><path d="M184.36,86.5c-3.03,2.62-6.06,5.24-9.29,8.04.98-2.47,6.03-6.93,9.29-8.04Z" style="stroke-width:0px;"/><path d="M140.36,160.33c.25-4.57,2.19-8.63,3.66-13.1,1.45,2.19-2.68,11.15-3.72,13.05l.06.05Z" style="stroke-width:0px;"/><path d="M380.98,125.66c-2.5-3.73-4.68-6.97-7.03-10.49,2.4,1.45,6.11,6.93,7.03,10.49Z" style="stroke-width:0px;"/><path d="M395.51,145.88c1.69,2.23,5.18,9.97,3.77,13-1.04-4.67-3.03-8.65-3.71-13.04l-.06.05Z" style="stroke-width:0px;"/><path d="M402.2,185.94v14.25c-.08,0-.16,0-.23,0v-14.41c.08.05.16.1.23.15Z" style="stroke-width:0px;"/><path d="M379.26,115.57c-1.95-2.58-3.9-5.16-5.84-7.74,2.36,1.28,4.57,4.08,5.84,7.74Z" style="stroke-width:0px;"/></svg>