<?xml version="1.0" encoding="UTF-8"?><svg id="Layer_1" xmlns="http://www.w3.org/2000/svg" viewBox="0 0 485.01 467.63"><path d="M232.63,467.62c-62-.68-116.68-21.17-163.8-61.43-30.25-25.85-52.91-57.41-68.11-94.23-.62-1.51-1.09-4.22-.31-4.95,1.94-1.81,4.33-1.05,6.49.6,16.89,12.87,35.06,23.56,54.8,31.46,21.18,8.48,43.14,13.8,65.9,15.7,61.84,5.15,117.75-10.59,166.94-48.54,35.37-27.29,59.95-62.68,75.33-104.53,6.81-18.53,11.21-37.66,13.12-57.28,4.68-48.08-3.98-93.66-26.35-136.56-.34-.65-.84-1.25-1.02-1.94-.41-1.56-1.47-3.85-.83-4.6,1.66-1.93,4.07-1.56,6.23-.12,7.23,4.8,14.72,9.24,21.68,14.4,43.92,32.59,74.77,74.66,91.31,126.97,6.04,19.11,9.59,38.67,10.59,58.73,3.15,62.82-13.55,119.67-52.38,169.25-36.22,46.25-83.7,75.7-140.61,89.95-19.33,4.84-39,7.34-59.02,7.12ZM14.98,320.06c.38.79.46,1.11.65,1.33,5.96,7.15,11.73,14.47,17.93,21.42,27.39,30.71,58.46,56.86,94.99,76.19,31.22,16.53,64.36,26.27,99.69,27.93,21.71,1.02,43.23-.97,64.38-6.19,46.45-11.47,85.86-34.49,115.57-72.41,34-43.39,48.8-93.67,50.85-148.14.56-14.85-.43-29.67-2.34-44.43-3.81-29.38-11.96-57.44-25.05-84.03-15.12-30.69-35.67-57.04-62.7-78.18-.83-.65-1.73-1.22-3.27-2.3,56.04,115.17,11.1,229.8-58.81,290.09-74.19,63.98-191.92,82.32-291.89,18.73ZM418.83,58.13c.93,1.39,1.87,2.77,2.79,4.16.98,1.48,1.97,2.96,2.91,4.47,31.09,49.98,43.09,104.63,40,163.02-1.14,21.61-4.94,42.73-11.4,63.37-12.6,40.28-33.81,75.2-66.36,102.35-48.06,40.09-103.83,57.3-166.16,53.8-16.66-.94-32.94-4.09-48.94-8.71-40.61-11.71-76.14-32.6-108.04-60.03-15.25-13.11-29.61-27.1-43.05-43.04,32.26,59.67,111.9,132.68,230.69,125.87,91.7-5.25,178.1-66.99,212.78-160.79,33.4-90.33,6.68-186.56-45.24-244.48Z" style="stroke-width:0px;"/><path d="M105.96,254.46c3.52-.21,7.89.77,10.32-.96,2.3-1.64,2.61-6.12,3.74-9.36.97-2.76,1.62-5.67,2.91-8.26.66-1.33,2.27-2.61,3.71-3.02,2.07-.6,2.71,1.28,3.23,2.98,1.62,5.29,3.4,10.54,4.95,15.85.65,2.24,1.75,3.22,4.18,3.16,5.54-.14,11.09-.11,16.63.06,1.16.03,2.29.94,3.43,1.45-.63.99-1.06,2.27-1.94,2.93-4.61,3.44-9.29,6.78-14.04,10.02-1.66,1.13-2.08,2.21-1.42,4.15,1.84,5.44,3.57,10.92,5.11,16.45.33,1.19.08,3.57-.51,3.8-1.44.54-3.65.77-4.81,0-4.8-3.16-9.38-6.66-13.92-10.19-1.62-1.26-2.78-1.23-4.38-.03-4.1,3.07-8.32,5.98-12.51,8.94-.77.54-1.55,1.27-2.41,1.41-1.16.19-2.64.26-3.52-.32-.52-.34-.47-2.12-.16-3.09,1.67-5.28,3.39-10.54,5.31-15.73.89-2.42.63-3.96-1.65-5.51-4.58-3.11-8.98-6.5-13.36-9.89-.86-.67-1.3-1.89-1.94-2.86,1.1-.7,2.16-1.91,3.31-2.01,3.22-.28,6.47-.1,9.71-.1,0,.05,0,.1.01.15ZM104.59,258.94c.4.57.48.78.63.89,2.67,2.01,5.35,4.01,8.03,6.01q4.51,3.37,2.75,8.64c-1.08,3.26-2.13,6.54-3.19,9.81,3.66-1.81,6.79-3.87,9.75-6.15,2.66-2.05,4.98-2.03,7.57.17,2.39,2.03,5.02,3.78,7.55,5.65-.51-3.56-1.32-6.69-2.49-9.67-1.18-3.02-.62-5.03,2.25-6.79,3.59-2.21,6.91-4.84,10.46-7.38-.54-.38-.69-.59-.86-.6-3.76-.09-7.52-.16-11.28-.25q-5.31-.13-6.9-5.26c-.85-2.73-1.71-5.47-2.84-9.11-1.26,3.67-2.21,6.4-3.14,9.14-1.61,4.77-1.78,4.89-6.93,4.89-3.65,0-7.31,0-11.36,0Z" style="stroke-width:0px;"/><path d="M182.08,292.82q8.02-.15,10.54-7.82c.72-2.18,1.16-4.52,2.23-6.5.63-1.16,2.23-2.36,3.47-2.44.95-.06,2.47,1.41,2.94,2.53,1.32,3.18,2.42,6.47,3.23,9.82.79,3.24,2.31,4.72,5.85,4.35,3.21-.34,6.5-.26,9.72.04,1.47.14,2.84,1.27,4.25,1.95-.82,1.11-1.44,2.47-2.48,3.29-3.03,2.4-6.19,4.65-9.38,6.85-1.56,1.07-1.9,2.18-1.24,3.97,1.36,3.73,2.63,7.5,3.64,11.34.34,1.29.15,3.77-.51,4.04-1.38.59-3.56.66-4.82-.08-3.32-1.95-6.41-4.33-9.44-6.74-1.8-1.44-3.19-1.38-4.95.02-2.69,2.15-5.54,4.12-8.37,6.1-.84.59-1.78,1.16-2.75,1.41-2.72.69-4.05-.7-3.24-3.38,1.24-4.1,2.52-8.19,3.97-12.22.65-1.79.33-2.86-1.24-3.93-3.37-2.3-6.68-4.69-9.87-7.23-.92-.73-2.06-2.33-1.81-3.11.32-.98,1.91-1.99,3.06-2.16,2.36-.33,4.79-.1,7.2-.1ZM183.46,298.15c2.33,1.71,4.1,3.19,6.04,4.38,2.39,1.47,2.86,3.29,1.83,5.82-.8,1.97-1.32,4.06-2.01,6.22.4-.02,16.53-.9,16.68-.91-.47-1.51-.74-3.07-1.41-4.44-1.43-2.95-.51-4.85,2.14-6.48,2.11-1.3,4-2.94,6.61-4.9-3.22,0-5.52-.16-7.8.04-3.34.29-5.4-.84-6.05-4.31-.27-1.49-.95-2.9-1.4-4.21-1.54,2.73-2.41,6.38-4.66,7.72-2.46,1.46-6.19.78-9.98,1.08Z" style="stroke-width:0px;"/><path d="M245.57,263.35c-.95-.6-2.72-1.61-4.38-2.79-5.59-3.99-5.56-3.99-11.18-.01-1.44,1.01-2.94,2.11-4.58,2.61-2.74.83-3.75-.33-2.93-3.07.78-2.6,1.52-5.23,2.55-7.74.89-2.18.3-3.51-1.58-4.71-2.11-1.36-4.14-2.85-6.09-4.43-.81-.66-1.31-1.71-1.95-2.58,1.09-.69,2.13-1.83,3.29-1.99,2.47-.33,5.03-.33,7.52-.11,2.6.23,3.79-.79,4.37-3.25.57-2.43,1.26-4.92,2.44-7.09.67-1.23,2.36-2.37,3.73-2.57.82-.12,2.33,1.46,2.82,2.59,1.12,2.57,1.85,5.33,2.65,8.03.48,1.63,1.35,2.37,3.15,2.28,2.82-.14,5.65-.12,8.47.02.92.04,1.81.66,2.72,1.02-.51.94-.81,2.13-1.57,2.77-1.9,1.63-3.91,3.2-6.07,4.44-2.31,1.33-2.55,2.88-1.61,5.17.95,2.31,1.62,4.74,2.35,7.14.86,2.83-.14,4.2-4.11,4.27ZM235.88,237.9c-.85,5.8-5.41,4.39-9.11,5.22,4.97,2.36,6.9,5.63,4.01,10.94,3.43-1.9,6.38-4.71,10.19-.66-3.66-6.6,3.1-7.3,5.36-10.54-3.84-1.06-9.21,2.06-10.45-4.95Z" style="stroke-width:0px;"/></svg>