<?xml version="1.0" encoding="UTF-8"?><svg id="Layer_1" xmlns="http://www.w3.org/2000/svg" viewBox="0 0 368.98 261.4"><path d="M101.66,218.65c-3.43-.82-7.17-.16-10.04,2.01,2.07,1.34,4.14,2.67,6.2,4.01-2.07-1.34-4.14-2.67-6.2-4.01,2.88-2.18,6.61-2.83,10.04-2.01Z" style="stroke-width:0px;"/><path d="M45.5,212.58c6.84-7.59,13.92-14.87,21.32-21.76-7.4,6.89-14.48,14.17-21.32,21.76-.36.34-.72.67-1.08,1.01-1.24,1.76-2.49,3.52-3.59,5.41,1.09-1.89,2.35-3.65,3.59-5.41.37-.34.73-.68,1.08-1.01Z" style="stroke-width:0px;"/><path d="M38.96,222.91c.36-.98.8-1.9,1.27-2.79-.47.89-.91,1.81-1.27,2.79Z" style="stroke-width:0px;"/><path d="M145.67,112.11c-.43,0-.85-.04-1.26-.1.41.06.83.1,1.26.1Z" style="stroke-width:0px;"/><path d="M238.58,117.13c.57-1.4.45-1.48-.63-2.14h0c1.07.66,1.2.74.63,2.14Z" style="stroke-width:0px;"/><path d="M144.2,111.97c-.54-.09-1.05-.24-1.55-.44.49.2,1.01.35,1.55.44Z" style="stroke-width:0px;"/><path d="M280.37,39.07c-.13-.14-.26-.28-.4-.43.13.14.27.29.4.43Z" style="stroke-width:0px;"/><path d="M280.54,39.28h0c-.05-.07-.11-.14-.18-.21.07.07.13.14.18.21Z" style="stroke-width:0px;"/><path d="M49.64,163.43c-.08.33-.2.65-.33.96.13-.31.25-.62.33-.96Z" style="stroke-width:0px;"/><path d="M101.75,155.73c-.66.57-1.41.84-2.21.8.8.05,1.56-.23,2.21-.8Z" style="stroke-width:0px;"/><path d="M99.93,153.1c.03.16.09.3.19.43-.1-.14-.16-.28-.19-.43Z" style="stroke-width:0px;"/><path d="M47.69,166.69c-.07.07-.16.13-.23.19.08-.06.16-.12.23-.19Z" style="stroke-width:0px;"/><path d="M140.86,110.55s-.07-.05-.1-.07c.03.03.07.05.1.07Z" style="stroke-width:0px;"/><path d="M108.15,128.35c-1.15-1.86-1.88-3.98-2.12-6.39h0c.25,2.41.97,4.53,2.12,6.39Z" style="stroke-width:0px;"/><path d="M101.87,155.64c.17-.16.33-.34.49-.54-.45-.47-1.31-.79-1.88-1.22.57.44,1.43.75,1.88,1.22-.15.2-.32.38-.49.54Z" style="stroke-width:0px;"/><path d="M91.2,153.75c0,.52-.21,1.1-.28,1.64h0c.07-.53.27-1.12.28-1.64Z" style="stroke-width:0px;"/><path d="M41.1,168.68h0c2.13.35,4.33-.25,5.98-1.49-1.65,1.25-3.84,1.85-5.98,1.49Z" style="stroke-width:0px;"/><path d="M101.31,124.76c1.32-1.27,2.97-2.07,4.71-2.86h0c-1.74.79-3.39,1.59-4.71,2.86Z" style="stroke-width:0px;"/><path d="M223.48,119.98c-1.67-1.14-3.34-2.28-5.02-3.42,1.68,1.14,3.35,2.28,5.02,3.42h0Z" style="stroke-width:0px;"/><path d="M142.19,111.34c-.2-.09-.4-.19-.59-.3.19.11.39.21.59.3Z" style="stroke-width:0px;"/><path d="M167.34,106.36h0c.32-1.63.79-3.27.82-4.92-.03,1.65-.5,3.29-.82,4.92Z" style="stroke-width:0px;"/><path d="M167.34,106.36s.03,0,.05,0h0s-.03,0-.05,0h0Z" style="stroke-width:0px;"/><path d="M90.89,155.39s0,.04.02.06h0s0-.04-.02-.06h0Z" style="stroke-width:0px;"/><path d="M223.53,120.01h0l-.02.02s.02-.02.02-.02Z" style="stroke-width:0px;"/><path d="M354.86,103.47c-10.63-20.14-25.2-37.2-41.76-52.58-18.19-16.9-39.07-29.85-61.68-39.96C235,3.59,217.72-.03,199.68,0c-18.06.03-34.14,5.23-47.83,17.38-12.27,10.89-22.67,23.28-31.53,37.05-4.3,6.69-8.62,13.31-11.04,20.99-3.99,12.69-4.12,25.52-1.63,38.45.33,1.73.04,2.43-1.75,3.03-1.87.63-3.73,1.74-5.19,3.08-2.34,2.15-4.36,4.66-6.53,7.03-5.4-1.44-8.81-.18-9.75,3.65-.66,2.7.73,5.04,3.4,5.6-.15-2.03-.72-4.37,1.87-5.2,3.2-1.03,3.74,1.84,4.73,3.8,1.73-2.47,3.83-4.62,4.91-7.2.51-1.21,1.19-2.14,1.98-2.91,1.32-1.27,2.98-2.07,4.72-2.86h0v.02c3.08-1.15,6.15-2.3,9.06-3.39-.66-1.08-1.57-1.98-1.78-3.02-2.47-12.33-2.95-24.68.79-36.85,5.22-16.96,15.31-29.46,32.9-34.7,10.79-3.22,21.78-2.89,32.72-.97,19.76,3.46,38.27,10.6,56.05,19.73,14.62,7.51,28.43,16.16,39.43,28.68,3.69,4.19,7.66,8.13,11.35,12.32,14.23,16.18,26.18,33.82,33.86,54.08,5.67,14.98,9.49,30.35,7.33,46.55-1.37,10.28-4.74,19.73-13.08,26.65-16.01,13.28-34.38,17.61-54.73,14.33-.64-.1-1.45-.46-1.77-.96-1.03-1.63-1.87-3.38-2.88-5.27,1.52,0,2.76.03,4-.01,2.56-.09,4.61.7,6.4,2.7,1.27,1.41,3.11,2.3,4.7,3.43.16-.21.32-.41.48-.62-1.34-1.64-2.67-3.27-4.3-5.26,4.27-.14,8.03-1.41,11.54,1.36,1.24.98,3.13,1.14,4.73,1.67.1-.25.19-.5.29-.75-1.5-1.03-3.01-2.05-4.51-3.08.05-.3.1-.6.15-.9,5.02-.34,10.03-.67,15.66-1.05-1.57-.56-2.52-.9-3.48-1.24-.01-.17-.01-.34-.02-.51,3.68-1.33,7.36-2.65,11.03-3.98-.03-.1-.06-.19-.1-.29h-1.65c5.84-3.72,10.68-7.98,13.91-13.69,7.34-13.02,8.7-26.83,5.08-41.26-2.31-9.21-6.39-17.7-10.12-26.36-6.21-14.41-14.2-27.7-24.3-39.68-22.98-27.25-51.78-45.76-85.74-56.29-13.51-4.18-27.33-6.14-41.42-3.53-11.31,2.1-21.58,6.65-29.48,15.2-9.82,10.64-12.56,23.75-12.03,37.82.13,3.37,1.47,6.72-.08,10.19-.4.89.62,2.57,1.3,3.69.27.45,1.46.6,2.12.44.36-.09.55-1.1.71-1.72.36-1.37.66-2.76,1.13-4.8.96,1.1,1.85,1.73,1.75,2.07-.64,2.17-1.49,4.27-2.28,6.41,2,.78,4.19.23,5.76-1.65,1.55-1.84,1.79-4.7.56-6.61-1.25-1.94-3.47-2.51-5.53-1.43-1.8.95-2.6.64-2.74-1.41-.27-4.05-.84-8.18-.4-12.17,1.97-17.89,10.45-31.13,27.76-37.95,13.33-5.25,26.91-5.12,40.59-2.1,21.53,4.76,41.24,13.84,59.45,26.12,28.41,19.17,50.73,43.54,63.4,75.9,3.86,9.84,6.86,19.89,7.32,30.57.1,2.36-.69,3.14-2.97,3.26-9.56.52-19.02-.13-28.39-2.01-19.6-3.94-37.41-12.25-54.46-22.39-.38-.23-.69-.57-1.44-1.2,1.79-1.32,3.37-2.48,5.04-3.72-.51-.21-.92-.37-1.4-.57,1.6-2.59,3.13-5.14,4.74-7.65,1.43-2.22,3.14-4.14,3.73-6.97.66-3.19,2.4-6.13,3.39-9.27,2.83-9.05,3.17-18.09-.83-26.93-1.34-2.97-2.37-6.46-6.9-5.54,1.18-6.33-1.34-9.65-7.67-10.5-.61-.08-1.19-.45-2.22-.85-.75,6.4-1.46,12.55-2.19,18.7-.07.58-.06,1.51-.38,1.67-2.81,1.34-1.89,3.53-1.46,5.63.02,0,.04.02.05.04h0c.02.05.04.1.06.14,2.23,2.43,4.84,3.11,8.23,1.26.22,2.65.58,4.96.56,7.27-.02,2.25-.42,4.5-.69,7.1,2.65-2.27,3-5.16,3.2-7.62,2.5.74,5.01,1.49,7.77,2.31-1.1,6.25-6.35,10.05-11.06,14.23.13.19.27.39.4.58,1.96-.83,3.91-1.67,6.35-2.7-1.56,2.95-2.61,5.8-4.41,8.07-1.71,2.16-4.2,3.7-6.62,5.75,1.24-.07,2.14-.12,3.43-.2-1.81,2.61-3.44,4.96-5.18,7.48-1.26-.84-2.28-1.53-3.43-2.29,1.23-2.38,2.48-4.63,3.56-6.95,2.78-5.98,4.8-12.15,3.97-18.88-.2-1.61-.73-3.22-1.36-4.72-1.5-3.59-3.14-7.13-4.73-10.68-.03-.04-.07-.07-.1-.11,0-.02-.01-.05-.02-.07-1.67-1.14-3.34-2.28-5.02-3.42-.1.17-.21.33-.31.5,1.82,2.36,3.65,4.72,5.47,7.07-2.5-.51-4.67-1.14-6.67-2.13-2.04-1-3.9-2.36-5.79-3.54,1.12-1.57,2.05-2.87,2.97-4.16,3.21,1.58,5.37,1.5,6.96-.33,1.08-1.24,1.71-2.6.33-4.23-2.8,1.87-5.26,1.22-7.41-1.23-1.09,1.35-1.95,2.46-2.86,3.52-1.98,2.32-4.49,3.35-7.53,3.09-1.26-.11-2.05-.42-2.44-1.94-.71-2.79-2.66-3.79-5.55-3.45-.86.1-1.75-.11-2.76-.19,0-1.25.09-2.2,0-3.13-.63-5.71-2.19-11.11-5.74-15.73-2.97-3.87-7.91-3.56-10.26.63-.81,1.45-1.48,1.06-2.33.23-2.83-2.76-6.14-2.83-9.64-1.69-.8.26-1.55.69-2.45,1.1-4.69-10.17-7.19-20.79-8.57-31.75-.16.8-.16,1.58-.16,2.36.09,10.09,2.19,19.8,5.67,29.23.55,1.5,1.11,2.9.21,4.48-.28.49-.26,1.73-.17,1.75,2.01.48.81,2.13,1.21,3.16.46,1.18.92,2.36,1.58,4.04,1-1.24,1.9-1.87,2.09-2.67.5-2.16.7-4.38,1.04-6.8,5.26-2.65,10.06-2.31,13.22,1.16-.58.7-1.18,1.4-1.82,2.17.86,1.68,2.25,2.08,3.93,2.04.71-.02,1.5.08,2.12.39,1.39.69,2.72,1.52,4.03,2.35.5.32.89.82,1.66,1.56-2.52.5-4.5,1.35-5.19-.89-2.6,1.45-5.09,2.83-8.15,4.53,2.2.2,3.71.33,5.07.46.37,1.21.67,2.18,1.06,3.44,1.88-1.61,2.02-4.22,4.95-4.37,3.43-.18,3.41-.55,4.76,2.52-2.49,3.21-2.25,5.26,1.31,8.42.87.78,2.36,1.59,3.34,1.37,2.07-.46,4-1.59,6.25-2.57,1.59,1.61,3.94,2.26,6.86,1.95,1.39-.15,2.92.92,4.38,1.44-.06.21-.13.43-.19.64-10.21-1.23-20.2.57-30.49,2.31,4.78-3.61,6.14-6.05,5.3-9.4-.47.35-.93.64-1.32,1-4.06,3.77-8.84,5.53-14.4,5.42-1.47-.03-2.26-.23-2.66-1.82-.61-2.44-2.41-3.78-4.88-4.18-.9-.15-1.82-.19-2.05-.21-1.4-2.86-2.23-5.59-3.89-7.62-1.49-1.82-1.65-3.1-.44-4.9,1.07-1.58,1.02-3.27.08-4.9-.83-1.44-1.71-2.86-2.24-3.75-.93.39-1.86,1.03-2.85,1.14-3.12.35-5.01,2.42-4.84,5.53.05.86.03,1.72.04,2.58.05,2.34,1.19,4.13,3.47,4.39,2.22.25,3.08,1.52,3.81,3.23.59,1.37,1.17,2.74,1.77,4.11.61,1.4.58,2.66.12,4.23-.45,1.53-.28,3.71.53,5.05,1.23,2.04,3.25,3.62,4.99,5.45-3.27,1.2-6.69,2.46-10.17,3.73.59-1.86,1.12-3.53,1.65-5.2-.21-.17-.43-.33-.64-.5-4.57,3.37-9.71,4.93-15.55,4.81,1.46,2.92,3.86,3.41,5.84,3.87-17,9.41-34.2,18.94-51,28.24.32-2.22,1.4-4.96.9-7.36-.67-3.2-.14-5.97.8-8.85.07-.21.25-.37.49-.71.54.48,1.04.91,1.49,1.31-1.81,3.63-1.53,5.96.78,7.49.65.43,1.31.67,1.95.7.8.05,1.55-.23,2.21-.8.04-.03.08-.06.12-.09.17-.16.33-.34.49-.54-.45-.47-1.31-.79-1.88-1.22-.14-.11-.27-.23-.36-.35-.1-.13-.16-.27-.19-.43-.05-.31.05-.69.4-1.18,2.02-2.76,3.78,0,5.73.9.26-.87.49-1.65.75-2.5,6.66.3,12.29-1.61,16.2-7.3-6.48-.18-11.89,2.44-16.77,6.55-1.71-2.85-4.18-3.58-7.17-2.9-1.51-4.66-3.6-8.69-8.77-11.16.24,1.69.42,2.67.51,3.67.11,1.22.43,2.5.18,3.65-.75,3.51-1.16,6.95.14,10.44.06.15.08.32.08.5,0,.52-.21,1.1-.28,1.64,0,0,.02,0,.03,0-1.16,6.98-5.91,11.36-11.65,15.44,1.4.22,2.33.36,3.52.55-4.11,3.23-7.95,6.26-11.88,9.35-.24-.76-.39-1.25-.52-1.69-4.73,3.56-9.37,7.05-14.22,10.69,1.34.41,2.43.74,3.89,1.18-3.74,3.34-7.25,6.48-10.29,9.2.49-4.73-.18-9.66-1.81-11.34-.36.53-.65,1.08-1.05,1.53-.5.55-1.09,1.01-1.64,1.51-.44-.6-.99-1.16-1.29-1.82-.36-.81-.51-1.72-.78-2.68-2.35,1.6-3.16,3.41-2.63,5.5.65,2.55,2.12,3.52,6.11,3.93-1.79,6.03-5.68,10.28-10.58,13.68-.66-1.14-1.22-2.1-1.81-3.12q-3.46,3.03-5.58,1.68c-1.62,1-1.75,2.55-.73,3.8,1.24,1.51,1.32,3.1.77,4.62-1.68,4.68-3.62,9.26-5.36,13.92-.3.79-.1,1.76-.14,2.65,1.15-.12,2.59.16,3.4-.43,1.69-1.22,1.21-3.02.2-4.71,2.76-1.33,4.7-3.25,5.59-6.15.9-2.92-.03-5.5-1.3-7.73,3.15-1.8,5.94-4.3,9.62-3.49-2.15,3.79-4.45,7.62-6.51,11.57-1.07,2.05-1.14,4.75-4.01,5.47-.12.03-.15.41-.24.66.93.66,2.58,1.27,2.61,1.96.19,3.46,1.79,6.25,3.39,9.14,1.61,2.92,2.98,5.97,4.45,8.97.19-.07.38-.14.57-.21-.56-1.98-1.13-3.95-1.72-6.04,3.85,2.09,7.85,3.66,9.13,8.5.49,1.85,2.08,3.41,3.17,5.11.25-.14.5-.28.75-.42-.97-2.6-1.94-5.19-2.98-7.97,2.37.56,4.57,1.05,6.75,1.6.42.11.95.3,1.18.63,1.4,2.06,2.73,4.17,4.31,6.61-11.5,1.15-22.74,1.75-33.83-1.43.52-5.15-1.2-8.02-4.89-8.65-2.94-.5-3.86-1.95-3.12-4.77.55-2.11.79-4.23-.09-6.26-.24-.06-.47-.12-.71-.18-.77,1.79-1.54,3.58-2.2,5.13-1.83-.6-3.55-1.17-5.59-1.84.49-4.41-.65-8.87-4.02-12.8-.43.53-.72.88-1.22,1.49-.18-1.14-.3-1.93-.43-2.72.22-.21.43-.43.65-.64,1.51.92,3.19,1.65,4.49,2.81,2.62,2.33,5.3,4.34,9.4,4.69-1.04-1.72-1.86-3.06-2.74-4.51h5.26c-4.92-3.52-10.43-5.77-14.83-9.7.1-.19.2-.38.3-.57.83.31,1.66.61,2.39.88,1.23-.91,2.4-1.78,3.58-2.66-4.5-.46-4.33-5.08-7.03-6.84,3.54-4.16,6.92-8.14,10.29-12.1-1.39-2.17-1.04-4.79.81-6.88,4.9-5.52,10.01-10.77,16.12-13.34.41-2.22.2-4.2,1.09-5.26,1.77-2.1,3.63-.12,5.59.97.02-.31.04-.61.06-.89.06-.85.11-1.58.16-2.32h0c2.13.35,4.33-.25,5.98-1.49.13-.1.25-.2.37-.31.08-.07.16-.13.23-.19.7-.65,1.25-1.43,1.62-2.3.13-.31.25-.63.33-.96.12-.51.18-1.04.17-1.6-2.3,1.77-4.2,3.24-5.83,4.49-1.38.23-2.63.43-4.31.71-2.38-1.73-5.08-2-7.18.04-1.04,1.01-1.9,2.59-2.07,4.01-.16,1.37.66,2.87,1.05,4.27-3.32-.34-6.35.76-8.99,2.96-2.66,2.21-3.93,5.2-4.47,8.6-2.43-.14-4.66.45-5.31,2.75-.52,1.85-.11,3.95-.11,6.26-3.27,1.29-5.13,4.25-5.38,8.22-4.21.88-6.13,3.39-4.78,6.5.59,1.34.3,2.05-.43,3.1-3.63,5.21-2.25,13.99,2.92,16.77,2.59,1.4,3.05,3.59,3.97,5.76-.2.16-.41.31-.61.47-.74-.94-1.48-1.89-2.31-2.94-1.95.21-2.56,1.61-2.45,3.44.14,2.36,1.83,3.43,5.44,3.54.69,7.44,3.75,13.26,11.39,16.41v-2.87c1.89,1.12,3.28,1.95,4.67,2.77.77.4,1.89.31,2.85.65,9.12,3.28,18.59,3.91,28.13,3.54,14.17-.55,27.82-3.99,41.29-8.13,27.51-8.45,53.46-20.27,77.39-36.34,1.91-1.28,3.11-1.23,4.88.09,20.25,15.09,42.74,25.19,67.23,31.44,24.5,6.25,47.15,2.76,68.59-10.22,18.11-10.96,31.76-26.25,42.8-44.07,7.54-12.16,11.11-25.37,10.74-39.69-.5-18.18-5.69-34.99-14.09-50.92ZM231.1,99.15c1.5,1.62,2.87,3.1,4.27,4.61-1.78,1.52-3.41,2.91-4.85,4.14.18-2.66.37-5.58.58-8.75ZM234.95,121.87c-.34.36-.68.74-1.35,1.45-.54-1.65-.99-2.99-1.54-4.68-2.22-.21-4.99-.34-6.29-2.95,1.31-2.01,2.34-4.08,3.86-5.69.69-.73,2.35-.72,3.56-.68.38,0,.95,1.2,1.04,1.9.34,2.51.87,4.89,3.09,7.27.27-1.48.45-2.49.63-3.5h0c1.07.66,1.19.74.63,2.14-.08.2-.18.43-.28.69-.45,1.07-.82,2.17-1.41,3.75,1.49-.18,2.57-.31,3.84-.46,0,1.95,1.06,2.88,3.31,2.21-.13.99-.23,1.75-.33,2.49-2.53.35-2.79.23-8.76-3.94ZM180.25,93.19c2.71-1.04,5.29.27,5.52,3.01-1.98-1.08-3.74-2.04-5.52-3.01ZM196.66,114.52c-.44,1.63-1.72,1.72-3.04,1.49-.21-.32-.41-.64-.62-.96.9-.69,1.81-1.38,2.71-2.07.34.52,1.06,1.14.95,1.54ZM155.61,102.42c-1.32-.16-2.66-.25-3.95-.56-.24-.06-.53-1.31-.36-1.45.66-.52,1.64-1.27,2.26-1.09.96.28,1.71,1.24,2.55,1.92-.17.39-.33.79-.5,1.18ZM4.59,220.61c.02-2.04-.21-4.1.07-6.1.16-1.18,1.09-2.26,1.73-3.49.44,1.73,2.07,3.58-.92,4.65.48,2.21.94,4.3,1.41,6.41-1.57.63-2.3.16-2.29-1.47ZM16.05,247.77c2.19,1.15,4.24,2.23,6.78,3.57-4,1.31-5.05.68-6.78-3.57ZM219.66,125.26c3.79.23,6.93,2.96,7.99,6.98.97,3.7.5,7.34-.46,10.94-1.56,5.82-4.35,11.04-8.03,16.29-4.52-3.6-8.73-6.96-13.02-10.37,5.47-7.61,12.43-14.07,13.52-23.84ZM185.88,127.48c3.27-.65,6.52-1.55,9.82-1.9,5.74-.6,11.52-1.18,17.28-1.15,3.86,0,4.28,1.2,2.64,4.79-2.96,6.47-7.99,11.36-12.88,17.15-5.93-6.27-11.56-12.22-17.19-18.17.11-.24.22-.48.33-.72ZM169.65,121.51c2.22,1.2,4.29,2.33,6.47,3.51-2.62.69-5.27,1.39-8.19,2.17.67-2.2,1.23-4.04,1.72-5.68ZM161.23,124.27c-.2-.31-.9-.91-.96-1.57-.18-1.97,1.17-3.46,3.01-3.47,1.58,0,2.77.73,3.05,2.37.21,1.25-2.2,2.66-5.1,2.67ZM172.78,130.7c.13,3,.25,5.59.37,8.18.31.02.62.04.92.05.36-2.19.74-4.38,1.08-6.57.2-1.31.12-2.65,2.03-2.9,1.81-.23,3.28-1.04,4.91,1.05,23.97,30.69,55.07,50.85,92.25,61.79,12.77,3.76,25.88,5.05,39.19,3.81,2.74-.25,3.31.32,2.83,2.98-2.45,13.45-9.66,23.32-22.16,29.15-.07.03-.15.12-.21.1-3.91-.76-6.07,3.25-9.74,3.48-3.9.25-7.73,1.42-11.63,1.77-3.82.34-7.7.34-11.54.13-3.83-.2-7.65-.7-11.44-1.32-16.48-2.69-31.35-9.59-45.5-18.07-20.54-12.3-39.44-26.76-55.1-45.01-5.52-6.44-10.09-13.69-15.07-20.59-.49-.68-.83-1.48-1.37-2.47,13.16-6.29,26.5-11.04,40.18-15.56ZM38.96,222.91c.36-.98.8-1.9,1.27-2.79.2-.38.4-.76.62-1.12,1.09-1.89,2.35-3.65,3.59-5.41.36-.34.72-.67,1.08-1.01,6.84-7.59,13.92-14.87,21.32-21.76,16.29-15.16,34.15-28.43,54.47-38.88,7.18,13.59,15.73,26.03,26.29,37.6-34.27,19.47-69.85,33.8-109.65,37.14.22-1.35.57-2.6,1.01-3.77ZM78.87,243.7c-7.17,1.46-14.38,2.94-21.73,1.81-6.68-1.03-12.6-3.94-17.35-8.8-1.32-1.35-1.91-3.4-3.06-5.54,1.4-.26,2.05-.43,2.71-.5,7.1-.83,14.19-1.7,21.29-2.43,1.34-.14,2.79.12,4.09.53,2.96.94,5.86,2.08,8.78,3.14.13-.31.27-.61.4-.92-2.32-1.23-4.64-2.45-7.6-4.01,4.5-.31,8.14-3.21,12.46-.55,1.93,1.19,4.29,1.68,6.45,2.48.14-.3.29-.6.43-.89-2.07-1.27-4.14-2.53-6.5-3.98,2.86-.86,5.43-1.72,8.06-2.35.63-.15,1.44.46,2.16.74,2.64,1.03,5.28,2.07,7.93,3.1.14-.28.28-.57.41-.85-2.07-1.34-4.14-2.67-6.2-4.01,2.87-2.17,6.61-2.83,10.04-2.01.41.1.82.21,1.22.35,1.25.44,2.43,1.08,3.49,1.93.42.34.9.9,1.33.88.77-.04,1.51-.45,2.26-.71-.43-.63-.72-1.53-1.32-1.83-1.86-.94-3.83-1.64-5.77-2.44,0-.23-.02-.46-.03-.69,2.43-.97,4.83-2.03,7.3-2.85.58-.19,1.44.44,2.17.68,2.67.89,5.35,1.78,8.02,2.67.12-.31.25-.62.37-.93-2.28-1.28-4.57-2.56-7.1-3.98,2.46-1.13,4.69-2.27,7.02-3.15.66-.25,1.63.22,2.43.44,2.74.74,5.47,1.51,8.2,2.26.13-.35.25-.69.38-1.04-2.32-1.08-4.65-2.16-7.41-3.45,2.55-1.28,4.72-2.48,6.99-3.45.59-.25,1.49.2,2.24.34,2.86.55,5.73,1.11,8.59,1.66.1-.37.19-.74.29-1.11-2.5-.84-5-1.68-8.01-2.69,3.94-1.69,6.86-4.5,11.31-3.19,2.05.6,4.43.1,6.66.1.03-.28.06-.57.09-.85-2.31-.4-4.61-.8-7.49-1.29,2.02-1.09,3.6-2.01,5.25-2.79.36-.17,1.12-.02,1.43.27,4.6,4.25,9.15,8.55,13.99,13.1l-4.02,2.34s-.6.45-.94.65c-22.65,13.52-46.58,24.12-71.94,31.42M65.39,256.31c-.51.07-1.28-.24-1.61-.64-1.3-1.55-2.47-3.22-3.89-5.11,2.72,0,5.24-.52,7.39.15,2.09.65,3.8,2.52,6.12,4.17-2.99.55-5.49,1.06-8.01,1.43ZM160.55,220.09c-25.29,14.86-52.07,26.06-80.57,33.22-4.04,1.01-6.27-1.04-8.97-3.03,3.29-.55,6.29-2.59,9.9-.81,2.29,1.13,4.36.43,6.39-1.2h-6.19c-.04-.15-.07-.29-.11-.44.66-.22,1.31-.51,1.98-.65,30.44-6.61,58.56-18.8,84.82-35.4,2.05-1.29,3.46-1.5,5.16.92-4.2,2.51-8.29,4.98-12.41,7.39ZM139.99,166.1s5.89,6.91,8.98,10.27c19.62,21.34,42.28,38.65,68.44,51.28,1.05.51,2.08,1.12,2.97,1.86.89.75,1.6,1.72,2.87,3.13v-2h0c4.02.36,6.87,2.45,9.12,5.43.52.69,1.01,1.42,1.47,2.19.19-.14.37-.28.56-.42-.42-1.16-.84-2.32-1.32-3.66,4.87.87,9.22,2.1,10.97,7.56-.95-.22-1.95-.42-2.93-.68-26.83-7.2-51.18-19.59-73.39-36.06-8.85-6.56-15.87-15.2-22.69-23.87-7.16-9.11-13.27-18.9-18.55-29.2-.32-.62-.57-1.27-.97-2.18,1.16-.59,2.25-1.13,3.53-1.78,3.35,5.61,6.64,11.12,9.99,16.75M246.9,242.33c-1.45-.65-2.08-3.15-3.12-4.89,6.16-.63,9.9,2.3,12.76,7.26-3.35-.76-6.72-1.06-9.64-2.37ZM299.98,44.02c1.77,1.55,3.97,3.4,6.08,5.34,19.28,17.63,35.3,37.75,46.52,61.46,6.63,14.01,10.56,28.74,10.83,44.31.18,10.01-1.31,19.78-5.78,28.86-8,16.25-18.65,30.54-32.3,42.52-.57.5-1.19.93-2.13,1.11.61-.94,1.23-1.88,1.84-2.83,6.29-9.89,8.5-20.84,8.36-32.38v-.58c.03-1.33.29-2.47,1.48-3.32-1.75-.91-1.86-2.56-2.09-4.29-3.39-25.73-14.2-48.3-30.27-68.33-25.55-31.85-56.97-55.94-95.51-70.22-14.74-5.47-29.77-9.57-45.7-9.21-10.66.24-20.64,2.83-30.02,8.2,1.98-2.26,3.82-4.65,5.96-6.74,5.97-5.8,11.89-11.67,18.14-17.17,12.34-10.85,27.14-15.14,43.29-15.27,18.5-.15,36.2,3.75,53.14,11.11,14.45,6.27,28.23,13.82,41.44,22.39,1.12.72,2.2,1.51,3.29,2.26" style="stroke-width:0px;"/><path d="M106.02,121.9l-.03.03.03-.03Z" style="stroke-width:0px;"/><path d="M47.46,166.89c-.12.1-.24.21-.37.31.13-.1.25-.21.37-.31Z" style="stroke-width:0px;"/><path d="M90.91,155.45l.04-.04-.04.04Z" style="stroke-width:0px;"/><path d="M40.95,171c.06-.85.11-1.58.16-2.32h0c-.06.74-.11,1.47-.16,2.32Z" style="stroke-width:0px;"/><path d="M223.53,120.01h0s-.04-.02-.05-.04h0s.03.03.05.04Z" style="stroke-width:0px;"/><path d="M101.87,155.64s-.08.06-.12.09c.04-.03.08-.05.12-.09Z" style="stroke-width:0px;"/><path d="M49.31,164.39c-.37.87-.92,1.65-1.62,2.3.7-.64,1.25-1.42,1.62-2.3Z" style="stroke-width:0px;"/><path d="M223.49,120.05l.02-.02.02-.02s-.04-.02-.05-.04c0,.03.01.06.01.08Z" style="stroke-width:0px;"/><path d="M86.44,148.36c-1.27-1.06-2.72-1.95-4.25-2.74-4.06,1.01-8.11,2.01-12.37,3.07,1.82-3.71,4.46-6.53,8.06-8.52,1.16-.64,1.91-.77,3.03.33,2.16,2.11,4.85,2.83,7.77,2.15.13-.32.25-.63.38-.95-2.25-1.05-4.49-2.1-6.68-3.12,1.16-.23,2.49-.5,4.09-.82-2.75-2.62-5.82-2.99-8.94-2.09-6.27,1.8-9.76,6.14-10.45,12.9-2.23-2.44-4.61-3.26-7.41-1.92-2.01.96-3.19,2.61-3.14,4.86.04,1.73.73,3.19,2.67,3.76.2-.84.33-1.61.58-2.35.6-1.8,2.25-2.75,3.87-2.06,1.53.65,2.49,1.58,1.87,3.66-1.04,3.49,1.02,7.66,4.36,8.98,1.81.72,3.81.98,5.9,1.48.37-2.29-.66-3.99-2.56-4.76-1.69-.69-2.6-1.81-3.46-3.23-.52-.86-1.17-1.71-1.93-2.37-1.42-1.24-.95-2.21.19-3.25.5-.45.9-1.01,1.37-1.55,3.19,3.01,6.51,2.41,10.03.84-1.75,3.14-2.75,6.94-7.5,6.94,2.05,2.15,4.25,2.1,6.64-.1,2.81-2.6,4.12-5.96,4.49-9.88,2.48,4.5,2.47,4.48-1.76,8.11-.27.23-.26.83-.29,1.27-.09,1.17-.03,2.36-.22,3.51-.22,1.3-.64,2.56-.97,3.84.33.15.66.29.99.44,2.24-3.61,4.48-7.22,6.71-10.81,1,.41,2.19.9,3.38,1.39-.73-3.01-2.34-5.25-4.45-7.01Z" style="stroke-width:0px;"/><path d="M90.89,155.39s0,.04.02.06c0-.02,0-.03,0-.05,0,0-.02,0-.03,0Z" style="stroke-width:0px;"/><path d="M90.92,155.4s0,.03,0,.05h0s0-.04,0-.05h0Z" style="stroke-width:0px;"/><path d="M86.44,148.36c2.1,1.76,3.72,4,4.45,7.03h0c-.73-3.03-2.34-5.27-4.45-7.03Z" style="stroke-width:0px;"/><path d="M90.91,155.45l.04-.04s-.02,0-.03,0c0,0,0,.03,0,.05Z" style="stroke-width:0px;"/><path d="M212.72,89.56c-.41-2.59-2.61-4.74-5.43-5.19-2.23-.36-4.2.12-5.51,2.47.91.34,1.7.63,2.49.92,3.37,1.24,5.74,3.06,6.06,7.16.27,3.57,1.64,6.97,4.17,10.05,2.43-2.74,1.42-5.6,1.19-8.67,2.17.61,4.07,1.15,6.05,1.71-2.02,2.36-3.87,4.54-5.73,6.71.24.3.47.59.71.89,1.24-.47,2.47-.94,3.8-1.44.29.33.72.82,1.16,1.32,1.7-1.79,2.95-7,2.14-8.48-1.14-2.07-4.77-3.39-7.77-2.82-.15.03-.3.11-.45.14-1.62.29-2.82-.74-2.84-2.43,0-.78.08-1.58-.04-2.34Z" style="stroke-width:0px;"/><path d="M29.36,207.93v-2.83c3.43-.26,6.83-.43,9.9-3.48-2.09-.18-3.51-.3-4.83-.41,1.22-1.81,2.43-3.6,3.64-5.39-.22-.17-.45-.35-.67-.52-3.89,1.49-6.5,4.46-8.6,8.29-2.27-3.85-4.26-7.47-8.56-9.09-.38,5.29,4.5,12.31,9.12,13.43Z" style="stroke-width:0px;"/><path d="M122.63,133.59c-.42,2.36.27,4.37,2.21,5.82,1.63,1.21,3.38,1.52,5.4.2-1.94-1.56-3.92-3.1-2.75-5.9.68-1.62,2.06-2.19,3.61-2.13.42,2.42.81,4.69,1.21,6.97.28.14.57.28.85.42.87-.82,2.27-1.53,2.47-2.5.29-1.37.17-3.25-.59-4.35-2.32-3.36-6.25-4.24-10.14-2.71-.49.5-.98.99-1.46,1.49-.27.9-.64,1.78-.81,2.69Z" style="stroke-width:0px;"/><path d="M43.25,182.74c1.9,2.18,4.38,3.75,7.24,3.01,2.18-.57,3.01-3.06,3.64-5.1.49-1.6.39-3.38.56-5.08-.29-.05-.57-.1-.86-.14-2.44,1.98-2.56,4.95-2.79,8.05-1.8-1.54-3.36-2.84-4.88-4.17-1.47-1.29-2.91-2.6-4.54-4.07-1.8,2.17-4.8,2.67-8.15,2.38,1.64,3.12,3.48,3.48,7.59,1.83.73,1.1,1.33,2.3,2.19,3.29Z" style="stroke-width:0px;"/><path d="M129.47,123.21c.72.46,1.33,1.23,1.75,2,1.41,2.57,2.95,4.97,6.45,6.25-1.31-6.45-3.33-12.09-6.37-17.46-.95.69-1.65,1.16-2.31,1.68-2.59,2.08-2.32,5.72.48,7.53Z" style="stroke-width:0px;"/><path d="M196.58,86.63c-3.48-.58-6.8,1.02-7.93,3.32.78,1.37,1.44,2.31,1.87,3.34.84,2.04,1.37,4.25,3.53,5.33.27-.09.54-.19.82-.28-.61-2.4-1.22-4.79-1.96-7.7,3.67.95,7.13,1.85,10.65,2.77-.53-3.7-3.11-6.15-6.98-6.78Z" style="stroke-width:0px;"/><path d="M53.81,160.24c2.49,1.59,5.23,2.33,8.18,1.74.09-.24.19-.48.28-.72-3.23-1.79-6.3-4.04-9.74-5.24-3.76-1.31-8.31,1.34-9.82,5.04-.42,1.04-.37,2.26-.61,3.88,3.17-1.82,5.77-3.26,8.3-4.79,1.2-.72,2.17-.7,3.41.09Z" style="stroke-width:0px;"/><path d="M151.66,125.9c-1.39-1.11-2.69-2.15-3.96-3.17.53-.8,1-1.5,1.57-2.37-4.76.39-9.19.76-13.79,1.14,2.96,4.41,11.8,6.82,16.18,4.4Z" style="stroke-width:0px;"/><path d="M61.39,169.05c-3-2.05-3.77-2.8-5.4-6.3-.17-.37-.51-.67-1.11-1.45-.42,1.99-.73,3.48-1.03,4.92-.66.18-1.31.35-2.3.62,1.66,2.55,3.16,4.84,4.88,7.48.39-1.69.71-3.03,1.03-4.41q5.78,3.45,8.04,2.89c-1.53-1.42-2.69-2.77-4.11-3.75Z" style="stroke-width:0px;"/><path d="M66.51,171.64c.38,3.1,3.15,5.14,6.24,4.57,2.41-.45,3.61-1.97,3.22-4.08-4.83.55-5.61-.26-5.2-5.66-2.9.34-4.59,2.47-4.26,5.17Z" style="stroke-width:0px;"/><path d="M223.47,89.27c-2.78-1.95-5.66-2.12-8.39-.2,3.83,2.63,7.52,5.17,11.34,7.79.83-3.17-.24-5.69-2.95-7.59Z" style="stroke-width:0px;"/><path d="M104.21,137.26c1.57.94,2.66,1.59,3.76,2.24-.19,1.99-.37,3.97-.56,5.95.32.11.65.23.97.34,1.03-1.89,2.06-3.77,3.1-5.67,1.47-.17,2.99-.35,4.52-.53.03-.22.06-.44.08-.65-2.14-1.18-5.01-1.74-4.55-5.49-1.22,3.67-4.42,2.86-7.32,3.81Z" style="stroke-width:0px;"/><path d="M17.42,219.72c3.33-2.42,2.25-6.71,4.35-9.56-2.47-2.3-7.41-3.24-10.68-1.24,2.31.86,4.62,1.72,6.98,2.6-.61,2.6-1.93,5.22-.65,8.2Z" style="stroke-width:0px;"/><path d="M146.98,101.08c-.51.92-1.31,1.8-1.49,2.78-.57,3.16-1.77,5.48-5.47,5.39-.02,0-.04,0-.05.04-.05.07-.11.22-.17.31.3.32.62.62.96.88.03.03.07.05.1.07.24.18.48.33.74.48.19.11.39.21.59.3.15.07.3.13.45.2.5.19,1.02.34,1.55.44.07,0,.14.03.21.04.41.06.83.1,1.26.1,1.36,0,2.78-.31,4.14-.96-.93-.66-1.72-1.22-2.45-1.74.21-2.86.41-5.49.6-8.13-.32-.06-.65-.13-.97-.2Z" style="stroke-width:0px;"/><path d="M144.41,112.01c-.07,0-.14-.02-.21-.04.07,0,.14.03.21.04Z" style="stroke-width:0px;"/><path d="M139.8,109.6c.05-.09.11-.24.17-.31-.06.07-.11.22-.17.31.29.32.62.62.96.88-.34-.26-.66-.55-.96-.88Z" style="stroke-width:0px;"/><path d="M142.65,111.54c-.15-.06-.31-.13-.45-.2.14.07.29.14.45.2Z" style="stroke-width:0px;"/><path d="M141.6,111.04c-.26-.15-.5-.31-.74-.48.24.17.49.33.74.48Z" style="stroke-width:0px;"/><path d="M27.25,237.14c-.56.37-1.13.76-1.67,1.12-.72-.91-1.38-1.75-2.25-2.84-1.05,3.51-1.86,6.21-2.78,9.31,2.43-.78,4.82-1.19,6.83-2.3,2.17-1.18,1.96-3.8-.13-5.29Z" style="stroke-width:0px;"/><path d="M134.89,104.11c-2.65.86-4.2,2.88-4.21,6.25,3.88-1.35,7.42-2.59,11.11-3.87-1.82-2.57-4.18-3.26-6.9-2.38Z" style="stroke-width:0px;"/><path d="M210.74,109.99c-.37-4.1-5.22-7.57-9.25-6.61.45,4.19,5.24,7.62,9.25,6.61Z" style="stroke-width:0px;"/><path d="M113.45,130.89c.95.42,1.87,1.2,2.72,1.14,2.44-.19,4.86-.72,7.28-1.12.49-.5.98-.99,1.46-1.49-3.06-3-8.72-2.39-11.46,1.47Z" style="stroke-width:0px;"/><path d="M156.53,119.58c-1.87-3.93-6.7-5.47-10-3.31,1.57,3.79,6.39,5.45,10,3.31Z" style="stroke-width:0px;"/><path d="M133.97,111.77c-1.25,2.5-.45,4.38,1.19,5.91,1.49,1.4,3.25,2.09,5.45.83-1.03-3.45-3.11-5.63-6.64-6.74Z" style="stroke-width:0px;"/><path d="M55.77,185.76c2.74.65,5.21-.41,6.9-2.88,1.46-2.14,1.61-3.99.62-5.44-2.44,2.71-4.93,5.47-7.52,8.32Z" style="stroke-width:0px;"/><path d="M112.89,133.24c-.74-4.7-2.79-8.6-6.86-11.28.24,2.41.97,4.53,2.12,6.39,1.17,1.88,2.77,3.5,4.74,4.89Z" style="stroke-width:0px;"/><path d="M105.99,121.93s.03.02.04.03c0-.02,0-.03,0-.05,0,.01-.02.01-.03.02Z" style="stroke-width:0px;"/><path d="M106.03,121.96h0s0-.03,0-.05h0s0,.03,0,.05Z" style="stroke-width:0px;"/><path d="M106.02,121.9h0l-.03.03s.02,0,.04,0c0-.01,0-.02,0-.02Z" style="stroke-width:0px;"/><path d="M38.29,193.63c-1.7-4.21-4.56-7.22-8.89-8.7,1.6,4.29,4.6,7.15,8.89,8.7Z" style="stroke-width:0px;"/><path d="M124.97,127.23c.88-.41,1.59-1.93,1.73-3.04.23-1.81-1.89-4.33-2.99-3.81-.92.44-1.41,1.75-1.7,2.15.04,2.67,1.84,5.22,2.96,4.7Z" style="stroke-width:0px;"/><path d="M176.33,112.76c-.29-.8-.75-1.58-1.34-2.3-.3-.36-.62-.7-.98-1.03-1.76-1.62-4.19-2.8-6.62-3.06,1.46,3.64,5.82,6.76,8.94,6.39Z" style="stroke-width:0px;"/><path d="M174.01,109.43c-1.76-1.62-4.2-2.8-6.62-3.06h0c2.43.26,4.86,1.44,6.62,3.06Z" style="stroke-width:0px;"/><polygon points="167.34 106.36 167.37 106.32 167.34 106.36 167.34 106.36" style="stroke-width:0px;"/><path d="M167.39,106.37s-.02-.03-.02-.05c0,0-.02.03-.03.04.02,0,.03.01.05.01Z" style="stroke-width:0px;"/><path d="M174.99,110.46c-.3-.36-.62-.7-.98-1.03.36.33.69.67.98,1.03Z" style="stroke-width:0px;"/><path d="M172.21,115.82c-.03,1.81,1.68,2.36,3.09,2.44,2.02-.05,4.17-1.76,3.52-2.59-.77-.99-2.37-1.8-3.61-1.81-1.06,0-2.99,1.24-3,1.96Z" style="stroke-width:0px;"/><path d="M25.75,186.2c-1.42,3.6-.5,8.46,1.84,10.43,1.47-2.99.65-7.93-1.84-10.43Z" style="stroke-width:0px;"/><path d="M98.16,132.04c2.71,2.04,7.06,2.15,9.98.12-3.15-2.05-7.57-2.05-9.98-.12Z" style="stroke-width:0px;"/><path d="M29.84,182.71c2.46,2.38,6.8,3.03,9.64,1.45-2.16-2.43-7.1-3.17-9.64-1.45Z" style="stroke-width:0px;"/><path d="M167.34,106.36h0c.32-1.63.79-3.27.82-4.92.02-1.28-.22-2.57-1.02-3.86-2.41,2.7-2.8,7.04-.69,10.21.33-.54.61-.98.89-1.43h0Z" style="stroke-width:0px;"/><path d="M167.34,106.36s.02-.03.03-.04c0,0-.03.04-.03.04h0Z" style="stroke-width:0px;"/><path d="M15.66,238.3c1.06-2.76-.42-6.61-3.47-8.74-.96,3.04.65,6.96,3.47,8.74Z" style="stroke-width:0px;"/><path d="M22.94,213.24c-2.14,2.62-2.88,5.51-2.06,9.17,3.08-2.66,4.05-7.48,2.06-9.17Z" style="stroke-width:0px;"/><path d="M18.01,204.25c.79-.22,1.19-1.86,1.74-2.88.14-.26.22-.55.33-.82-2.75-1.21-5.11-.41-6.57,2.3.46.17.74.29,1.03.39,1.17.39,2.48,1.28,3.47,1.01Z" style="stroke-width:0px;"/><path d="M50.96,177.17c-.15-3.24-2.3-5.91-5.21-6.47-.25,3.08,2.22,6.15,5.21,6.47Z" style="stroke-width:0px;"/><path d="M206.81,99.87c-.98-2.87-4.14-4.3-6.73-3.05,1.59,2.76,3.96,3.83,6.73,3.05Z" style="stroke-width:0px;"/><path d="M199.71,107.77c.12-2.93-1.81-5.15-4.69-5.4-.07,3,1.81,5.18,4.69,5.4Z" style="stroke-width:0px;"/><path d="M150.74,81.95v9.75h.62v-9.75h-.62Z" style="stroke-width:0px;"/><polygon points="334.91 188.51 334.95 188.54 334.91 188.51 334.9 188.52 334.91 188.52 334.91 188.51" style="stroke-width:0px;"/><path d="M334.91,188.52s.03.02.04.03l-.04-.03s0,0,0,0Z" style="stroke-width:0px;"/><path d="M334.91,188.52s0,0,0,0c-1.19.85-1.45,1.99-1.48,3.31.02-1.33.28-2.46,1.48-3.31Z" style="stroke-width:0px;"/><path d="M40.23,220.12c.2-.38.4-.76.62-1.12-.22.36-.43.74-.62,1.12Z" style="stroke-width:0px;"/><path d="M101.66,218.65c.41.1.82.21,1.22.35-.4-.14-.81-.26-1.22-.35Z" style="stroke-width:0px;"/><path d="M232.38,236.07c-2.25-2.98-5.1-5.07-9.12-5.43h0c4.02.37,6.86,2.46,9.12,5.43Z" style="stroke-width:0px;"/><path d="M223.49,120.05s.07.07.1.11c-.02-.05-.04-.1-.06-.14,0,0-.01,0-.02.02h-.02Z" style="stroke-width:0px;"/><path d="M237.95,114.99c-.18,1.01-.36,2.01-.63,3.5.27-1.48.45-2.49.63-3.5h0Z" style="stroke-width:0px;"/><path d="M274.43,36.55c-19.54-11.81-40.17-20.77-63.13-23.45-8.49-.99-16.95-.91-25.37.65,1.1.16,2.2.06,3.28.18,7.96.86,16.03,1.15,23.84,2.76,28.18,5.81,52.99,19.08,75.62,36.35,22.56,17.22,40.1,39.09,55.36,62.86.4.63.84,1.24,1.25,1.86.11-.06.22-.12.33-.17-.28-.69-.52-1.41-.85-2.08-16.11-32.83-38.77-59.88-70.33-78.96Z" style="stroke-width:0px;"/><path d="M184.14,32.45c51.82,11.88,92.54,39.93,125.44,80.15-23.35-44.22-80.28-79.56-125.44-80.15Z" style="stroke-width:0px;"/><path d="M330.07,165.24c3.79-3.61,6.31-7.88,6.77-13.17-3.21,3.94-5.49,8.31-6.77,13.17Z" style="stroke-width:0px;"/><path d="M340.81,163.99c-3.63,3.5-6.42,7.53-7.87,12.4,3.9-3.3,6.7-7.32,7.87-12.4Z" style="stroke-width:0px;"/><path d="M330.83,140.3c-1.64,4.87-3.11,9.24-4.58,13.62,3.62-2.28,6.13-9.8,4.58-13.62Z" style="stroke-width:0px;"/><path d="M343.01,176.34c-3.6,3.43-7.12,6.91-8.04,12.12,3.63-3.41,6.58-7.27,8.04-12.12Z" style="stroke-width:0px;"/><path d="M334.97,188.45s-.04.04-.05.05l.04.04s0-.05,0-.09Z" style="stroke-width:0px;"/><path d="M322.62,143.42c2.77-3.47,3.24-9.36,1.09-12.72-.37,4.35-.71,8.31-1.09,12.72Z" style="stroke-width:0px;"/><path d="M336.98,199.1c.22.12.44.24.66.36,2.12-3.44,4.24-6.87,6.36-10.31-.22-.14-.44-.27-.66-.41-3.18,2.8-5.51,6.12-6.36,10.36Z" style="stroke-width:0px;"/><path d="M338.16,209.46l.66.24c1.04-2.55,2.09-5.1,3.13-7.65-.3-.13-.6-.26-.9-.39-.97,2.6-1.93,5.2-2.89,7.8Z" style="stroke-width:0px;"/><path d="M316.71,124.2c.6,2.48,1.2,4.95,1.8,7.43.27-.07.54-.14.81-.21-.59-2.48-1.18-4.95-1.77-7.43-.27.08-.56.15-.84.21Z" style="stroke-width:0px;"/><path d="M199.14,152.35c-1.54,5.24-1.39,10.43.68,15.54.76-5.23,1.1-10.43-.68-15.54Z" style="stroke-width:0px;"/><path d="M217.65,168.41c-.66,5.37.57,10.28,3.48,14.75-.1-5.2-1.07-10.16-3.48-14.75Z" style="stroke-width:0px;"/><path d="M190.57,143.7c-1.95,4.17-1.78,12.88.23,15.08.92-5.18,1.1-10.13-.23-15.08Z" style="stroke-width:0px;"/><path d="M208.09,160.77c-1.16,5.34-.54,10.43,1.98,15.27.47-5.25-.04-10.35-1.98-15.27Z" style="stroke-width:0px;"/><path d="M182.15,134.33c-1.68,3.64-1.97,11.35-.45,15.06,1.66-3.92,1.87-12.7.45-15.06Z" style="stroke-width:0px;"/><path d="M227.94,175.34c-.18,5.27,1.48,9.9,4.83,13.9-.65-5-2.22-9.64-4.83-13.9Z" style="stroke-width:0px;"/><path d="M245.34,193.9c-2.03-4.25-4.07-8.5-6.1-12.76-.31.13-.63.25-.94.38.79,4.9,2.7,9.23,6.11,12.83.31-.15.62-.3.93-.45Z" style="stroke-width:0px;"/><path d="M258.06,198.46c-2.88-4.39-5.4-8.25-7.92-12.1-.09,4.4,4.08,10.68,7.92,12.1Z" style="stroke-width:0px;"/><path d="M270.07,201.38c-.51-2.28-3.53-3.29-1.3-6.04-4.31,1.21-4.86-2.99-7.94-4.27,1.97,4.67,4.84,7.83,9.24,10.31Z" style="stroke-width:0px;"/><path d="M282.42,202.61c.11-.18.21-.37.32-.55-3.07-2.32-6.15-4.65-9.22-6.97-.15.2-.3.41-.45.61,2.43,3.21,5.43,5.67,9.35,6.91Z" style="stroke-width:0px;"/><path d="M285.52,198.06c2.57,2.83,5.8,4.12,9.55,4.16-3.18-1.39-6.37-2.78-9.55-4.16Z" style="stroke-width:0px;"/><path d="M50.86,231.19c3.53.88,7.06,1.75,10.59,2.63.05-.21.11-.43.16-.64-3.24-2-6.79-2.8-10.59-2.68-.05.22-.11.46-.16.69Z" style="stroke-width:0px;"/><path d="M229.4,114.58c-.12.61.56,1.38.88,2.07.25.02.5.03.75.05.41-.82,1.09-1.63,1.13-2.47.03-.58-.84-1.19-1.31-1.79-.51.71-1.3,1.37-1.45,2.14Z" style="stroke-width:0px;"/></svg>