<?xml version="1.0" encoding="UTF-8"?><svg id="Layer_1" xmlns="http://www.w3.org/2000/svg" viewBox="0 0 479.43 151.8"><path d="M0,27.97c.68-.46.56-1.22.71-1.88C3.94,11.59,17.53,2.66,32.24,5.38c13.7,2.53,23.12,15.94,21.29,30.12-2.09,16.19-11.64,27.25-24.58,36.05-1.54,1.05-3,.75-4.44-.24C12.2,62.78,2.91,52.18.5,36.8.44,36.43.17,36.09,0,35.74c0-2.59,0-5.18,0-7.77ZM4.09,34.65c.77,13.27,9.54,24.18,21.85,32.92.99.7,1.67.25,2.41-.28,10.95-7.91,19.18-17.65,21.25-31.53,2.03-13.6-7.54-26-20.83-26.96-13.61-.98-24.77,9.55-24.68,25.84Z" style="stroke-width:0px;"/><path d="M479.43,28.55c-.05,12.95-7.14,23.42-17.05,32.42-2.28,2.07-4.89,3.77-7.37,5.6-1.34.99-2.74,1.07-4.17.11-12.58-8.53-21.97-19.29-24.47-34.86-2.38-14.8,6.88-28.49,21.18-31.29,14.34-2.81,27.92,5.91,31.39,20.1.56,2.28.21,4.56.48,7.92ZM430.07,30.4c.72,12.68,9.51,23.48,21.66,32.22.91.65,1.61.46,2.41-.12,11.2-8.12,19.63-18.03,21.44-32.36,1.67-13.21-7.93-25.41-20.73-26.17-14.11-.83-24.98,9.41-24.78,26.43Z" style="stroke-width:0px;"/><path d="M459.6,81.7c-.01,3.84-3,6.75-6.85,6.69-3.67-.05-6.65-2.99-6.72-6.61-.07-3.66,3.1-6.9,6.79-6.93,3.74-.03,6.8,3.06,6.79,6.84ZM455.67,81.6c-.12-1.74-1.13-2.8-2.81-2.78-1.81.03-2.96,1.16-2.85,3.04.1,1.72,1.26,2.7,2.96,2.63,1.7-.07,2.66-1.12,2.71-2.9Z" style="stroke-width:0px;"/><path d="M26.97,79.85c3.85.01,6.77,2.99,6.7,6.84-.06,3.71-2.93,6.58-6.64,6.64-3.8.06-6.85-2.92-6.87-6.72-.02-3.82,2.95-6.77,6.8-6.75ZM29.84,86.58c-.2-1.69-1.1-2.81-2.82-2.86-1.72-.05-2.87,1-2.95,2.68-.09,1.85,1.09,3.01,2.92,3.01,1.7,0,2.63-1.15,2.85-2.84Z" style="stroke-width:0px;"/><path d="M109.14,137.8c-5.8-2.11-11.82-4.42-17.57-7.35-1.08-.55-1.35-1.75-.8-2.86.59-1.19,1.62-1.79,2.96-1.25,5.7,2.3,11.39,4.62,17.06,7,1.19.5,1.88,1.49,1.43,2.88-.43,1.35-1.45,1.8-3.08,1.58Z" style="stroke-width:0px;"/><path d="M251.68,117.72c1.06.06,1.82.52,2.19,1.41.41.99.33,2.04-.58,2.72-5.21,3.87-10.78,7.17-16.66,9.92-1.07.5-2.22.08-2.77-1.1-.51-1.09-.47-2.33.63-2.93,5.59-3.07,11.08-6.3,16.4-9.82.23-.15.57-.15.79-.2Z" style="stroke-width:0px;"/><path d="M266.09,110.32c-1.23.02-1.95-.41-2.45-1.25-.52-.88-.45-1.76.18-2.49,3.96-4.6,7.47-9.5,10.19-14.96.58-1.17,1.73-1.66,3.03-.95,1.18.65,1.75,1.65,1.16,2.97-2.64,5.96-6.35,11.2-10.79,15.93-.38.4-1,.58-1.32.76Z" style="stroke-width:0px;"/><path d="M78.76,120.06c-.06,1.82-1.78,2.96-3.48,2.05-5.54-2.96-10.87-6.28-16.05-9.83-1.11-.76-1.36-1.96-.51-3.15.83-1.17,2.01-1.37,3.16-.68,5.29,3.19,10.55,6.44,15.81,9.68.73.45,1.02,1.19,1.07,1.93Z" style="stroke-width:0px;"/><path d="M282.75,71.26c0,1.29.08,2.58-.02,3.86-.11,1.4-1.07,2.18-2.39,2.13-1.31-.05-2.26-.84-2.23-2.28.12-5.89-.72-11.64-2.47-17.26-.45-1.43-.05-2.64,1.39-3.16,1.66-.59,2.68.4,3.17,1.86,1.62,4.81,2.51,9.77,2.56,14.85Z" style="stroke-width:0px;"/><path d="M201.9,144.4c-1.77.1-2.76-.43-3.02-1.84-.25-1.36.34-2.38,1.7-2.73,5.88-1.52,11.73-3.14,17.45-5.18,1.31-.47,2.43.05,2.93,1.34.48,1.24.19,2.47-1.15,3-5.93,2.35-12.09,3.98-17.91,5.41Z" style="stroke-width:0px;"/><path d="M144.64,146.75c-5.52-.86-11.3-1.88-16.99-3.36-1.55-.4-2.61-1.26-2.19-2.95.41-1.65,1.75-2.09,3.3-1.69,5.6,1.43,11.29,2.42,16.99,3.35,1.64.27,2.63,1.08,2.36,2.78-.28,1.75-1.62,2.08-3.46,1.88Z" style="stroke-width:0px;"/><path d="M172.09,148.35c-2.3,0-4.69.04-7.08-.01-1.65-.03-3.09-.62-2.99-2.54.09-1.68,1.4-2.29,2.96-2.29,5.68,0,11.37-.04,17.03-.67,1.55-.17,2.88.26,3.08,2.02.22,1.95-1.05,2.58-2.77,2.71-3.38.24-6.76.52-10.23.79Z" style="stroke-width:0px;"/><path d="M254.19,36.1c5.02,0,9.35.94,13.28,3.36,1.33.81,2.67,1.77,1.72,3.55-.99,1.86-2.53,1.57-4.08.63-4.48-2.76-9.38-3.16-14.43-2.38-1.8.28-3.34.11-3.64-1.96-.28-1.95,1.24-2.54,2.81-2.77,1.58-.23,3.18-.32,4.33-.43Z" style="stroke-width:0px;"/><path d="M251.89,145.06c-1.53-.49-3.63-1.08-5.68-1.84-3.54-1.31-7.05-2.7-10.56-4.1-1.48-.59-2.31-1.68-1.62-3.28.61-1.44,1.92-1.76,3.26-1.18,5.22,2.23,10.54,4.15,15.96,5.84,1.25.39,2.09,1.28,1.83,2.68-.25,1.35-1.19,2-3.19,1.89Z" style="stroke-width:0px;"/><path d="M309.73,151.7c-1.49,0-2.99.03-4.48,0-1.43-.04-2.27-.9-2.3-2.24-.03-1.33.8-2.29,2.18-2.4,5.85-.45,11.7-.87,17.56-1.23,1.51-.09,2.5.75,2.57,2.28.07,1.4-.79,2.24-2.16,2.38-4.45.47-8.91.88-13.36,1.31,0-.03-.01-.06-.02-.09Z" style="stroke-width:0px;"/><path d="M195.76,106.06c-.28,1.15-.77,1.81-1.69,2.2-.99.41-1.83.06-2.44-.61-4.12-4.48-7.76-9.32-10.81-14.58-.71-1.22-.41-2.37.73-3.13,1.01-.67,2.28-.69,2.96.34,3.34,5.07,6.94,9.92,10.82,14.59.29.35.34.9.44,1.18Z" style="stroke-width:0px;"/><path d="M406.47,122.57c-1.2-.07-2.06-.5-2.39-1.6-.36-1.2.08-2.14,1.12-2.81,2.76-1.77,5.56-3.49,8.3-5.29,2.08-1.36,4.08-2.84,6.15-4.22,1.29-.86,2.47-.63,3.37.63.87,1.22.46,2.36-.58,3.15-4.77,3.59-9.75,6.87-14.94,9.84-.33.19-.76.22-1.04.3Z" style="stroke-width:0px;"/><path d="M340.9,147.74c-1.31.03-2.38-.43-2.72-1.79-.39-1.56.5-2.52,1.91-2.88,5.59-1.41,11.2-2.76,16.81-4.12,1.51-.36,2.59.25,3.01,1.69.4,1.38-.34,2.38-1.62,2.78-5.7,1.79-11.52,3.13-17.4,4.31Z" style="stroke-width:0px;"/><path d="M235.43,47.55c-.14.33-.23.99-.6,1.38-1.99,2.09-3.64,4.42-5.29,6.78-1.15,1.64-2.82,1.51-4.01,0-1.68-2.1-3.49-4.05-5.41-5.91-1.15-1.12-1.33-2.45-.13-3.66,1.16-1.16,2.36-.72,3.44.22,1.34,1.17,2.67,3.34,3.95,3.3,1.25-.04,2.43-2.32,3.66-3.59.8-.83,1.72-1.33,2.93-.82.92.39,1.4,1.06,1.48,2.29Z" style="stroke-width:0px;"/><path d="M286.5,151.36c-5.35-.46-10.68-1.05-15.97-1.99-1.66-.3-2.99-.88-2.76-2.78.27-2.18,1.99-2.21,3.65-1.93,5.1.85,10.22,1.53,15.38,1.86,1.7.11,3.33.67,3.06,2.79-.23,1.85-1.72,2.23-3.37,2.05Z" style="stroke-width:0px;"/><path d="M375.2,137.86c-1.81.04-2.7-.47-2.99-1.72-.31-1.37.32-2.32,1.57-2.85,3.57-1.5,7.16-2.96,10.73-4.46,1.83-.77,3.61-1.66,5.45-2.42,1.21-.49,2.17.07,2.78,1.1.56.94.54,2.14-.39,2.7-5.56,3.32-11.67,5.42-17.15,7.66Z" style="stroke-width:0px;"/><path d="M177.9,55.96c1.59.23,2.61,1.25,2,3.03-1.79,5.27-2.49,10.58-1.45,16.1.28,1.48-.52,2.61-2,2.81-1.49.21-2.38-.69-2.66-2.19-1.17-6.19-.67-12.23,1.65-18.11.4-1.02,1.11-1.62,2.47-1.65Z" style="stroke-width:0px;"/><path d="M205.76,115.95c1.12-.08,1.75.41,2.37.91,4.11,3.3,8.37,6.38,12.84,9.18,1.37.86,2.52,1.95,1.51,3.62-1.08,1.8-2.64,1.33-4.13.39-4.64-2.9-9.07-6.09-13.31-9.54-1.03-.84-1.57-1.82-1.1-3.11.33-.91,1.08-1.38,1.82-1.46Z" style="stroke-width:0px;"/><path d="M203.15,42.89c-4.36.04-8.43,1.12-12.19,3.35-1.46.87-3.07,1.53-4.17-.28-1.21-1.99.31-3.06,1.86-3.95,4.85-2.78,10.06-4.13,15.68-3.85,1.8.09,3.61.22,3.52,2.58-.08,2.22-1.84,2.22-3.51,2.15-.4-.02-.79,0-1.19,0Z" style="stroke-width:0px;"/><path d="M434.91,101.69c-.91-.02-1.65-.33-2.06-1.07-.52-.94-.56-1.98.22-2.76,2.23-2.24,4.5-4.46,6.85-6.58.9-.82,2.05-.7,2.97.15.81.76,1.1,1.86.47,2.7-2.14,2.85-4.74,5.27-7.64,7.35-.22.16-.57.16-.79.22Z" style="stroke-width:0px;"/><path d="M45.02,101.96c-.27-.13-.86-.3-1.32-.65-2.21-1.69-4.39-3.4-6.56-5.14-1.15-.92-1.57-2.11-.65-3.38.92-1.28,2.28-1.29,3.43-.45,2.41,1.75,4.72,3.63,7.03,5.51.94.77,1.21,1.81.59,2.93-.47.84-1.22,1.29-2.52,1.17Z" style="stroke-width:0px;"/><path d="M26.97,17.26c8.5.01,15.44,6.93,15.43,15.38-.01,8.38-7.11,15.44-15.49,15.39-8.45-.04-15.42-7.04-15.4-15.46.02-8.47,6.94-15.32,15.47-15.31ZM26.89,21.18c-6.5.02-11.51,5.11-11.43,11.61.07,6.23,5.29,11.37,11.52,11.33,6.35-.03,11.55-5.34,11.47-11.71-.08-6.28-5.19-11.25-11.55-11.23Z" style="stroke-width:0px;"/><path d="M453.03,12.41c8.5.05,15.36,7.01,15.26,15.49-.11,8.47-7.12,15.28-15.62,15.15-8.61-.12-15.24-6.89-15.19-15.51.05-8.52,6.89-15.18,15.54-15.13ZM441.41,27.81c.04,6.29,5.14,11.41,11.4,11.43,6.31.02,11.67-5.34,11.61-11.61-.06-6.33-5.41-11.49-11.79-11.38-6.32.11-11.25,5.2-11.21,11.56Z" style="stroke-width:0px;"/></svg>