<?xml version="1.0" encoding="UTF-8"?><svg id="Layer_1" xmlns="http://www.w3.org/2000/svg" viewBox="0 0 312.74 388.7"><path d="M251.02,130.79c1.4,2.86,2.8,5.72,4.45,9.11,1.62-1.26,3.53-2.53,5.17-4.1,2.47-2.36,5.06-4.37,8.61-4.65,1.6-.13,3.6-.5,4.15,1.5.51,1.85-.79,3.27-2.48,4.01-2.75,1.22-5.63,2.16-8.29,3.52-1.16.59-2.55,1.86-2.68,2.97-.1.85,1.43,2.16,2.5,2.86,2.15,1.41,4.7,2.26,5.79,4.98.15.37,1.26.5,1.92.51,3,.02,6.03-.26,9.01-.03,4.9.39,7.19,2.93,7.51,7.91.1,1.62.04,3.26.05,4.88.01,1.52,0,3.05,0,4.64,2.29-.13,4.38-.36,6.47-.33,1.09.02,2.3.27,3.25.79,2.17,1.19,2.37,3.48.16,4.57-2.41,1.19-5.15,1.93-7.82,2.3-3.45.48-7,.18-10.46.62-2.21.28-4.33,1.3-6.49,1.98.03.35.06.71.1,1.06.93.29,1.87.58,2.8.87,3.17.99,6.44,1.76,9.49,3.04,4.76,1.99,7.52,5.9,8.69,10.8.32,1.33.13,3.67-.67,4.17-1.3.8-3.62,1.1-4.94.45-1.93-.95-3.5-2.8-4.95-4.5-2.74-3.21-5.08-6.79-7.98-9.84-3.38-3.57-7.43-2.45-9.28,2.2-.81,2.05-.32,3.58,1.5,4.85,4.5,3.14,8.97,6.33,13.43,9.55.55.4.91,1.07,1.1,2.04-1.29-.47-2.57-.97-3.87-1.4-4.67-1.55-7.55.56-7.28,5.58.28,5.27,1.18,10.53,1.24,15.8.1,10.33-.09,20.67-.37,31-.19,7.08-.81,14.14-1.1,21.22-.21,4.98,1.17,6.66,5.93,8.11,6.45,1.96,13.07,3.5,19.26,6.1,8.77,3.69,15.27,9.9,17.35,19.69,1.02,4.8.3,9.59-2.1,13.72-3.14,5.38-6.64,10.62-10.58,15.43-8.99,10.98-19.34,20.44-32.3,26.71-11.2,5.42-23.01,9.01-35.11,11.58-16.21,3.44-32.45,6.77-48.78,9.55-15.07,2.56-30.34,2.66-45.51.92-11.62-1.33-23.12-3.56-34.72-5.12-2.98-.4-6.16-.08-9.15.45-4.92.87-8.65-.55-11.09-4.9-.31-.55-.24-1.4-.13-2.08,1.13-7.42.46-14.78-.91-22.06-.6-3.2-2.51-5.86-5.85-7.53.14.7.18,1.43.42,2.08,2.15,5.69,2.17,11.64,2.07,17.58-.04,2.22-1.25,3.61-3.43,4.15-.84.21-1.65.51-2.83.88,1.44.81,2.53,1.43,3.63,2.05-.05.2-.09.4-.14.6-5.52-1.03-11.06-1.97-16.56-3.12-10.21-2.14-18.67-7.81-27-13.69-4.86-3.44-9.74-6.99-15.71-8.07-3.88-.71-7.91-.55-11.86-.96-1.52-.16-2.99-.85-4.48-1.29.63-1.43,1.17-2.91,1.93-4.26.42-.76,1.22-1.3,1.82-1.96,2.05-2.25,1.67-4.4-.94-6.02-.65-.41-1.42-1.16-1.51-1.84-.55-4.11-.89-8.24-1.34-12.36-.82-7.5,2.19-13.25,8.37-17.21,3.47-2.22,7.39-3.74,11.04-5.68,3.72-1.99,7.4-4.07,11.04-6.21,1.29-.76,2.41-1.8,3.61-2.72-.22-.36-.45-.71-.67-1.07-1.34,0-2.67.03-4.01-.01-5.11-.13-10.24-.08-15.33-.49-2.61-.21-4.75-1.76-5.26-4.68-.4-2.25.43-3.97,2.43-5.13,3.73-2.16,8.67-1.59,11.7,1.48,1.46,1.48,2.75,3.13,4.22,4.82,1.17-6.45-.75-11.04-5.89-14.44-1.56-1.03-3.25-1.92-4.62-3.17-1.23-1.12-2.33-2.52-3.08-4-.87-1.71-1.08-3.72.47-5.23,1.5-1.46,3.31-.95,5.02-.23.52.22,1.02.46,1.86.83.54-4.52,1.05-8.84,1.56-13.15.18-1.53.29-3.08.54-4.6.08-.47.51-.87.78-1.31.35.35.83.64,1.01,1.07.44,1.04.73,2.13,1.22,3.6.82-1.59,1.46-2.84,2.1-4.1.27-.04.54-.08.81-.12.36,1.44,1.1,2.92,1,4.33-.26,3.62,1.29,6.17,3.8,8.55,4.13,3.91,4.18,5.37,1.37,10.41-1.22,2.19-2.38,4.45-3.25,6.8-1.27,3.42-.5,6.64,1.69,10.08.58-3.02,1.07-5.56,1.57-8.1.16-.8.34-1.59.57-2.37,1.51-5,2.21-5.39,7.4-3.88.18-4.79.52-9.47.51-14.15-.04-19.22-.15-38.44-.34-57.66-.05-5.12-.52-10.24-.73-15.36-.17-4.23,1.33-7.79,4.5-10.64,9.67-8.71,21.27-13.28,33.83-15.78.29-.06.61.04,1.11.52-.89.41-1.76.86-2.66,1.23-4.9,1.96-9.86,3.81-14.71,5.88-4.31,1.84-8.15,4.39-11.03,8.22-3.23,4.3-3.67,8.77-.88,13.41,1.26,2.09,2.73,4.04,4.1,6.06.44.64.86,1.29,1.01,2.18-4.82-2.81-8.05-7.2-11.12-11.75-.23.1-.46.19-.68.29-.07.83-.21,1.65-.21,2.48-.11,23.04-.17,46.08-.34,69.12-.07,9.36-.34,18.72-.64,28.07-.07,2.03-.65,4.04-1,6.05-.23-.01-.46-.02-.69-.03-.28-1.76-.55-3.52-.83-5.29-2.5,4.86-4.42,9.73-3.1,15.28.74,3.09,1.37,6.23-.67,9.15-3.81-2.12-6.07-1.54-6.87,1.98,1.15-.19,2.21-.37,3.27-.55.21.15.41.29.62.44-.65,1.06-1.14,2.28-2.01,3.12-1.03,1-2.51,1.54-3.56,2.54-.67.64-1.42,1.89-1.23,2.62.92,3.49-1.18,5.92-2.87,8.33-.53.77-2.73.99-3.88.6-5.2-1.77-7.38-5.55-6.71-11,.13-1.09.26-2.18.4-3.4-6.9,2.36-13.33,14.61-10.95,21.11,1.94-.58,4.28-.69,5.82-1.86,4.56-3.48,9.22-3.49,14.53-1.26,2.59-3.43,5.17-6.95,7.86-10.39,1.9-2.42,3.73-4.95,5.95-7.05,5.41-5.12,7.47-11.87,9.58-18.64.05-.17-.15-.41-.36-.95-1.02,1.13-1.9,2.11-2.95,3.26-.74-2.35.1-3.96,1.8-4.95,2.23-1.3,4.62-2.35,6.98-3.4,2.3-1.03,4.63-1.97,6.99-2.85.58-.21,1.44-.25,1.95.04,2.64,1.46,5.45,2.37,6.11,6.31.49,2.95,1.97,5.76,1.82,8.95-.05,1.05.46,2.21.97,3.19,1.23,2.37,1.12,2.9-1.28,4.18-.76.41-1.51.85-2.84,1.59,2.28.97,4,1.78,5.78,2.39.36.12,1.12-.37,1.44-.79.49-.63.83-1.4,1.11-2.16,2.85-7.82,9.28-9.62,16.6-9.79,2.56-.06,3.49,1.28,2.96,3.8-.05.24-.12.48-.23.69-2.17,4.24-1.97,8.18,1.11,12.01.72.9.61,2.47.97,4.15-1.57-1.39-2.53-2.92-3.68-3.07-1.37-.19-2.96.67-4.34,1.31-5.97,2.73-8.66,7.83-9.8,13.97-.15.82-.02,1.7-.02,2.55.26.07.53.14.79.21.47-1.15.95-2.3,1.41-3.44,1.29,3.17.78,5.88-1.71,8.48-.9.94-1.93,1.75-2.92,2.59-2.66,2.25-2.73,3.42-.26,6.32.67-.33,1.36-.68,2.13-1.06.5.85.93,1.58,1.69,2.88.52-2.09.96-3.62,1.27-5.17s.51-3.12.81-5.04c.83,1.07,1.39,1.8,2.43,3.14.71-2.45,1.31-4.31,1.78-6.2.86-3.47,1.42-7.02,2.51-10.41,1.15-3.57,2.57-3.68,6.2-3.9,2.7-.16,5.3-1.86,7.95-2.88,0-.31-.02-.61-.03-.92-1.32-1.1-2.65-2.2-3.97-3.3.09-.25.18-.49.27-.74,1.26.4,2.79.46,3.75,1.24,5.63,4.59,11.41,9.14,12.01,17.25.19,2.55,2.87,2.01,4.07,3.3-1.63.07-2.37.7-1.84,2.47,1.31,4.37.71,8.51-1.66,12.42-.37.61-.55,1.33-.87,2.12,1.15.24,2.19.4,3.2.68,3.74,1.04,6.59,4.31,7.05,7.93.47,3.61-1.31,6.02-4.31,7.46-2.92,1.4-6.02,2.42-9.06,3.54-.37.14-1.08.08-1.3-.18-1.85-2.14-3.79-4.24-5.35-6.59-.63-.94-.39-2.45-.55-3.71.87.19,1.16.47,1.4.79,3.97,5.46,8.96,5.59,14.93,2.66,2.49-1.22,2.9-2.91,1.34-5.19-1.07-1.57-2.42-2.96-3.65-4.43-.32.08-.63.16-.95.24,0,1.64.06,3.27,0,4.91-.11,2.33-1.74,3.51-3.69,3.99-1.9.47-2.69-1.17-3.31-2.61-.48-1.11-.94-2.3-1.05-3.49-.21-2.19-1.34-2.36-2.99-1.63-2.66,1.19-5.38,1.76-8.3,1.1-.7-.16-1.49.08-2.62.17,2.24,4.13,4.26,7.8,7.93,10.25,1.01.67,2.04,1.37,2.92,2.2,1.69,1.6,1.21,3.62-1.02,4.29-.83.25-1.87.42-2.64.14-2.49-.89-4.99-1.84-7.33-3.07-3.83-2-7.54-4.24-11.3-6.37-.23.27-.45.54-.68.81,2.81,4.17,5.62,8.33,8.57,12.72.8-1.08,1.27-1.72,1.4-1.89,3.35,1.97,6.31,4.74,9.74,5.53,9.32,2.14,18.77,4.09,28.27,4.9,9.45.81,19.02.31,28.53.1,8.78-.2,17.62-.21,26.3-1.34,10.93-1.43,21.78-3.64,32.56-6.01,23.22-5.1,44.87-13.75,63.45-29.11,8.94-7.39,16.9-15.52,21.67-26.31,3.2-7.23,2.44-14.04-2.09-20.55-5.42-7.79-13.36-10.8-22.25-12-3.23-.44-6.52-.42-9.96-.62.22,2.33.66,4.05.48,5.71-.28,2.7-.29,5.77-1.61,7.95-3.4,5.62-8.16,10.08-14.21,12.95-6.01,2.85-12.1,5.56-18.02,8.59-10.55,5.4-21.39,10.3-33.23,11.46-8.86.87-17.5,2.36-26.16,4.28-16.99,3.77-34.21,1.42-51.33,1.31-1.34-.01-3.12-1.25-3.91-2.44-1.22-1.83-1.77-4.12-2.6-6.21,2.09,1.04,4.88.96,5.93,3.75.15.39,1.11.59,1.72.67,16.71,2.18,33.42,2.18,50.12-.19,1.62-.23,3.38.53,5.01.32,4.1-.51,8.24-1,12.23-2.04,17.08-4.46,33.92-9.69,49.96-17.14,7.15-3.32,13.46-7.9,18.5-14.08,3.31-4.06,5.13-8.7,5.11-13.92-.02-6.01-.29-12.02-.47-18.43-7.77,3.02-14.84,6.96-22.87,8.11,5.57-2.37,11.17-4.7,16.71-7.13,4.27-1.87,6.6-5.13,6.72-9.87.03-1.06.2-2.11.18-3.17-.26-16.84-.53-33.69-.88-50.53-.02-.77-.7-2.13-1.2-2.2-4.36-.57-7.31-3.35-10.27-6.17-.46-.43-.97-.81-1.89-.95.96,1.91,2.15,3.75,2.8,5.76.57,1.76,1.11,3.89.63,5.55-.93,3.17-4.71,4.31-7.62,2.5-1.76-1.09-3.22-2.67-5.07-4.24-.45.7-1.12,1.41-1.4,2.26-1.03,3.16-3.28,5.17-6,6.78-4.82,2.86-9.63,5.72-14.64,8.69-2.37-3.99-1.78-8.33-.82-12.36-7.86,1.45-15.66,3.36-23.57,4.21-7.87.85-15.8,3.09-23.81.68,10.81-1.67,21.63-3.25,32.42-5.07,2.52-.43,4.97-1.52,7.33-2.58,1.24-.56,2.23-1.69,3.43-3.04-7.05-.24-9.14-5.1-10.56-10.84-.88.74-1.45,1.21-2.36,1.96.55-4.74,4.46-6.6,6.92-9.82-1.13-.48-2.13-.91-3.13-1.34-1.64-.72-3.31-1.36-4.9-2.18-6.23-3.21-7.47-8.23-3.18-13.78,1.52-1.96,3.6-3.49,5.44-5.2.49-.46,1.06-.84,1.41-1.85-1.01-.06-2.02-.09-3.03-.2-6.21-.67-12.43-1.28-18.62-2.1-1.47-.2-2.96-.95-4.23-1.77-2.11-1.34-2.04-3.64.24-4.56,3.32-1.33,6.69-1.96,10.37-.66,4.34,1.53,8.88,2.51,13.34,3.7.94.25,1.91.41,2.86.61,5.01,1.09,7.92,4.13,8.77,9.22.23,1.35.91,2.62,1.38,3.92.98-1.1,2.1-2.1,2.9-3.32,1.89-2.88-.04-5-1.79-7.6-.31,1.28-.51,2.15-.73,3.05-2.32-2.22-2.48-3.86-.56-6.05,1.1-1.26,2.29-2.46,3.36-3.59-3.5-1.27-6.84-2.42-10.11-3.73-.63-.26-1.24-1.09-1.46-1.79-1.73-5.41-3.37-10.86-5.07-16.39,1.8-1.13,3.78-.8,4.93.43,2.81,3.01,6.18,3.68,10.02,3.47-1.75.24-3.5.48-5.38.74,2.78,5.18,5.51,10.24,8.38,15.58,1.72-4.84,3.54-9.97,5.42-15.27-2.44-.69-4.17-1.18-5.83-1.65,2.12-.26,4.39-.53,6.95-.84.27-5.22.76-10.41.76-15.59-.01-10.99-.32-21.98-.43-32.97-.04-3.66.22-7.32.27-10.98.03-2.6-.03-5.2-.13-7.79-.08-2.04-.91-3.6-3.21-4.04,2.8-3.92,1.94-8.13,1.6-12.7-5.51,4.23-10.73,8.4-17.71,8.76-.18-.25-.35-.5-.53-.75,1.26-.91,2.46-1.92,3.79-2.71,4.46-2.65,8.96-5.22,13.45-7.82.04-.33.07-.66.11-.99-2.68-1.39-5.22-3.22-8.06-4.05-4.33-1.28-8.84-2.18-13.33-2.7-6.21-.71-12.47-1.2-18.71-1.26-6.27-.06-12.16,2.14-17.77,4.72-1.99.91-3.66,2.94-4.99,4.81-5.61,7.84-14.08,8.95-22.08,2.21,2.46.43,4.44.53,6.25,1.13,8.4,2.76,19.23-5.92,17.69-15.52.58-.05,1.15-.11,1.71-.16,1.15-4.75,3.73-6.37,9.03-5.89,3.36.3,6.74.37,10.11.59.78.05,1.54.31,2.93.59-1.4,1.29-2.43,2.23-3.95,3.63,1.25.4,2.24.87,3.27,1.01,8.7,1.19,17.41,2.21,26.09,3.52,3.19.48,6.31,1.51,9.42,2.45,3.23.98,4.95,3.35,5.21,6.66.36,4.62.77,9.25.84,13.89.26,15.63.32,31.26.59,46.88.08,4.22.79,8.42.99,12.64.3,6.34.38,12.69.6,19.03.04,1.24.28,2.47.43,3.71.23.07.46.15.69.22,1.84-2.19,3.69-4.38,5.96-7.07,1.52,4.09,2.9,7.83,4.35,11.74,2.31-1.33,3.58-3.32,3.73-5.85.13-2.09-.12-4.22-.28-6.32-.23-3.06-.6-6.12,1.19-9.33.61.83,1.06,1.44,1.51,2.05-.53.62-1.53,1.24-1.52,1.84.04,2.85.16,5.74.67,8.53.22,1.24,1.43,2.29,2.2,3.43.21-.11.42-.21.63-.32-.75-4.41-1.44-8.94-2.13-13.46ZM61.56,323.96c1.02,1.13,2.02,2.3,3.08,3.4,1.34,1.39,2.61.94,3.29-.56.38-.84.4-2.16.01-3-5.35-11.56-15.8-12.51-24.23-4.92-3.76,3.39-6.18,8.27-9.16,12.52-.55.78-1.13,1.77-1.13,2.66,0,1.53.09,3.26.8,4.55,1.12,2.04,2.75,3.82,4.22,5.66.98,1.23,1.99,2.47,3.87,1.23.34-.22,1.17.1,1.68.36,3.65,1.86,7.51,2.06,11.42,1.39,8.44-1.46,14.45-6.75,19.82-12.92.66-.76,1.14-2.18.94-3.12-.88-4.12.57-7.39,2.85-10.69,2.83-4.1,2.04-7.78-2.45-9.94-4.2-2.03-8.72-3.52-13.23-4.7-2.32-.61-5.03-.38-7.44.1-3.15.63-4.55,3.37-3.97,6.71,2,.19,4.02.33,6.03.57,5.58.69,9.85,4.58,10.79,9.78.7,3.83,1.42,7.66,2.11,11.49.09.48.08.98.15,2.01-1.18-1.4-1.97-2.34-2.56-3.05-2.38,2.24-4.49,4.39-6.78,6.33-3.35,2.84-7.26,3.9-11.62,3.1-2.98-.55-5.32-1.98-6.5-4.91-2.48-6.13,1.16-15.01,7.21-17.65,4.75-2.08,8.4-.84,10.86,3.68-1.8-1.44-3.85-3.26-6.07-1.78-2.85,1.88-5.32,4.37-7.74,6.82-.45.45-.25,2.33.31,2.82,1.17,1.06,1.69-.34,2.32-1.16,1.44-1.85,2.95-3.65,4.43-5.47.27.14.54.28.81.43.2,2.15.4,4.31.59,6.46,3.7,1.28,6.63-.88,6.26-4.72-.09-1.18-.62-2.32-.97-3.48ZM248.02,161.66c1.3.59,2.43,1.18,3.62,1.61,5.85,2.13,8.25,6.52,8.14,12.5-.03,1.62-.19,3.26-.52,4.84-1.41,6.76-6.95,11.97-13.46,12.77-6.3.77-11.55-2.22-14.76-8.91-1.49-3.1-2.29-6.53-3.45-9.97h-3.31c.38-1.55.71-2.93,1.04-4.31-2.32,1.36-4.39,2.92-4.17,5.47.21,2.43,1.18,4.81,1.84,7.2.06.21.31.37.49.53,3,2.62,5.91,5.36,9.02,7.84,8.03,6.4,22.24,4.74,29.29-2.79.33-.36.54-.84,1.05-1.66-1.36.28-2.25.45-2.71.55,1.47-3.98,3.2-7.99,4.4-12.16.78-2.7,1.06-5.69-1.09-8.12-2.87-3.23-6.38-5.54-10.58-6.66-1.66-.44-3.35-.5-4.84,1.27ZM52.53,305.73c-.19-.22-.38-.44-.57-.66-6.88.45-12.92,2.88-17.35,8.37-1.17,1.45-1.69,3.67-1.88,5.6-.19,2.01.37,4.1.61,6.16-.18.15-.35.31-.53.46-1.06-1.08-2.13-2.16-3.19-3.24-4.91,4.49-5.74,11.62-1.64,18.16,1.21-2.26,2.53-4.1,3.24-6.15,1.39-4.01,3.54-7.42,6.49-10.46,3-3.09,5.86-6.33,8.58-9.67,2.23-2.71,4.17-5.69,6.24-8.57ZM45.08,359.67c.97-1.26,2.17-2.89.91-4.78-1.43-2.14-3.02-4.25-6.09-4.23-1.83.01-3.79.07-5.47-.52-2.58-.9-4.93-2.43-7.45-3.53-1.97-.86-2.67-2.1-1.61-4.01.86-1.56.31-2.67-.95-3.52-1.06-.72-2.19-1.48-3.39-1.81-2.72-.75-5.57,1.26-5.94,3.98-.37,2.7,2.1,6.99,4.12,6.62,3.36-.6,5.45,1.31,7.9,2.9,4.06,2.63,8.23,5.13,12.48,7.44,1.54.84,3.5.96,5.49,1.46ZM115.58,334.2c-2.32,2.92-3.99,5.35-5.99,7.46-2.99,3.15-6.82,4.73-11.06,3.42-4.36-1.34-8.55-3.15-13.35-1.03.53-1.54.9-2.61,1.46-4.25-4.18,2.06-4.47,4.18-1.35,6.23,7.74,5.08,16.13,6.22,24.94,3.44,4.12-1.3,7.51-6.69,7.02-10.94-.16-1.34-.98-2.59-1.67-4.33ZM97.6,328.16c1.01-1.35,1.52-2.51,2.41-3.07,1.29-.83,3.19-2.07,4.24-1.65,2.53,1.01,4.85,2.71,6.97,4.48,1.18.99.69,2.07-.91,2.91-2.41,1.27-4.76,2.81-6.78,4.63-2.01,1.8-1.32,3.73,1.28,4.48,2,.58,3.74-.03,5.12-1.46,3.28-3.39,4.88-7.48,4.36-12.19s-3.4-7.94-7.7-9.02c-2.84-.71-5.36-.11-7.31,2.11-2.1,2.42-2.64,5.23-1.68,8.78ZM72.64,346.75c-.26-.12-.52-.24-.78-.36-2.26,2.38-4.52,4.75-6.76,7.15-.2.21-.37.64-.29.89.75,2.48-1.09,3.44-2.72,4.15-2.88,1.27-5.92,2.16-8.86,3.3-.73.28-1.32.92-1.97,1.39.59.47,1.1,1.1,1.77,1.37,3.38,1.37,6.8,2.64,10.2,3.94,1.92.73,3.83,1.46,5.26,2,0-2.98-.35-5.83.09-8.55.47-2.93,1.75-5.72,2.55-8.6.62-2.2,1.02-4.45,1.51-6.68ZM101.53,343.22c-3.65-7.2-4.88-14.37-5.72-21.64-.08-.73-.46-2.01-.78-2.03-.88-.07-1.95.18-2.65.7-.81.6-1.62,1.54-1.86,2.48-.99,3.9-2.1,7.82-2.45,11.8-.14,1.57,1.23,3.74,2.56,4.87,2.88,2.49,6.65,3.06,10.9,3.82ZM208.12,174.82c2.87-2.02,4.94-2.42,6.34-1.31,1.49,1.19,1.99,4.47.74,6.56-.59.98-1.58,1.92-2.61,2.41-3.82,1.8-7.98-.54-8.78-4.86-.33-1.76-.48-3.55-.71-5.32-.31-.02-.62-.04-.92-.07-.37,2.15-1.15,4.33-.97,6.44.13,1.45,1.26,3.34,2.51,4.07,3.93,2.31,8.21,2.41,12.35.38,2.12-1.04,3.45-2.77,3-5.31-.5-2.86-2.01-5.14-4.49-6.66-1.99-1.22-4.05-1.05-5.95.28-1.96,1.38-3.34,3.13-3,5.71.24,1.86,1.26,3.22,3.12,3.63,1.86.41,3.01-.61,3.81-2.28-1.57-1.29-2.98-2.46-4.44-3.67ZM276.69,155.75c.2-.06.39-.11.59-.17,1.2,1.6,2.11,3.66,3.69,4.69,1.83,1.19,1.63,2.34.74,3.52-.95,1.25-2.22,2.39-3.57,3.19-2.45,1.44-3.88.82-4.94-1.83-.55-1.38-1.02-2.8-1.61-4.46-1.78,2.88-1.7,5.71-.03,7.55,1.82,2.01,5.56,2.58,8.14,1.23,4.16-2.17,6.37-8.18,4.68-12.7-.91-2.42-2.82-3.51-5.22-3.8-1.93-.23-4.24,1.4-4.36,3.45-.06.99,1.22,2.05,1.9,3.07.25-.15.5-.3.75-.46-.27-1.08-.51-2.18-.76-3.28ZM59.14,292.67c1.68-1.22,3.53-2.28,4.99-3.73.86-.85,1.85-2.74,1.46-3.41-.69-1.2-2.46-2.66-3.61-2.53-3.08.34-6.09,1.46-9.11,2.31-.26.07-.5.42-.64.69-1.09,2.26-2.32,4.48-3.16,6.83-.84,2.33.08,3.35,2.9,3.46.22-1.94.43-3.9.72-6.48.97,1.62,1.61,2.69,2.41,4.03,1.24-3.25.3-7.29,4.34-8.97.65,2.69-3.16,4.9-.3,7.8ZM275.14,183.97c1.82,1.47,3.37,2.4,4.49,3.7,1.11,1.29,2.16,2.87,2.54,4.49.73,3.06,3.05,5.64,6.13,6.03,2.32.3,3.91-1.39,3.1-3.56-2.33-6.25-7.22-11.32-16.26-10.66ZM237.8,200.39c-6.4,1.05-15.81,13.12-13.46,18.55,1.81-.83,3.8-1.43,5.38-2.58.95-.69,1.96-2.42,1.72-3.37-.61-2.4.47-3.53,2.1-4.8,1.19-.93,2.32-2.11,3.05-3.42.68-1.23.79-2.76,1.21-4.38ZM216.01,193.65c-2.2.08-3.61.8-4.04,2.75-.51,2.29,1.39,5.43,4.08,6.95,2.5,1.41,5,1.48,6.69-.6,1.96-2.41,3.58-5.18,4.85-8.02.93-2.07.25-4.17-2.03-5.37-2.42-1.28-4.71-.99-6.6.9,3.57,2.32,4.79,4.92,3.89,8.29-.73,2.73-2.99,4.37-5.11,3.71-2.26-.7-3.53-3.73-2.6-6.21.27-.74.53-1.47.87-2.4ZM44.05,335.2c-.27,2.82,1.4,4.06,3.52,4.67,5.3,1.52,10.31.67,14.8-2.51,2.12-1.51,3.31-3.64,3.02-7.03-4.49,5.85-10.3,5.52-16.22,4.9-1.67-.17-3.37-.03-5.12-.03ZM24.7,317.69c-1.14-3.48-.68-6.49,1.48-9.32.41-.53-.06-2.45-.72-2.92-.96-.7-2.59-1.19-3.69-.89-3.08.84-5.39,5.66-4.65,9.03.59,2.71,3.28,4.28,7.58,4.1ZM248.9,171.88c.12-.22.23-.43.35-.65-.93-.64-1.87-1.84-2.78-1.81-1.93.06-4.02.4-5.72,1.27-3.53,1.8-3.91,5.98-1.08,8.77,1.8,1.77,4.39,1.76,6.92.15,2.21-1.41.86-2.91.28-4.42-.16-.42-.35-.83-.64-1.49-1.52.81-2.86,1.52-4.31,2.3.77-4.18,3.93-4.05,6.98-4.12ZM47.42,350.15c5.31,2.2,10.71,3.7,16.38,1.41,3.76-1.52,6.27-5.26,5.87-8.65-6.4,5.69-14.51,5.67-22.25,7.24ZM234.73,184.45c-1.93-10.25.59-18.19,10.95-22.39-4.21-1.65-9.92,1.93-13.15,7.65-3.2,5.67-2.54,11.11,2.2,14.74ZM75.5,351.35c-2.77,2.01-6.14,11.31-4.99,13.9.44.99,1.96,1.99,3.07,2.08,2.27.19,3.22-1.65,3.51-3.61.62-4.16-.35-8.14-1.59-12.37ZM252.51,184.83c-4.69-.3-9.27-.63-13.73.79-2.35.75-2.69,2.52-.9,4.22.62.58,1.46,1.06,2.28,1.27,3.8.98,10.41-2.33,12.35-6.28ZM23.74,324.72c-2.76.34-5.79.6-8.76,1.14-1.48.27-2.35,1.45-2.05,3.11.28,1.56.95,2.61,2.82,2.77,1.76.15,3.48.74,5.22,1.13.81.18,1.62.33,2.03.41.25-2.89.48-5.46.74-8.56ZM28.09,304.09c1.48-2.19,2.73-4.18,4.13-6.06,1.46-1.96,3.21-3.28,6.06-1.71-.54-1.56-1.04-3.43-2.18-4-1.04-.51-2.86.21-4.19.75-1,.41-1.84,1.33-2.63,2.14-1.35,1.37-2.61,2.83-3.97,4.31-.57-.78-1.04-1.41-1.65-2.23-.57.74-1.04,1.35-1.63,2.12,2.04,1.58,3.95,3.06,6.06,4.68ZM226.12,161.51c1.66-3.66,4.95-4.51,9.03-4.34-1.6-1.78-2.65-2.99-3.75-4.16-2.35-2.51-5.54-2.05-7.18,1-1.26,2.33-.65,5.13,1.9,7.5ZM85.32,354.56c-.11.28-.22.57-.34.85,2.12,2.88,4.74,5.15,8.29,6.13,1.64.45,3.14-.08,3.73-1.83.61-1.8-.84-2.62-2.1-2.97-3.14-.88-6.38-1.48-9.58-2.18ZM255.31,168.88c-.31-.05-.62-.09-.93-.14-.77,3.64-1.68,7.25-2.21,10.92-.12.8,1.13,1.79,1.75,2.7.86-.8,2.3-1.48,2.49-2.41.77-3.77.05-7.47-1.1-11.07ZM250.69,156.96c3.78,1.83,7.14,3.46,10.69,5.18.82-1.94,1.5-3.56,2.18-5.18-.14-.08-.29-.16-.43-.24-.61.41-1.22.82-1.85,1.24-.74-.97-1.36-1.79-1.99-2.61-.08.24-.16.48-.23.73-.89-.11-1.85-.03-2.66-.36-2.02-.82-3.7-.44-5.71,1.24ZM11.56,281.3c2.41,2.49,7.63,3.27,11.87,1.89-2.17-4.63-7.59-5.56-11.87-1.89ZM296.03,170.81c-3.79-2.63-10.81-1.28-12.96,2.5,4.34,1.61,10.62.4,12.96-2.5ZM268.8,197.89c-2.78-2.29-5.47-3.42-8.53-3.49-1.31-.03-2.62.88-1.52,2.07,1.6,1.73,3.62,3.36,5.79,4.15.88.32,2.61-1.62,4.26-2.73ZM40.36,265.59c-3.8,5.02-4.92,10.71-4.33,16.81,3.13-5.17,3.9-10.95,4.33-16.81ZM256.74,148.32c3.01,2.64,5.81,5.11,9.02,7.93.25-3.77-.34-6.63-2.98-8.59-1.84-1.37-3.82-.87-6.04.66ZM200.65,160.57c0-.37.06-.64,0-.67-4.52-2.47-9.3-3.71-14.47-2.77-.37.07-.67.55-1,.84.41.3.78.79,1.22.86,4.25.69,8.51,1.33,12.77,1.94.5.07,1.03-.13,1.49-.2ZM251.82,170.83c.83-1.46,1.42-2.49,1.98-3.48-4.17-3.57-10.96-2.97-13.17,1.14,3.88-.17,8.18-2.89,11.19,2.34ZM29.32,341.86c3.07,1.6,3.97,6.43,8.61,4.56-1.27-4.61-4.84-6.63-8.61-4.56ZM92.96,378.97c-2.67-3.09-5.05-5.83-7.68-8.87-.73,5.71,2.52,9.46,7.68,8.87ZM26.24,269.11c-1.12-5.34-5.44-8.3-10.58-7.24,3.61,2.46,6.96,4.76,10.58,7.24ZM215.17,142.41c-2.19-2.77-4.08-5.16-6.26-7.92-1.13,4.88,1.06,8.82,6.26,7.92ZM254.87,204.6c-1.44.21-2.68.23-3.79.62-.63.22-1.26.99-1.48,1.64-.1.31.66,1.12,1.18,1.39,1.34.68,2.78,1.18,4.54,1.9-.17-2.07-.31-3.78-.45-5.55ZM102.76,330.03c.13-.07.25-.14.38-.21-.53-.97-1.07-1.95-1.6-2.92-.81.89-1.71,1.72-2.38,2.71-.33.48-.46,1.37-.24,1.88.3.69,1.07,1.71,1.56,1.67.77-.07,1.59-.8,2.16-1.46.28-.34.09-1.1.12-1.67ZM231.5,165.84c2.95-2.42,5.73-4.71,8.6-7.07-3.52-.65-8.05,3.03-8.6,7.07ZM86.66,310.26c-2.12-.38-3.64-.66-5.21-.94v5.68c1.94-1.77,3.32-3.02,5.21-4.74ZM67.54,289.45c-.44,2.1-.82,3.91-1.27,6.04,3.7-2.01,4.02-3.63,1.27-6.04Z" style="fill:#010101; stroke-width:0px;"/><path d="M85.02,60.03h-9.84c2.56-6.39,8.61-9.44,12.6-14.78-2.08-.23-3.62-.26-5.09-.59-2.45-.55-2.83-1.9-1.17-3.82.48-.55.99-1.11,1.58-1.52.59-.42,1.31-.67,1.97-.99-.21-.36-.42-.73-.63-1.09-.72-.07-1.45-.18-2.17-.21-1.87-.07-3.81.2-5.58-.25-1.33-.33-3.14-1.37-3.44-2.46-.35-1.29.23-3.54,1.23-4.32,1.84-1.43,4.26-2.14,6.48-3.05.78-.32,1.68-.35,2.62-.54-1.49-1.73-2.79-3.25-4.18-4.86-2.39.6-4.72,3.01-7.41.75-1.89-1.58-2.94-3.59-3.07-6.63,1.77,1.92,3.22,3.48,4.66,5.04.27-.16.53-.33.8-.49-.31-2.43-2.83-3.87-3.7-6.61,1.45.67,2.55,1.18,3.99,1.84V6.22c3.85,1.3,2.37,4.64,3.31,6.87.35.03.67.11.98.08,6.11-.58,7.68.48,9.65,6.32.99,2.93,2.12,5.82,3.57,8.65,1.72-5.09,1.47-10.57,4.76-15.18,2.31,1.96,2.49,4.41,1.95,6.91-.71,3.25-1.79,6.42-2.49,9.67-.83,3.84.83,6.33,4.68,7.26.08-.28.28-.58.24-.85-.67-4.82,1.25-8.69,4.27-12.26,2.23-2.64,2.54-2.77,5.34-.52,1.52-8.14,1.94-16.63,8.43-23.17,3.76,6.94,7.4,13.63,11.03,20.34.7,1.29,1.49,2.53,2.05,3.88.84,2.03,2,2,3.79.64-.53-.98-.97-2.01-1.6-2.9-2.28-3.22-2.1-6.76-1.25-10.3.6-2.49,2.1-3.04,4.44-1.92.8.38,1.54.9,2.29,1.39.75.49,1.47,1.01,2.46,1.69.58-.79,1.14-1.54,1.68-2.3.7-1,1.33-2.05,2.08-3.01,1.79-2.31,3.43-5.05,6.98-4.33,3,.61,6.19,4.75,6.3,8.26.07,2.24-.39,4.51-.69,6.76-.13,1.01-.46,1.99-.69,2.96,3.19,0,6.25.45,9.08-.15,2.03-.43,3.89-2.1,5.58-3.5,1.36-1.13,2.36-2.7,3.52-4.07.35.15.7.3,1.06.45-.3,2.06-.27,4.24-.96,6.17-2.29,6.37-5.94,11.53-12.98,13.46-2.81.77-5.56,1.82-8.25,2.95-3.15,1.33-5.02,3.79-5.43,7.24-.17,1.46-.02,2.88,1.74,3.27,1.62.37,3.18.1,3.96-1.57.58-1.24.64-2.77,1.38-3.87.67-1,1.94-1.59,2.95-2.37.43,1.05,1.21,2.09,1.22,3.15.03,2.88-2.98,6.23-5.95,6.99-3.02.77-5.49-.31-7.27-3.48-.7-1.26-1.38-1.46-2.71-1.18-3.42.72-6.87,1.25-10.31,1.86-.07.01-.13.09-.73.52,2.22,1.97,4.31,3.91,6.5,5.72.73.61,1.75.86,2.58,1.36,4.01,2.41,4.34,5.51.92,8.64-.63.58-1.28,1.14-2.29,2.04,1.93.22,3.32.38,4.7.53-6.69,2.29-13.57,1.6-20.54,1.71.58,2.97,1.11,5.67,1.62,8.37.11.56.28,1.16.17,1.69-.2.9-.37,2.04-.99,2.53-.41.32-1.73-.1-2.37-.57-1.43-1.05-2.72-2.31-4.02-3.53-2.7-2.54-4.59-2.62-7.49-.26-1.37,1.12-2.73,2.26-4.38,3.64-3.2-8.15,2.31-12.46,7.36-17.63-3.12-.39-5.54-.87-7.98-.96-5.74-.22-11.51-.55-17.24-.26-3.69.19-3.7.65-3.9,4.31-.18,3.41-.38,6.83-.43,10.24-.11,6.71,1.04,12.79,8.29,15.73-2.49-.63-4.99-1.25-7.8-1.95-.13,1.93-.38,3.69-.35,5.45.36,19.37.77,38.74,1.14,58.1.05,2.44-.1,4.88-.08,7.32.03,2.84.02,5.7.26,8.53.37,4.36,2.44,7.84,5.89,10.54,5.53,4.32,11.96,6.86,18.4,9.38,1.63.64,3.27,1.28,4.9,1.92-.05.27-.1.53-.15.8-2.75-.33-5.57-.37-8.22-1.06-6.14-1.59-11.59-4.61-16.5-8.65-4.79-3.93-6.58-9.07-6.6-15.08-.16-34.03-.36-68.07-.54-102.1.02-1.14.03-2.26.03-3.5ZM108.94,31.28c1.15,2.87,3.39,4.66,6.46,4.85,4.76.31,8.97-1.37,12.68-4.19,2.2-1.67,1.99-4.49-.46-5.84-1.43-.79-3.2-1.26-4.84-1.36-4.49-.27-8.85.3-12.89,2.99.86,1.07,1.54,1.92,2.33,2.92-1.23.23-2.24.43-3.28.63ZM149.96,22.6c5.21-1.35,9.28-8.96,7.3-13.61-.48-1.14-1.39-2.21-2.35-3.01-2.33-1.94-4.78-1.72-6.1.97-1.33,2.7-1.99,5.75-2.78,8.69-.3,1.13-.15,2.39-.23,4.09,1.89-1.61,3.26-2.77,4.63-3.92.24.12.49.25.73.37-.4,2.11-.79,4.23-1.2,6.42ZM135.31,51.59c-2.68-3.27-5.55-3.33-8.54-.55-1.13,1.05-1.42,1.9-.43,3.28,1.18,1.65,2.41,3.2,1.83,5.69-.47,2.03,1.09,3.63,3.24,3.78,4.72.33,8.77-1.35,11.96-4.81.48-.52.5-2.38.23-2.5-1.82-.8-3.75-1.61-5.69-1.76-.74-.06-1.54,1.69-2.43,2.48-1.17,1.02-2.35,2.35-3.74,2.69-.82.2-2.04-1.27-3.3-2.13,2.58-2.32,4.69-4.21,6.87-6.17ZM97.03,46.65c-.79.29-2.65.45-3.64,1.45-1.45,1.47-.47,3.38.51,4.93.47.74,1.1,1.47,1.82,1.94,3.72,2.41,7.81,3.64,12.26,3.15,2.17-.24,3.9-1.38,4.31-3.68.13-.72-.29-1.88-.85-2.26-.54-.37-1.7-.21-2.38.14-.84.42-1.46,1.27-2.18,1.93-2.03,1.89-4.24,2.12-5.92-.01-1.51-1.95-2.34-4.43-3.93-7.59ZM133.79,42.56c.06-.28.11-.57.17-.85-.74-.16-1.49-.53-2.21-.45-2.66.29-5.31.68-7.96,1.1-4.6.74-8.8-.99-13.12-2.02-1.53-.36-3.15-.35-5.34-.56,4.42,4.62,8.84,7.03,14.67,6.13,4.7-.73,9.49-1.04,13.79-3.35ZM137.04,37.19c.07.01.14.02.21.03-.09.72-.38,1.5-.2,2.15.1.38,1.17.92,1.43.76,4.53-2.7,5.98-6.72,4.01-11.27-.36-.84-1.36-1.42-2.07-2.11-.72.76-1.88,1.43-2.09,2.31-.62,2.66-.88,5.41-1.29,8.13ZM143.04,24.99c4.48,5.55,4.64,11.06.12,16.72.53-.15.82-.3.97-.54,3.72-5.94,7.41-11.89,13.69-15.59.26-.15.14-.95.27-2.16-3.66,2.79-6.69,5.11-10.11,7.72.18-1.55.29-2.49.43-3.62-1.13-.57-2.27-1.17-3.43-1.72-.63-.3-1.29-.54-1.94-.81ZM136.04,11.58c-2.36,5.13-.82,8.73,3.99,9.62,2.35-5.59,1.3-8.22-3.99-9.62ZM86.7,24.71c.4-.16.8-.31,1.2-.47-.76-2.82-1.32-5.72-2.35-8.44-.6-1.58-2.38-2.32-3.8-1.12-.6.51-.65,2.5-.15,3.32,1.49,2.38,3.37,4.5,5.1,6.71ZM87.53,33.62c-2.1-2.56-4.07-4.25-7.06-3.92-2.32.26-3.91,1.59-5.01,3.92h12.07ZM90.5,40.53c1.96-.14,3.33-.16,4.67-.36,1.52-.24,2.06-1.58,1.16-2.8-.79-1.08-1.72-2.07-2.79-3.35-1.04,2.23-1.94,4.16-3.04,6.51ZM100.69,40.36c-.34.19-.69.37-1.03.56.6,1.35.89,3.01,1.86,3.99,1.61,1.62,3.84,1.38,6.05.68-2.3-1.74-4.59-3.49-6.88-5.23ZM161.16,32.36c-1.2-1.34-2.05-2.28-3.04-3.38-1.79,1.69-3.42,3.23-5.04,4.77.18.28.37.56.55.84,2.33-.69,4.67-1.38,7.53-2.23ZM132.59,31.34c-2.53,2.24-4.72,4.18-7.16,6.35,4.72.57,7.62-1.97,7.16-6.35ZM106.82,31.97c-1.94.6-2.44,1.75-1.69,3.1.86,1.55,2.26,1.95,4.02.74-.79-1.3-1.53-2.52-2.33-3.84ZM130.55,26.85c.27-.16.55-.32.82-.49-.68-1.27-1.1-2.87-2.14-3.71-.64-.52-2.21.09-3.36.19,0,.26-.02.51-.03.77,1.58,1.08,3.14,2.16,4.71,3.24ZM109.86,71.12c3.09.37,4.82-1.55,4.56-5.18-1.28,1.38-2.42,2.59-3.54,3.82-.36.4-.65.86-1.02,1.36ZM113.13,50.97c.95,1.3,1.78,2.45,2.73,3.76,1.58-2.91.89-3.79-2.73-3.76Z" style="fill:#010101; stroke-width:0px;"/><path d="M189.95,192.33c-6.55,2.72-12.81,5.32-19.17,7.96-.35-1.06-.64-1.97-.99-3.04-1.54.49-2.97,1.04-4.45,1.39-2.37.55-3.1-.17-3.58-2.56-.24-1.19-1.1-2.26-1.75-3.35-.24-.41-.68-.69-1-1.06-1.31-1.51-3.18-2.84-2.25-5.23.96-2.46,3.35-2.48,5.39-2.46,5.13.04,9.95,1.39,14.31,4.17.34.22.75.43.95.75,2.91,4.82,7.19,3.17,11.18,2.24,1.74-.4,3.31-1.5,4.96-2.28-.06-.22-.12-.43-.17-.65-1.31,0-2.62.05-3.93-.01-2.34-.11-4.71-.12-7.01-.5-2.01-.33-3.27-1.78-3.55-3.85-.29-2.09.62-3.94,2.44-4.62,2.12-.8,4.59-1.45,6.78-1.17,4.87.63,8.68,3.47,11.71,7.29.42.52.56,1.26.8,1.82,1.68.32,3.31.63,5.68,1.08-1.55,1.63-2.57,2.83-3.73,3.89-2.82,2.57-5.63,5.17-8.6,7.56-.83.66-2.37,1.09-3.28.77-.62-.22-.95-1.91-1.01-2.97-.09-1.6.15-3.21.27-5.17ZM192.07,197.03c3.16-1.1,5.26-3.66,8.19-5.95-5.82-1.78-5.97,3.49-8.19,5.95ZM193.25,184.1c-3.19-2.57-9.67-2.53-10.45,0h10.45ZM170.05,190.07c-2.39-.67-4.79-1.33-7.43-2.07.75,2,5.43,3.45,7.43,2.07Z" style="fill:#010101; stroke-width:0px;"/><path d="M59.52,189.82c2.39,1.09,5.13,1.74,7.09,3.35,9.33,7.62,20.54,10.52,31.81,13.5,18.84,4.97,37.97,8.09,57.35,9.89.71.07,1.4.26,2.68.51-7.04,1.34-13.48.71-19.85-.24-12.13-1.8-24.25-3.64-36.3-5.9-4.82-.91-9.5-2.79-14.12-4.56-6.9-2.64-13.69-5.56-20.51-8.4-4.79-1.99-7.35-4.25-8.53-7.41.13-.25.25-.49.38-.74Z" style="fill:#010101; stroke-width:0px;"/><path d="M258.22,134.04c-1.31-7.38,2.29-12.8,4.75-18.58,3.4.84,3.68,3.94,5.08,6.65.77-.84,1.41-1.6,2.11-2.29,1.38-1.36,2.66-2.88,4.23-3.97,1.72-1.2,3.62-.84,5.1.67,1.38,1.41,1.36,3.19.36,4.71-.72,1.1-1.79,2.34-2.97,2.71-6.73,2.11-12.83,5.38-18.66,10.1ZM260.1,128.93c4.95-3.88,7.69-8.95,3.41-11.4-2.05,3.4-3.67,6.89-3.41,11.4ZM270.49,122.67c3.07.84,7.47-1.85,8.21-4.86-3.45-.43-6.05,1.08-8.21,4.86Z" style="fill:#010101; stroke-width:0px;"/><path d="M152.98,65.85c6.93-.62,13.41-1.05,19.85-1.81,7.82-.91,15.61-2.12,23.42-3.14,1.4-.18,2.85-.03,4.7-.03-7.12,5.43-40.37,8.84-47.97,4.98Z" style="fill:#010101; stroke-width:0px;"/><path d="M157.61,195.89c-1.66.45-3.33,1.32-4.98,1.29-9.93-.18-19.79-1.06-29.39-3.77-1.13-.32-2.17-.95-3.25-1.43.04-.22.07-.43.11-.65,1.93,0,3.89-.22,5.78.04,7.23.98,14.44,2.2,21.68,3.14,1.97.25,4.04-.31,6.06-.29,1.33.01,2.66.4,3.99.61,0,.35,0,.7,0,1.06Z" style="fill:#010101; stroke-width:0px;"/><path d="M128.21,126.11c-11.14-.92-21.8-3.68-32.12-7.76.06-.21.11-.43.17-.64,10.65,2.8,21.3,5.6,31.95,8.4Z" style="fill:#010101; stroke-width:0px;"/><path d="M165.61,143.27h34.58c-4.82,1.67-26.31,1.77-34.58,0Z" style="fill:#010101; stroke-width:0px;"/><path d="M256.6,284.65c-8.58,5.09-18.02,7.82-27.82,9.54,9.28-3.18,18.55-6.36,27.82-9.54Z" style="fill:#010101; stroke-width:0px;"/><path d="M238.44,233.57c7.43-2.93,14.86-5.86,22.29-8.79-6.73,4.76-14.24,7.47-22.29,8.79Z" style="fill:#010101; stroke-width:0px;"/><path d="M64.55,212.52c8.54,4.25,17.08,8.51,25.85,12.87-3.89-.33-19.51-7.91-25.85-12.87Z" style="fill:#010101; stroke-width:0px;"/><path d="M100.27,81.18c8.99,2.19,17.98,4.38,26.97,6.56-.06.26-.13.52-.19.79-9-2.14-18-4.27-27.01-6.41.08-.31.15-.63.23-.94Z" style="fill:#010101; stroke-width:0px;"/><path d="M66.08,229.35c7.78,3.36,15.56,6.71,23.34,10.07-.11.26-.22.53-.34.79-7.77-3.32-15.54-6.63-23.31-9.95.11-.3.21-.61.31-.91Z" style="fill:#010101; stroke-width:0px;"/><path d="M86.54,212.93c-8.49-3.77-16.99-7.55-25.48-11.32.1-.23.21-.47.31-.7,8.52,3.73,17.05,7.46,25.57,11.19-.13.28-.27.55-.4.83Z" style="fill:#010101; stroke-width:0px;"/><path d="M181.7,130.6c8.5-.78,17-1.55,25.5-2.33.03.31.05.63.08.94-8.44,1.41-17.03,1.15-25.58,1.39Z" style="fill:#010101; stroke-width:0px;"/><path d="M243.59,310.47c-7.88,2.7-15.76,5.41-23.64,8.11-.06-.17-.12-.34-.19-.52,7.81-2.9,15.62-5.79,23.43-8.69.14.37.27.73.4,1.1Z" style="fill:#010101; stroke-width:0px;"/><path d="M118.74,107.91c7.8.73,15.59,1.46,23.39,2.19-.02.27-.05.54-.07.81-7.8-.72-15.59-1.44-23.39-2.15.02-.29.04-.57.07-.85Z" style="fill:#010101; stroke-width:0px;"/><path d="M115.79,170.76c-5.63-2.52-11.27-5.04-16.9-7.56.11-.26.23-.52.34-.79,5.65,2.48,11.31,4.95,16.96,7.43-.14.31-.27.61-.4.92Z" style="fill:#010101; stroke-width:0px;"/><path d="M222.63,237.9c-4.82,2.65-9.99,3.52-15.45,2.84,5.15-.94,10.3-1.89,15.45-2.84Z" style="fill:#010101; stroke-width:0px;"/><path d="M122.46,183.86c-6.28-2.41-12.56-4.82-18.84-7.23.11-.29.22-.57.33-.86,6.27,2.53,12.55,5.05,18.82,7.58-.1.17-.2.34-.31.51Z" style="fill:#010101; stroke-width:0px;"/><path d="M263.13,248.86c-3.5,3.67-8.19,4.73-12.65,6.28-.08-.19-.17-.37-.25-.56,4.3-1.91,8.6-3.81,12.9-5.72Z" style="fill:#010101; stroke-width:0px;"/><path d="M113.62,157.2c-5.44-2.14-10.88-4.27-16.33-6.41.11-.26.21-.53.32-.79,5.44,2.22,10.88,4.45,16.32,6.67-.1.17-.21.35-.31.53Z" style="fill:#010101; stroke-width:0px;"/><path d="M247.9,218.42c3.81-1.91,7.62-3.83,11.43-5.74.11.21.21.41.32.62-3.73,2.08-7.47,4.15-11.2,6.23-.18-.37-.36-.74-.55-1.11Z" style="fill:#010101; stroke-width:0px;"/><path d="M220.64,117.31c-4.13.68-8.26,1.37-12.38,2.05-.05-.32-.11-.63-.16-.95,4.15-.7,8.29-1.4,12.44-2.1.03.33.06.67.1,1Z" style="fill:#010101; stroke-width:0px;"/><path d="M87.34,284.32c4.62-.16,8.94.82,12.78,3.52-4.26-1.18-8.52-2.35-12.78-3.52Z" style="fill:#010101; stroke-width:0px;"/><path d="M193.66,324.47c-4.28.29-8.56.57-12.85.86-.02-.23-.03-.47-.05-.7,4.28-.32,8.56-.64,12.84-.95.03.25.05.52.06.79Z" style="fill:#010101; stroke-width:0px;"/><path d="M211.69,110.51c4.57-1.66,9.14-3.32,13.71-4.97.08.21.15.42.23.63-4.57,1.66-9.14,3.31-13.71,4.97-.08-.21-.15-.42-.23-.63Z" style="fill:#010101; stroke-width:0px;"/><path d="M182.48,93.98c3.37-.31,6.74-.62,10.11-.94.03.28.05.56.08.84-3.39.3-6.77.59-10.16.89,0-.26-.02-.52-.03-.79Z" style="fill:#010101; stroke-width:0px;"/><path d="M205,272.19c-3.41.3-6.81.59-10.22.89-.03-.23-.05-.47-.08-.7,3.4-.37,6.81-.75,10.21-1.12l.09.93Z" style="fill:#010101; stroke-width:0px;"/><path d="M142.52,312.32h10.41v.54h-10.39c-.01-.18-.02-.36-.02-.54Z" style="fill:#010101; stroke-width:0px;"/><path d="M91.99,274.75c5.17.72,10.34,1.44,15.51,2.17-.03.19-.05.37-.08.56-5.19-.76-10.38-1.52-15.56-2.28.04-.15.09-.3.13-.45Z" style="fill:#010101; stroke-width:0px;"/><path d="M183.88,120.88c-3.96.27-7.92.54-11.88.81,0-.17-.02-.35-.03-.52h11.98c-.03-.1-.05-.19-.07-.29Z" style="fill:#010101; stroke-width:0px;"/><path d="M209.18,70.04c2.47-.77,4.94-1.55,7.41-2.32.1.28.19.55.29.83-2.45.9-4.91,1.81-7.36,2.71-.12-.41-.23-.81-.34-1.22Z" style="fill:#010101; stroke-width:0px;"/><path d="M131.85,160.22c3.26,1.18,6.51,2.37,9.77,3.55-.1.27-.2.54-.29.81-3.23-1.24-6.46-2.47-9.69-3.71.07-.21.14-.43.21-.65Z" style="fill:#010101; stroke-width:0px;"/><path d="M70.81,4.83c.79,1.71,1.57,3.42,2.36,5.12-.24.11-.47.22-.71.33-2.21-1.03-2.02-3.22-2.42-5.12.26-.11.51-.22.77-.33Z" style="fill:#010101; stroke-width:0px;"/><path d="M105.61,92.76c2.68.53,5.36,1.06,8.04,1.59-.06.27-.11.54-.17.81-2.73-.65-5.45-1.31-8.18-1.96.11-.14.21-.29.31-.44Z" style="fill:#010101; stroke-width:0px;"/><path d="M226.7,270.24c-3.05.38-6.1.76-9.14,1.14-.02-.16-.05-.32-.07-.48,3.04-.41,6.09-.82,9.13-1.23.03.19.05.38.08.57Z" style="fill:#010101; stroke-width:0px;"/><path d="M101,130.97c-2.66-1.03-5.33-2.06-7.99-3.09.08-.2.15-.4.23-.6l8.01,3.18c-.09.17-.17.34-.25.51Z" style="fill:#010101; stroke-width:0px;"/><path d="M123.31,234.02c3.08.8,6.16,1.6,9.24,2.39-.04.17-.09.33-.13.5-3.06-.82-6.11-1.64-9.17-2.45.02-.14.04-.29.06-.44Z" style="fill:#010101; stroke-width:0px;"/><path d="M115.14,27.58c1.02.54,1.82,1.18,2.71,1.38,2.44.54,2.91,1.35,1.66,3.5-.51.89-1.22,1.66-1.85,2.5-4.41-3.88-5.02-6.06-2.52-7.38Z" style="fill:#010101; stroke-width:0px;"/></svg>